<svg id="Layer_1" data-name="Layer 1" xmlns="http://www.w3.org/2000/svg" xmlns:xlink="http://www.w3.org/1999/xlink" viewBox="0 0 425.74 160.24"><defs><style>.cls-1{fill:url(#linear-gradient);}.cls-2{fill:url(#linear-gradient-2);}.cls-3{fill:url(#linear-gradient-3);}.cls-4{fill:#00609c;}</style><linearGradient id="linear-gradient" x1="31.62" y1="4.52" x2="37.83" y2="4.52" gradientTransform="translate(-677.34 -88.24) scale(23.15)" gradientUnits="userSpaceOnUse"><stop offset="0" stop-color="#fff"/><stop offset="0.85" stop-color="#f18b20"/><stop offset="1" stop-color="#f18b20"/></linearGradient><linearGradient id="linear-gradient-2" x1="30.68" y1="8.05" x2="36.89" y2="8.05" xlink:href="#linear-gradient"/><linearGradient id="linear-gradient-3" x1="-423.97" y1="-806.22" x2="-417.76" y2="-806.22" gradientTransform="translate(-9669.67 -18603.81) rotate(180) scale(23.15)" gradientUnits="userSpaceOnUse"><stop offset="0" stop-color="#f6f8fa"/><stop offset="0.85" stop-color="#00609c"/><stop offset="1" stop-color="#00609c"/></linearGradient></defs><title>2017-sponsor-logo-te-colored</title><path class="cls-1" d="M181.89,0H70.69A16.11,16.11,0,0,0,54.41,16.28,16.11,16.11,0,0,0,70.69,32.57h111.2a16.11,16.11,0,0,0,16.28-16.28A16.36,16.36,0,0,0,181.89,0Z"/><path class="cls-2" d="M160,81.81H48.85a16.28,16.28,0,1,0,0,32.57H160A16.28,16.28,0,0,0,160,81.81Z"/><path class="cls-3" d="M0,57.19A16.11,16.11,0,0,0,16.28,73.47h111.2a16.28,16.28,0,0,0,0-32.57H16.28A16.36,16.36,0,0,0,0,57.19H0Z"/><path class="cls-4" d="M228.75,1.19L222,26.61h34.15l-23.43,86.58h29.79l23-86.58H320.1l6.75-25.42H228.75Zm106.83,0-30.18,112h90.15l6.75-24.62H340.75l5.56-20.25h54.81l6-23H352.66l5.16-19.46H419l6.75-24.62H335.58Zm-135,146.55c0-8.34,12.31-14.69,17.08-6.35l-3.57,2.78c-2.38-3.57-6.75-2.38-8.34,1.59-2,5.16,3.18,7.15,6.75,4.37l2.38,3.18c-4.77,4-14.3,2.38-14.3-5.56m17.47-.4c0-7.55,9.93-13.5,15.89-7.55s-0.4,15.49-7.54,15.49c-5.17,0-8.34-3.18-8.34-7.94m13.11-1.59c0-6.35-8.73-3.57-8.73,1.59,0.39,6.35,8.73,3.57,8.73-1.59m9.93-7.94h4.77l-0.4,1.59c2-1.59,4.77-2.78,7.15-1.59,2.78,1.59,2.38,4.77,2,7.55l-2.38,9.13h-4.77L249.8,145c1.19-4.77-4.77-4-6-.4l-2.38,9.53H236.7l4.37-16.28h0Zm19.86,0h4.77l-0.4,1.59c2-1.59,4.77-2.78,7.15-1.59,2.78,1.59,2.38,4.77,2,7.55L272,154.49h-4.77l2.38-9.53c1.19-4.77-4.77-4.37-6-.4l-2.38,9.53h-4.77l4.37-16.28h0Zm24.62,13.5a8.88,8.88,0,0,0,4-1.2l2.38,3.18c-7.55,6-17.87-.79-13.5-9.93s19.46-6.36,15.09,4.76H282c0,2,1.19,3.18,3.57,3.18m4-6.35c1.59-5.16-6-3.57-7.54,0h7.54Zm7.15,2.78c0-8.34,12.32-14.69,17.08-6.35l-3.58,2.78c-2.38-3.57-6.75-2.38-8.34,1.59-2,5.16,3.18,7.15,6.75,4.37L311,153.3c-5.16,4-14.3,2.38-14.3-5.56m17.87,4.37a3.56,3.56,0,0,1,.4-2l2-7.54h-2l1.19-4h2l1.19-4.37h4.76l-1.19,3.57h4l-1.19,4h-4l-1.59,7.55c-0.79,2.38,2.38,2,3.57,1.19l-1.2,4c-2.38,1.19-7.94,1.19-7.94-2.38m16.28-14.3h4.77l-4.77,17.08h-4.77Zm1.59-6h5.16l-1.19,4.37h-5.16Zm6,6h5.16l0.79,11.52,6.75-11.52h5.16l-11.52,17.47h-4.37Zm21,0h4.77l-4.77,17.08h-4.77Zm1.59-6h5.16L365,136.22h-5.16Zm4.77,20.25a3.59,3.59,0,0,1,.4-2l2-7.54h-2l1.2-4h2l1.19-4.37h4.77l-1.2,3.57h4l-1.19,4h-4l-2,7.15c-0.4,2.39,2.39,2,3.57,1.19l-1.19,4c-2,1.59-7.55,1.59-7.55-2m10.33,6.75,2.38-3.57a2.51,2.51,0,0,0,3.57-.4l-1.59-17.08h4.77L386,149.33l6.36-11.52h5.16l-10.72,17.47c-2,4-6.35,6.75-10.72,3.57"/></svg>