<svg id="Layer_1" data-name="Layer 1" xmlns="http://www.w3.org/2000/svg" viewBox="0 0 327.66 321.92"><defs><style>.cls-1{fill:#003471;}.cls-2,.cls-3{fill:none;}.cls-2{stroke:#003471;stroke-width:2.18px;}</style></defs><title>2017-sponsor-logo-ucvts-blue</title><path class="cls-1" d="M125.57,280.77l-3.65-1.35,3.64-9.37a5.12,5.12,0,0,0,.47-2.45q-0.15-1.53-2.34-2.34t-3.33.24a5.22,5.22,0,0,0-1.31,2.14L115.42,277l-3.65-1.35,3.64-9.36a7.75,7.75,0,0,1,2.32-3.47q2.55-1.89,7-.24t5.09,4.72a7.59,7.59,0,0,1-.62,4.1Z"/><path class="cls-1" d="M106.61,273.27l-3.46-1.93L102.64,258l-5.77,9.82-3.07-1.72L102.1,252l3.3,1.84L106,267.43l5.88-10,3.07,1.72Z"/><path class="cls-1" d="M96.73,248l3.09,2.19L90,263.34l-3.09-2.19Z"/><path class="cls-1" d="M86.34,242.67a4.44,4.44,0,0,1,1.63,3.5,6.14,6.14,0,0,1-2,4,6.41,6.41,0,0,1-4,2.23,4.69,4.69,0,0,1-3.71-1.3,4.39,4.39,0,0,1-1.62-3.49,6.21,6.21,0,0,1,2-4,6.47,6.47,0,0,1,3.94-2.24A4.61,4.61,0,0,1,86.34,242.67ZM75.89,241.1q-3.11,3.29-2.63,6.77a8.22,8.22,0,0,0,3.1,5.36,8.59,8.59,0,0,0,5.74,2.58q3.61,0.19,6.72-3.1t2.61-6.77a8.19,8.19,0,0,0-3.09-5.37A8.55,8.55,0,0,0,82.59,238,8.65,8.65,0,0,0,75.89,241.1Z"/><path class="cls-1" d="M67,243.36L64.5,240.3l4.69-12.53-9.15,7L57.86,232,71,222l2.34,2.92-4.75,12.8,9.32-7.1,2.18,2.72Z"/><path class="cls-1" d="M58.48,220.62a2.24,2.24,0,0,1,1.12-1.55,2.38,2.38,0,0,1,1.94-.26,2.82,2.82,0,0,1,1.63,1.29,2.71,2.71,0,0,1,.42,2,2.27,2.27,0,0,1-1.13,1.56,2.34,2.34,0,0,1-1.93.25,2.83,2.83,0,0,1-1.63-1.29A2.72,2.72,0,0,1,58.48,220.62Z"/><path class="cls-1" d="M50.65,216.72a7.88,7.88,0,0,1-4.23-4.18q-1.91-4.07-.28-7.07a5.58,5.58,0,0,1,2.31-2.38L50,206.48a4.66,4.66,0,0,0-1.28,1.59,3.82,3.82,0,0,0,.28,3.16,3.88,3.88,0,0,0,2.75,2.26,7.1,7.1,0,0,0,4.44-.7,6.07,6.07,0,0,0,3.3-2.81,3.89,3.89,0,0,0-.05-3.39,3.75,3.75,0,0,0-2.34-2.19,5.2,5.2,0,0,0-2.16-.06l-1.59-3.39a7.51,7.51,0,0,1,5.09.44,7.67,7.67,0,0,1,3.72,3.92,7.82,7.82,0,0,1,.47,6.41,8.61,8.61,0,0,1-4.84,4.56A8.88,8.88,0,0,1,50.65,216.72Z"/><path class="cls-1" d="M53.16,189.24a4.39,4.39,0,0,1-.53,3.81,6.39,6.39,0,0,1-3.85,2.39,6.53,6.53,0,0,1-4.57-.16,4.52,4.52,0,0,1-2.43-3,4.34,4.34,0,0,1,.54-3.79,6.45,6.45,0,0,1,3.86-2.37,6.58,6.58,0,0,1,4.56.15A4.45,4.45,0,0,1,53.16,189.24Zm-8-6.75q-4.42,1.17-5.92,4.37a8.08,8.08,0,0,0-.3,6.15,8.26,8.26,0,0,0,3.45,5.16q3,2,7.38.87t5.91-4.38A8,8,0,0,0,56,188.5a8.23,8.23,0,0,0-3.46-5.16A8.75,8.75,0,0,0,45.18,182.48Z"/><path class="cls-1" d="M101.29,53.79l5.31,4.38-4.05,2.31Zm-1,15.13,3.47-2-0.67-3.53,5.82-3.32,2.8,2.31,3.59-2-14-10.85-3.75,2.14Z"/><path class="cls-1" d="M123.17,39.77l1.1,2.66-5.11,2,5.15,12.44-3.54,1.4-5.15-12.44-5.11,2-1.1-2.66Z"/><path class="cls-1" d="M134.63,53.57L131,54.63,126.25,39,129.92,38Z"/><path class="cls-1" d="M145.29,48.79a4.69,4.69,0,0,1-3.84-.88,6.17,6.17,0,0,1-2.07-4,6.08,6.08,0,0,1,.6-4.42,5.13,5.13,0,0,1,7.14-1.19,6.22,6.22,0,0,1,2.06,4,6.14,6.14,0,0,1-.58,4.41A4.56,4.56,0,0,1,145.29,48.79Zm7.65-7.11q-0.77-4.4-3.9-6.16a8.67,8.67,0,0,0-6.25-.88,8.55,8.55,0,0,0-5.6,2.86q-2.36,2.67-1.58,7.08a8.31,8.31,0,0,0,3.91,6.15,8.64,8.64,0,0,0,6.25.89,8.51,8.51,0,0,0,5.59-2.87A8.19,8.19,0,0,0,152.94,41.68Z"/><path class="cls-1" d="M156.5,33.4l4,0,7.33,11.26-0.09-11.32,3.54,0,0.13,16.28-3.8,0-7.52-11.47,0.09,11.53-3.54,0Z"/><path class="cls-1" d="M183.67,38.43L185,45.1l-4.64-.68ZM173.16,49.6l4,0.58L178.89,47l6.67,1,0.69,3.51,4.11,0.6-3.95-17-4.3-.63Z"/><path class="cls-1" d="M196.9,37.11l3.66,1.08-4,12.8,8.78,2.6-0.87,2.78L192,52.69Z"/><path class="cls-1" d="M214.57,50a2.18,2.18,0,0,1,0,1.89,2.3,2.3,0,0,1-1.42,1.32,2.9,2.9,0,0,1-2.1-.12,2.8,2.8,0,0,1-1.54-1.39,2.21,2.21,0,0,1,0-1.91,2.26,2.26,0,0,1,1.41-1.3,2.91,2.91,0,0,1,2.09.12A2.82,2.82,0,0,1,214.57,50Z"/><path class="cls-1" d="M234.17,52.67l-1.42,2.51-4.82-2.6-6.67,11.74-3.35-1.81,6.67-11.74-4.82-2.6,1.42-2.51Z"/><path class="cls-1" d="M286,181.68a2.49,2.49,0,0,1-3.53-.57,2.71,2.71,0,0,1-.37-2,2.74,2.74,0,0,1,1-1.79,2.37,2.37,0,0,1,1.9-.46,2.3,2.3,0,0,1,1.63,1,2.7,2.7,0,0,1,.37,2A2.76,2.76,0,0,1,286,181.68Z"/><path class="cls-1" d="M279.59,187.94a3.26,3.26,0,0,0-1.83.2,4.15,4.15,0,0,0-1.88,2.77,7.16,7.16,0,0,0-.35,2.17,1.93,1.93,0,0,0,1.41,2,1.42,1.42,0,0,0,1.46-.42,9,9,0,0,0,1.45-2.18l0.92-1.74a12.93,12.93,0,0,1,2.32-3.41,4,4,0,0,1,4-.79,4.61,4.61,0,0,1,3.1,2.69,7.77,7.77,0,0,1,0,5.37,8.4,8.4,0,0,1-2.71,4.3,5,5,0,0,1-4.51.94l1-3.43a2.4,2.4,0,0,0,2.44-.81,5.24,5.24,0,0,0,1-2,4.44,4.44,0,0,0,.14-2.4,1.66,1.66,0,0,0-1.21-1.25,1.44,1.44,0,0,0-1.51.48,11,11,0,0,0-1.32,2.09l-1.55,2.82a8.31,8.31,0,0,1-2,2.64,4,4,0,0,1-3.73.62,4.6,4.6,0,0,1-3.12-2.83,8.26,8.26,0,0,1,0-5.53,9.24,9.24,0,0,1,3-4.92,4.88,4.88,0,0,1,4.51-.84Z"/><path class="cls-1" d="M283.55,206.92a7.61,7.61,0,0,1-.48,5.85q-1.91,4.07-5.31,4.83a5.81,5.81,0,0,1-3.35-.15l1.59-3.39a4.9,4.9,0,0,0,2.07-.09,4,4,0,0,0,2.27-2.27,3.71,3.71,0,0,0,0-3.51,6.89,6.89,0,0,0-3.44-2.82,6.27,6.27,0,0,0-4.34-.59,4.05,4.05,0,0,0-2.6,2.25,3.61,3.61,0,0,0-.17,3.16,5,5,0,0,0,1.37,1.63l-1.59,3.39a7.16,7.16,0,0,1-3-4,7.43,7.43,0,0,1,.61-5.31,8.11,8.11,0,0,1,4.67-4.53,8.92,8.92,0,0,1,6.7.59A8.56,8.56,0,0,1,283.55,206.92Z"/><path class="cls-1" d="M263,215l13.9,9-2.12,3.1-5.29-3.44-3.95,5.78,5.29,3.44-2.12,3.1-13.9-9,2.12-3.1,6.23,4,3.95-5.78-6.23-4Z"/><path class="cls-1" d="M249.22,236.89a4.66,4.66,0,0,1,3.6-1.57,6.44,6.44,0,0,1,4.11,1.93,6.17,6.17,0,0,1,2.27,3.87,4.44,4.44,0,0,1-1.36,3.61,4.61,4.61,0,0,1-3.59,1.55,6.51,6.51,0,0,1-4.1-1.94,6.25,6.25,0,0,1-2.28-3.85A4.37,4.37,0,0,1,249.22,236.89Zm-1.67,10.18q3.35,3,6.93,2.6a8.56,8.56,0,0,0,5.52-3,8.19,8.19,0,0,0,2.68-5.58q0.22-3.52-3.14-6.57a8.66,8.66,0,0,0-6.93-2.58,8.51,8.51,0,0,0-5.53,3,8.15,8.15,0,0,0-2.67,5.59Q244.26,244.07,247.55,247.06Z"/><path class="cls-1" d="M234.68,249.68a4.69,4.69,0,0,1,3.82-1,6.38,6.38,0,0,1,3.72,2.58,6.12,6.12,0,0,1,1.57,4.19,4.47,4.47,0,0,1-2,3.33,4.63,4.63,0,0,1-3.81.94,6.44,6.44,0,0,1-3.71-2.59,6.19,6.19,0,0,1-1.58-4.17A4.41,4.41,0,0,1,234.68,249.68Zm-3.4,9.76q2.78,3.55,6.38,3.7a8.63,8.63,0,0,0,6-2,8.27,8.27,0,0,0,3.6-5.06q0.82-3.44-2-7a8.28,8.28,0,0,0-12.35-1.65,8.24,8.24,0,0,0-3.59,5.07Q228.55,256,231.27,259.44Z"/><path class="cls-1" d="M232.14,268.26L228.78,270l-6.58-11.74-8.05,4.29L212.72,260,224.13,254Z"/><path class="cls-1" d="M210,266.54a3.14,3.14,0,0,0-1.25-1.32,4.36,4.36,0,0,0-3.4.17,7.61,7.61,0,0,0-2,1,1.9,1.9,0,0,0-.85,2.32,1.4,1.4,0,0,0,1.21.89,9.48,9.48,0,0,0,2.65-.16l2-.31a13.66,13.66,0,0,1,4.19-.22,3.92,3.92,0,0,1,3,2.66,4.43,4.43,0,0,1-.37,4,8.15,8.15,0,0,1-4.44,3.18,8.86,8.86,0,0,1-5.16.43,4.82,4.82,0,0,1-3.46-3l3.43-1.26a2.36,2.36,0,0,0,2.12,1.43,5.58,5.58,0,0,0,2.27-.4,4.68,4.68,0,0,0,2.06-1.32,1.6,1.6,0,0,0,.31-1.69,1.41,1.41,0,0,0-1.3-.9,11.6,11.6,0,0,0-2.51.21l-3.25.46a8.72,8.72,0,0,1-3.38,0,3.93,3.93,0,0,1-2.73-2.56,4.42,4.42,0,0,1,.47-4.13,8.65,8.65,0,0,1,4.58-3.26,9.74,9.74,0,0,1,5.83-.59,4.74,4.74,0,0,1,3.38,3Z"/><path class="cls-1" d="M214.35,219.18c11.76,9.56,22.3,11.17,27,5.74s1-15-10.75-24.56"/><path class="cls-1" d="M180.83,234.67c5.24,14,12.64,20.22,19.49,17.8s9.67-13.9,4.43-27.85"/><path class="cls-1" d="M140.38,231.89c-2.71,15.13,1,24.66,8.34,25.93s17.13-3.66,18.91-22.3"/><path class="cls-1" d="M109.22,208.78c-10,11.77-13.68,23.27-8,28s16.25,0.64,26.28-11.13"/><path class="cls-1" d="M91.45,175.11c-14.66,5.25-23.34,13.62-20.8,20.49s14.77,8,29.43,2.78"/><path class="cls-1" d="M146.7,273.81V272.5a10.67,10.67,0,0,0,1.43-.12,2.11,2.11,0,0,0,1.06-.51,1.63,1.63,0,0,0,.42-0.69,1.42,1.42,0,0,0,.08-0.39h1.83v9.77H149.3v-6.75h-2.6Z"/><path class="cls-1" d="M155.77,271.69a3.7,3.7,0,0,1,2.66-1,3.47,3.47,0,0,1,3.45,2,6.88,6.88,0,0,1,.53,2.94,7.47,7.47,0,0,1-.51,3,3.57,3.57,0,0,1-3.58,2.25,4,4,0,0,1-2.23-.65,2.5,2.5,0,0,1-1.14-1.9h2.15a1.14,1.14,0,0,0,.41.71,1.39,1.39,0,0,0,.9.27,1.53,1.53,0,0,0,1.51-1,5.4,5.4,0,0,0,.3-1.69,2.25,2.25,0,0,1-.63.51,3.13,3.13,0,0,1-1.49.33,3.65,3.65,0,0,1-2.33-.81,2.79,2.79,0,0,1-1-2.32A3.36,3.36,0,0,1,155.77,271.69Zm3.64,3.88a1.52,1.52,0,0,0,.75-1.45,1.88,1.88,0,0,0-.44-1.31,1.54,1.54,0,0,0-1.2-.48,1.63,1.63,0,0,0-1,.28,1.64,1.64,0,0,0-.63,1.46,1.86,1.86,0,0,0,.4,1.3,1.59,1.59,0,0,0,1.23.43A1.66,1.66,0,0,0,159.41,275.57Z"/><path class="cls-1" d="M168.66,273.25a0.92,0.92,0,0,0-.21-0.52,1.25,1.25,0,0,0-1.06-.46,1.55,1.55,0,0,0-1.51,1.06,5.85,5.85,0,0,0-.34,1.72,2.45,2.45,0,0,1,.94-0.62,3.53,3.53,0,0,1,1.22-.19,3.39,3.39,0,0,1,2.41.88,3,3,0,0,1,.94,2.25,3.53,3.53,0,0,1-.92,2.41,3.62,3.62,0,0,1-2.86,1,3.39,3.39,0,0,1-3.07-1.55,5.71,5.71,0,0,1-.77-3.11,12.45,12.45,0,0,1,.11-1.82,5.12,5.12,0,0,1,.74-2.08,3.57,3.57,0,0,1,1.24-1.14,3.68,3.68,0,0,1,1.83-.43,3.94,3.94,0,0,1,2.45.7,2.55,2.55,0,0,1,1,1.85h-2.15Zm-2.58,5.5a1.63,1.63,0,0,0,1.22.5,1.43,1.43,0,0,0,1.14-.48,1.84,1.84,0,0,0,.42-1.25,1.73,1.73,0,0,0-.47-1.31,1.62,1.62,0,0,0-1.16-.45,1.68,1.68,0,0,0-1,.3,1.59,1.59,0,0,0-.64,1.41A1.77,1.77,0,0,0,166.08,278.75Z"/><path class="cls-1" d="M174.17,278a1.74,1.74,0,0,0,.5,1,1.81,1.81,0,0,0,2.3-.16,1.88,1.88,0,0,0,.42-1.26,2,2,0,0,0-.4-1.26,1.46,1.46,0,0,0-1.23-.51,2.43,2.43,0,0,0-.69.09,1.34,1.34,0,0,0-.77.6l-2-.08,0.79-5.41h6.1v1.63h-4.54l-0.4,2.15a4.73,4.73,0,0,1,.79-0.39,4,4,0,0,1,3.54.66,2.86,2.86,0,0,1,1,2.37,3.47,3.47,0,0,1-1,2.42,3.79,3.79,0,0,1-2.94,1.06,4.24,4.24,0,0,1-2.58-.75A2.78,2.78,0,0,1,172,278h2.15Z"/><path class="cls-1" d="M164.53,77.76c-46,0-83.38,36.65-83.38,81.85s37.33,81.85,83.38,81.85,83.38-36.65,83.38-81.85S210.57,77.76,164.53,77.76Zm0,153.81c-40.48,0-73.3-32.22-73.3-72s32.82-72,73.3-72,73.3,32.22,73.3,72S205,231.57,164.53,231.57Z"/><path class="cls-1" d="M317.79,157.67a37.74,37.74,0,0,1,9-24.45q-0.88-4.94-2.07-9.78a38.28,38.28,0,0,1-19.48-33.17,37.54,37.54,0,0,1,1.5-10.48q-2-3.35-4.18-6.6C283.36,70.86,268.47,55.1,268,35.86q-2.67-2.11-5.42-4.11a40.64,40.64,0,0,1-7.86.77A39.49,39.49,0,0,1,218.35,8.86Q215,7.73,211.62,6.74a40,40,0,0,1-21.11,6A39.8,39.8,0,0,1,161.21,0q-3.88.07-7.71,0.31a39.76,39.76,0,0,1-30.55,14.13,40.11,40.11,0,0,1-17.51-4q-3.47,1.29-6.86,2.72A39.43,39.43,0,0,1,61.51,38.43a41.24,41.24,0,0,1-4.21-.22q-2.7,2.23-5.3,4.58c0,18.3-13.18,33.6-30.77,37.45q-2,3.39-3.88,6.89a37.51,37.51,0,0,1,3.34,15.48A38.28,38.28,0,0,1,1,135.9q-0.59,3.69-1,7.44a37.76,37.76,0,0,1,9.57,25.1,37.65,37.65,0,0,1-7.63,22.73q0.69,3.53,1.53,7a38.35,38.35,0,0,1,21,34A37.54,37.54,0,0,1,22.63,244q2.07,3.35,4.3,6.58c18.72,2.4,33.31,17.57,34.23,36.25Q64,289,66.89,291a40.92,40.92,0,0,1,5-.32,39.56,39.56,0,0,1,35.35,21.37c2.11,0.76,4.24,1.46,6.39,2.13a40.19,40.19,0,0,1,49,7.67l1.51,0c2.15,0,4.3-.05,6.43-0.13a40.17,40.17,0,0,1,49.74-9.43q3.88-1.37,7.66-2.91a39.41,39.41,0,0,1,37.23-25.72,40.72,40.72,0,0,1,5.28.35q3-2.5,6-5.14c0.66-17.33,13.08-31.74,29.71-35.84q2.14-3.5,4.09-7.11a37.51,37.51,0,0,1-2.7-14,38.26,38.26,0,0,1,19.21-33c0.35-1.95.66-3.91,0.94-5.88A37.77,37.77,0,0,1,317.79,157.67Zm-153,143.09C85,300.75,20.33,237.69,20.33,159.9S85,19,164.8,19,309.26,82.1,309.26,159.9,244.58,300.75,164.8,300.75Z"/><ellipse class="cls-2" cx="164.8" cy="159.9" rx="101.98" ry="99.43"/><ellipse class="cls-2" cx="164.8" cy="159.9" rx="96.88" ry="94.46"/><ellipse class="cls-2" cx="164.8" cy="159.9" rx="92.03" ry="89.73"/><ellipse class="cls-2" cx="164.8" cy="159.9" rx="87.43" ry="85.25"/><path class="cls-1" d="M36.38,179.74L36,175.95l10.22-1a5.47,5.47,0,0,0,2.46-.68q1.33-.82,1.1-3.09t-1.71-2.8a5.5,5.5,0,0,0-2.55-.19l-10.22,1-0.39-3.79,10.22-1a8.14,8.14,0,0,1,4.22.48q2.88,1.38,3.35,6t-2.06,6.55a8.11,8.11,0,0,1-4,1.29Z"/><path class="cls-1" d="M34.79,159.91L35,156l12-6.43L35.41,149l0.2-3.45,16.67,0.9-0.21,3.7-12.22,6.59,11.81,0.64-0.2,3.45Z"/><path class="cls-1" d="M39.09,127.42L42,128l-1.1,5.27,13.49,2.67-0.76,3.65-13.49-2.67L39,142.18l-2.88-.57Z"/><path class="cls-1" d="M43.74,114l1.45-4,7.76,9,5.93,2.05L57.6,124.6l-5.9-2-12,2.43,1.51-4.15,8.12-1.13Z"/><path class="cls-1" d="M54.81,105.73a2.35,2.35,0,0,1,1.94.07A2.28,2.28,0,0,1,58,107.26a2.7,2.7,0,0,1-.23,2,2.8,2.8,0,0,1-1.5,1.43,2.38,2.38,0,0,1-2-.08,2.25,2.25,0,0,1-1.26-1.44,2.71,2.71,0,0,1,.23-2A2.81,2.81,0,0,1,54.81,105.73Z"/><path class="cls-1" d="M57.27,88.87l2.12-3.27L70.16,99.47l-1.93,3L50.8,98.85,53,95.48,65.84,98.8Z"/><path class="cls-1" d="M78.06,85.39a4.65,4.65,0,0,1-3.55,1.67,6.46,6.46,0,0,1-4.17-1.81A6.18,6.18,0,0,1,68,81.45a4.43,4.43,0,0,1,1.25-3.64,4.59,4.59,0,0,1,3.54-1.66A6.51,6.51,0,0,1,76.9,78a6.24,6.24,0,0,1,2.39,3.78A4.36,4.36,0,0,1,78.06,85.39Zm1.36-10.22q-3.44-2.95-7-2.4A8.53,8.53,0,0,0,67,75.92a8.17,8.17,0,0,0-2.51,5.65q-0.11,3.53,3.33,6.48a8.67,8.67,0,0,0,7,2.38,8.5,8.5,0,0,0,5.44-3.14,8.14,8.14,0,0,0,2.5-5.66Q82.8,78.07,79.42,75.17Z"/><path class="cls-1" d="M79.34,66.8a7.74,7.74,0,0,1,3.06-5q3.55-2.84,6.94-2.07a5.71,5.71,0,0,1,2.95,1.57l-3,2.36a4.82,4.82,0,0,0-1.9-.8,4.07,4.07,0,0,0-3.06,1.06A3.76,3.76,0,0,0,82.83,67a6.68,6.68,0,0,0,1.83,4,6.15,6.15,0,0,0,3.63,2.39,4.17,4.17,0,0,0,3.35-.91,3.67,3.67,0,0,0,1.58-2.77,4.85,4.85,0,0,0-.5-2.05l3-2.36a7,7,0,0,1,.87,4.91,7.56,7.56,0,0,1-2.93,4.51,8.33,8.33,0,0,1-6.23,2.07,8.76,8.76,0,0,1-5.76-3.39A8.33,8.33,0,0,1,79.34,66.8Z"/><path class="cls-1" d="M246.47,65l-7.62-5.59-2.13,2.76,7,5.12L242,69.52l-7-5.12-2.64,3.42,8,5.85L238.55,76l-11-8,10-13,10.61,7.78Z"/><path class="cls-1" d="M252.38,68.7a8.07,8.07,0,0,1,5.43,2.53q3.21,3.2,2.72,6.56a5.44,5.44,0,0,1-1.34,3l-2.67-2.66a4.56,4.56,0,0,0,.65-1.91,3.86,3.86,0,0,0-1.36-2.88,4,4,0,0,0-3.38-1.22,7,7,0,0,0-3.93,2.13A5.93,5.93,0,0,0,246.38,78a3.92,3.92,0,0,0,1.23,3.17,3.83,3.83,0,0,0,3,1.29,5.17,5.17,0,0,0,2.06-.66l2.67,2.66a7.47,7.47,0,0,1-4.94,1.27,9,9,0,0,1-7.53-8.33,8.42,8.42,0,0,1,3-5.89A8.79,8.79,0,0,1,252.38,68.7Z"/><path class="cls-1" d="M252.82,90.29l13.61-9.43,2.21,3-5.18,3.59,4.13,5.66,5.18-3.59,2.21,3L261.38,102l-2.21-3,6.1-4.23-4.13-5.66L255,93.33Z"/><path class="cls-1" d="M277.91,97.38l1.77,3.48-7.18,11.35,10.4-5,1.57,3.09-15,7.23-1.69-3.32,7.3-11.61-10.6,5.12L263,104.62Z"/><path class="cls-1" d="M271.7,123.75l-1.31-3.5,15.68-5.59,1.31,3.5Z"/><path class="cls-1" d="M287.81,124.82a7.78,7.78,0,0,1,3.35,4.87q1.09,4.35-1.09,7a5.66,5.66,0,0,1-2.72,1.91L286.44,135a4.73,4.73,0,0,0,1.56-1.32,4.31,4.31,0,0,0-1.93-5.88,7.09,7.09,0,0,0-4.49-.12,6.15,6.15,0,0,0-3.78,2.16,3.9,3.9,0,0,0-.6,3.34,3.7,3.7,0,0,0,1.88,2.58,5.21,5.21,0,0,0,2.11.45l0.91,3.62a7.48,7.48,0,0,1-4.92-1.36,7.57,7.57,0,0,1-2.9-4.53,7.83,7.83,0,0,1,.77-6.38,8.74,8.74,0,0,1,5.63-3.6A8.88,8.88,0,0,1,287.81,124.82Z"/><path class="cls-1" d="M290.36,149.75L284,152.53,283.62,148Zm-13.56-7.42,0.33,3.91,3.55,0.94,0.56,6.55-3.35,1.46,0.34,4,16.11-7.65L294,147.36Z"/><path class="cls-1" d="M294.71,161.94l-0.23,3.72-13.7-.81-0.56,8.93-3-.18L278,161Z"/><path class="cls-1" d="M192,89.94c2.71-15.63-2-26.27-9.31-27.59s-14.39,8-17.1,23.62"/><path class="cls-1" d="M225,114.7c10.68-12,13.57-24.38,7.5-29.16s-17.14-.63-27.82,11.33"/><path class="cls-1" d="M241.27,150.84c15.13-5.25,23-14.23,20.42-21.11s-14.94-8.41-30.07-3.15"/><path class="cls-1" d="M236.19,188.48c15.36,2.67,26.47-1.43,27.76-8.64s-7.32-14.45-22.68-17.11"/><path class="cls-1" d="M93.48,136c-15.36-2.67-27.25.59-28.54,7.8s8.61,14.79,24,17.46"/><path class="cls-1" d="M114.81,102.81c-11.95-9.88-22.43-12-27.21-6.43s-0.49,16.36,11.46,26.23"/><path class="cls-1" d="M150.87,85.48C145.53,71,137,64.39,130,66.89s-8.86,13.56-3.52,28"/><path class="cls-1" d="M120.56,127.82l-2.45,1.47L115.66,131l-2.31,1.74L111,134.65v1.47c2.78-1.76,3.68-.93,3.67,8.84v24.38c0,7.27-.44,10.06-1,11.66-1.13,3.48-3.4,4.55-6.39,2.14-6.13-5.92-6.13-13.17-6.12-16.48V149.92c0-3.79.39-4.79,3.13-8v-1.07l-2.45,2.68-2.31,2.81-2.18,2.81-2,2.95v0.54c2.15-2.84,2.61-2.95,2.58,0v12.46c0,2.46,0,10.27,8.3,20.1,10.2,8.88,10.26-8.82,10.2-16.35v-6.3l0.14-6.16V144.16c0-9.91.71-11.76,3.95-14.47v-1.88h0Z"/><path class="cls-1" d="M151.17,145.1L151,137.33l-0.14-7.64-0.14-7.64v-7.5h-0.54l-0.41.13h-0.14c-0.49,4.49-2.08,4.77-2.31,4.82-1.18.28-4.41-3.24-8.71-1.87-8.34,3.33-16.05,20.24-16.05,43.94-0.11,26.32,7.76,40.66,15.51,43.81,9.2,2.6,13.63-13.64,13.74-13.93l-0.27-.67-0.27-.67-0.27-.67-0.14-.54c-1.6,3.9-5.22,12.83-11.43,11.25-6-2-11.65-14.17-11.7-38.45,0.1-16.41,2.14-24.28,4.08-29.34,1.92-5.6,4.69-9.06,7.21-9.78,6-1.63,9.61,8.47,10.88,22.64h0.27l0.27-.13,0.41,0.13,0.27-.13h0Z"/><path class="cls-1" d="M189.14,112.28l-2.58-.67-2.45-.54-2.72-.54-2.45-.27v2.55c1.88,0.57,3.64,1.24,3.67,6.83,0,2.84-.88,8.53-1,9.38l-1.91,12.33L178,153.95l-1.9,12.86-1.9,12.86-1.9-11.79-1.9-11.79-2-11.92-1.9-11.92c-1.08-7.08-2-12.83-2-15,0-4.47,1-4.74,3.81-5.22v-2.55h-3.4l-3.4.13-3.4.27-3.27.4v2.55c2.35,0,3.25,1.57,5.31,14.2l3.13,19,3.26,19.29,3,19.29,3.13,19.29h0.68l0.14-.13L176.22,184l2.86-19.56,2.72-19.29,2.86-18.76c1.44-10,2.18-11.73,4.49-11.66v-2.41h0Z"/><path class="cls-1" d="M211.43,193.73c-3.75,1.7-4.32-.14-4.35-7.64V129.56l0.54,0.27,0.68,0.27,0.54,0.27,0.68,0.4c4.78,2.48,6,4.93,6.8,15.68l0.28,0.13h0.27l0.27,0.13,0.27,0.13L217.28,143v-4L217.14,135v-3.88c-2-1.39-4.08-2.72-6.12-3.89a70.79,70.79,0,0,0-6.39-3.48c-2.05-1-4.32-2.05-6.53-2.95-2.21-.73-4.59-1.56-6.8-2.28l-0.14,5.49v5.49L191,135v5.63h0.82l0.27,0.14c1.11-13.82,2.42-15.89,7.76-14.2l0.54,0.27,0.68,0.13,0.68,0.27,0.68,0.27v58.82c0,8.73-.16,11.47-4.49,13.67v1.61l0.13,0.67,3.4-1.47c1.08-.38,2.27-0.94,3.4-1.47s2.21-1.14,3.26-1.74a33.22,33.22,0,0,0,3.26-1.87v-2h0Z"/><path class="cls-1" d="M234.56,147.51l-0.27-.27-0.14-.27-0.14-.27-0.14-.13c-0.12.4-.3,1.13-1.09,0.13s-2.78-4.87-4.9-7.23c-3.32-3.33-6.89-1.93-6.94,7.5,0,8.26,2.54,12.11,6.12,15.94,5.09,3.93,5.6,5.38,5.58,8a15,15,0,0,1-4.08,9.65c-5,4.5-7-4.49-7.75-8h-0.27l-0.27.13a0.31,0.31,0,0,1-.27,0l-0.14.13,0.27,4.42,0.27,4.29,0.27,4.29,0.41,4.15,0.27-.13,0.27-.14,0.13-.27,0.14-.27a5.29,5.29,0,0,1,1.22-3.62c1.15-.9,3.08-0.18,5.85-3.08,4.77-5.75,6.87-12.11,6.94-15.14-0.07-7.3-11.58-10.37-11.56-21.44,0-4.62,1.91-5.29,3.81-3.62,3.6,3.63,5.7,9.94,6.26,13.8l0.14,0.13h0.27l0.14,0.13,0.27,0.13L235,154.21l-0.14-2.14-0.14-2.41-0.13-2.14h0Z"/><rect class="cls-3" x="92.17" y="111.92" width="146.23" height="99.93"/></svg>