<?xml version="1.0" encoding="utf-8"?>
<!-- Generator: Adobe Illustrator 16.0.0, SVG Export Plug-In . SVG Version: 6.00 Build 0)  -->
<!DOCTYPE svg PUBLIC "-//W3C//DTD SVG 1.1//EN" "http://www.w3.org/Graphics/SVG/1.1/DTD/svg11.dtd">
<svg version="1.1" id="Layer_1" xmlns="http://www.w3.org/2000/svg" xmlns:xlink="http://www.w3.org/1999/xlink" x="0px" y="0px"
	 width="612px" height="601.535px" viewBox="0 95.232 612 601.535" enable-background="new 0 95.232 612 601.535"
	 xml:space="preserve">
<path fill="#FFFFFF" d="M234.896,619.777l-6.728-2.43l6.728-17.565c0.748-1.869,1.121-3.551,0.934-4.672
	c-0.187-1.869-1.682-3.363-4.298-4.298c-2.803-0.935-4.858-0.935-6.167,0.374c-0.934,0.747-1.682,2.055-2.429,3.924l-6.727,17.565
	l-6.728-2.429l6.728-17.566c1.121-2.989,2.616-5.232,4.298-6.54c3.177-2.43,7.475-2.43,13.081-0.374
	c5.606,2.056,8.783,5.046,9.53,8.783c0.374,2.056,0,4.672-1.121,7.662L234.896,619.777z"/>
<path fill="#FFFFFF" d="M199.578,605.762l-6.541-3.551l-0.935-24.854l-10.838,18.313l-5.793-3.177l15.51-26.349l6.167,3.363
	l1.122,25.415l11.025-18.688l5.793,3.177L199.578,605.762z"/>
<path fill="#FFFFFF" d="M181.077,558.483l5.793,4.111l-18.313,24.667l-5.793-4.111L181.077,558.483z"/>
<path fill="#FFFFFF" d="M161.643,548.579c2.056,1.869,3.177,4.111,2.99,6.541c0,2.429-1.308,5.045-3.737,7.475
	c-2.43,2.616-4.859,3.925-7.475,4.111s-4.858-0.561-6.914-2.43c-2.056-1.868-3.177-4.111-2.99-6.54c0-2.43,1.308-5.046,3.738-7.475
	c2.429-2.616,4.858-3.925,7.288-4.111C157.345,545.776,159.587,546.711,161.643,548.579z M142.208,545.59
	c-3.924,4.111-5.419,8.222-4.858,12.707c0.187,3.363,2.243,6.728,5.793,10.091c3.551,3.177,7.101,4.858,10.651,4.858
	c4.485,0.188,8.596-1.682,12.521-5.793c3.737-4.111,5.419-8.222,4.859-12.707c-0.187-3.363-2.243-6.728-5.793-10.091
	c-3.551-3.177-7.101-4.858-10.652-4.858C150.057,539.609,145.946,541.665,142.208,545.59z"/>
<path fill="#FFFFFF" d="M125.39,549.888l-4.672-5.793l8.783-23.358l-17.005,13.08l-4.111-5.045l24.667-18.688l4.298,5.42
	l-8.783,23.919l17.379-13.268l4.111,5.045L125.39,549.888z"/>
<path fill="#FFFFFF" d="M109.506,507.281c0.187-1.309,0.935-2.242,2.056-2.99c1.121-0.747,2.429-0.934,3.551-0.561
	c1.308,0.374,2.242,1.121,2.99,2.43c0.748,1.308,1.121,2.429,0.748,3.737c-0.187,1.308-0.935,2.242-2.056,2.99
	c-1.121,0.747-2.429,0.747-3.551,0.561c-1.308-0.374-2.242-1.121-2.99-2.43C109.693,509.897,109.319,508.589,109.506,507.281z"/>
<path fill="#FFFFFF" d="M94.93,499.993c-3.551-1.495-6.167-3.924-7.849-7.849c-2.429-5.045-2.616-9.53-0.561-13.268
	c1.121-2.056,2.616-3.551,4.298-4.485l2.99,6.354c-1.122,0.934-2.056,2.055-2.43,2.989c-0.748,1.682-0.561,3.737,0.561,5.98
	c1.122,2.242,2.803,3.737,5.232,4.298c2.43,0.561,5.045,0.187,8.223-1.309c3.177-1.495,5.232-3.177,6.167-5.232
	s0.935-4.11-0.187-6.354c-0.934-2.242-2.429-3.55-4.298-4.111c-1.121-0.373-2.429-0.373-4.111-0.187l-2.99-6.354
	c3.364-0.747,6.541-0.561,9.53,0.747c2.99,1.309,5.232,3.738,6.914,7.288c2.056,4.298,2.243,8.409,0.935,11.96
	c-1.495,3.737-4.485,6.54-8.97,8.596C103.339,501.302,99.041,501.675,94.93,499.993z"/>
<path fill="#FFFFFF" d="M99.602,448.604c0.747,2.616,0.374,5.046-0.935,7.102c-1.495,2.056-3.737,3.551-7.288,4.484
	c-3.363,0.935-6.167,0.748-8.596-0.373c-2.243-1.121-3.738-2.99-4.485-5.606c-0.748-2.616-0.374-5.045,0.934-7.101
	c1.495-2.056,3.737-3.551,7.288-4.485c3.364-0.935,6.167-0.747,8.596,0.187C97.359,444.119,98.854,445.987,99.602,448.604z
	 M84.652,436.084c-5.419,1.494-9.157,4.11-11.025,8.222c-1.682,2.99-1.869,6.914-0.561,11.586s3.363,7.849,6.354,9.718
	c3.737,2.616,8.222,2.989,13.828,1.682c5.419-1.495,9.157-4.111,11.025-8.223c1.682-2.989,1.869-6.914,0.561-11.586
	s-3.363-7.849-6.54-9.717C94.743,435.149,90.071,434.589,84.652,436.084z"/>
<path fill="#FFFFFF" d="M189.673,195.582l9.904,8.222l-7.662,4.298L189.673,195.582z M187.805,223.799l6.541-3.737l-1.308-6.54
	l10.838-6.167l5.232,4.298l6.727-3.737l-26.162-20.369l-7.101,3.924L187.805,223.799z"/>
<path fill="#FFFFFF" d="M230.411,169.42l2.056,5.045l-9.531,3.737l9.717,23.172l-6.541,2.616l-9.717-23.172l-9.53,3.737
	l-2.056-5.045L230.411,169.42z"/>
<path fill="#FFFFFF" d="M251.901,195.208l-6.914,2.056l-8.783-29.152l6.914-2.056L251.901,195.208z"/>
<path fill="#FFFFFF" d="M271.896,186.238c-2.803,0.561-5.232,0-7.101-1.682c-2.055-1.495-3.363-4.111-3.924-7.475
	c-0.561-3.364-0.187-6.167,1.122-8.222s3.363-3.364,6.167-3.924c2.803-0.374,5.232,0,7.101,1.682
	c2.056,1.495,3.177,4.111,3.924,7.475c0.561,3.363,0.187,6.167-1.121,8.222C276.755,184.556,274.699,185.678,271.896,186.238z
	 M286.098,172.97c-0.934-5.419-3.363-9.343-7.288-11.586c-2.99-1.869-6.915-2.429-11.773-1.682
	c-4.859,0.748-8.222,2.616-10.465,5.419c-2.99,3.363-3.924,7.662-2.99,13.268c0.934,5.419,3.364,9.157,7.288,11.399
	c2.99,1.869,6.915,2.429,11.773,1.682c4.859-0.748,8.222-2.616,10.465-5.419C286.098,182.688,287.033,178.39,286.098,172.97z"/>
<path fill="#FFFFFF" d="M292.826,157.46h7.475l13.642,21.117l-0.188-21.117h6.541l0.187,30.46h-7.101l-14.016-21.49l0.187,21.49
	h-6.54L292.826,157.46z"/>
<path fill="#FFFFFF" d="M343.468,166.804l2.429,12.521l-8.596-1.309L343.468,166.804z M323.846,187.733l7.476,1.121l3.363-5.98
	l12.521,1.869l1.308,6.541l7.662,1.121l-7.288-31.768l-8.035-1.121L323.846,187.733z"/>
<path fill="#FFFFFF" d="M368.321,164.375l6.914,2.055l-7.475,23.919l16.444,4.859l-1.682,5.232l-23.172-6.914L368.321,164.375z"/>
<path fill="#FFFFFF" d="M401.21,188.48c0.562,1.121,0.562,2.243,0,3.551c-0.561,1.308-1.494,2.056-2.616,2.429
	c-1.308,0.374-2.615,0.374-3.924-0.187c-1.308-0.561-2.43-1.495-2.803-2.616c-0.561-1.121-0.561-2.429,0-3.55
	s1.495-2.056,2.616-2.429c1.308-0.374,2.616-0.374,3.924,0.187C399.716,186.425,400.649,187.359,401.21,188.48z"/>
<path fill="#FFFFFF" d="M437.837,193.526l-2.616,4.671l-8.97-4.858l-12.521,21.864l-6.166-3.364l12.52-21.864l-8.97-4.858
	l2.616-4.672L437.837,193.526z"/>
<path fill="#FFFFFF" d="M534.636,434.589c-0.935,0.747-2.242,1.121-3.551,0.935c-1.308-0.188-2.429-0.935-2.989-1.869
	c-0.748-1.121-0.935-2.242-0.748-3.737c0.188-1.495,0.935-2.616,1.869-3.363c0.934-0.748,2.242-1.122,3.55-0.935
	c1.309,0.187,2.43,0.935,2.99,1.868c0.748,1.121,0.935,2.243,0.748,3.737C536.317,432.72,535.757,433.841,534.636,434.589z"/>
<path fill="#FFFFFF" d="M522.863,446.175c-1.495-0.188-2.616,0-3.364,0.374c-1.495,0.747-2.803,2.429-3.55,5.232
	c-0.562,1.682-0.748,2.989-0.562,4.11c0,2.056,0.935,3.364,2.616,3.737c0.935,0.188,1.869,0,2.804-0.747
	c0.747-0.747,1.682-2.242,2.616-4.111l1.682-3.177c1.682-3.177,3.177-5.232,4.298-6.354c2.056-1.868,4.485-2.242,7.475-1.495
	c2.616,0.748,4.672,2.43,5.793,5.046s1.121,5.979,0,10.091c-0.935,3.363-2.616,6.167-5.045,8.035
	c-2.43,1.869-5.232,2.616-8.409,1.682l1.868-6.354c1.869,0.374,3.364-0.187,4.485-1.494c0.747-0.935,1.494-2.243,1.868-3.738
	c0.561-1.682,0.561-3.177,0.188-4.484c-0.374-1.309-1.122-2.056-2.243-2.242c-1.121-0.374-2.056,0-2.803,0.934
	c-0.561,0.562-1.309,1.869-2.43,3.925l-2.803,5.232c-1.308,2.242-2.43,3.924-3.737,4.858c-2.056,1.495-4.298,1.869-6.914,1.121
	c-2.804-0.747-4.672-2.429-5.793-5.232c-1.121-2.803-1.121-6.166,0-10.277c1.308-4.298,3.177-7.288,5.605-9.157
	c2.43-1.868,5.232-2.429,8.409-1.494L522.863,446.175z"/>
<path fill="#FFFFFF" d="M530.15,481.68c1.122,3.551,0.935,7.102-0.934,10.839c-2.43,5.046-5.606,8.035-9.904,8.97
	c-2.43,0.561-4.485,0.374-6.354-0.187l2.99-6.354c1.494,0.187,2.803,0.187,3.924-0.188c1.869-0.561,3.177-2.056,4.298-4.298
	s1.121-4.484,0-6.54s-3.177-3.925-6.354-5.232c-3.177-1.495-5.793-1.869-8.035-1.122c-2.242,0.748-3.925,2.056-4.858,4.299
	c-0.935,2.242-1.122,4.11-0.374,5.979c0.374,0.935,1.308,2.056,2.616,2.99l-2.99,6.354c-2.803-1.869-4.672-4.485-5.606-7.475
	c-0.934-3.177-0.561-6.354,1.122-9.904c2.056-4.298,4.858-7.102,8.782-8.409c3.737-1.309,8.036-0.935,12.521,1.121
	C525.666,474.579,528.843,477.756,530.15,481.68z"/>
<path fill="#FFFFFF" d="M491.843,497.003l25.975,16.818l-3.924,5.793l-9.904-6.354l-7.288,10.839l9.904,6.354l-3.925,5.793
	l-25.975-16.818l3.924-5.793l11.586,7.475l7.288-10.838l-11.586-7.476L491.843,497.003z"/>
<path fill="#FFFFFF" d="M466.055,537.741c1.868-2.056,4.11-2.99,6.727-2.99s5.046,1.309,7.662,3.551
	c2.616,2.43,3.924,4.672,4.298,7.288c0.188,2.429-0.561,4.672-2.616,6.728c-1.868,2.055-4.111,2.989-6.728,2.989
	s-5.045-1.308-7.661-3.551c-2.616-2.429-3.925-4.671-4.298-7.287C463.251,542.039,464.186,539.797,466.055,537.741z
	 M462.878,556.802c4.11,3.737,8.409,5.419,12.894,4.858c3.551-0.187,6.914-2.056,10.278-5.605c3.363-3.551,5.045-6.914,5.045-10.465
	c0.188-4.298-1.682-8.409-5.793-12.334c-4.111-3.737-8.409-5.419-12.894-4.858c-3.551,0.187-6.914,2.056-10.278,5.606
	c-3.363,3.55-5.045,6.914-5.045,10.465C456.897,548.953,458.767,553.064,462.878,556.802z"/>
<path fill="#FFFFFF" d="M438.771,561.66c2.242-1.682,4.672-2.242,7.101-1.868c2.43,0.561,4.859,2.056,6.914,4.858
	c2.056,2.803,3.177,5.419,2.99,7.849s-1.495,4.484-3.737,6.167c-2.242,1.682-4.672,2.242-7.101,1.682
	c-2.43-0.561-4.859-2.056-6.915-4.858c-2.055-2.804-3.177-5.232-2.989-7.849C435.407,565.397,436.529,563.342,438.771,561.66z
	 M432.418,579.787c3.55,4.484,7.475,6.728,11.959,6.914c3.551,0.374,7.288-0.935,11.213-3.737c3.924-2.804,6.166-5.98,6.728-9.53
	c0.934-4.299-0.188-8.597-3.738-13.081c-3.363-4.298-7.287-6.728-11.959-6.914c-3.551-0.374-7.288,0.934-11.213,3.737
	c-3.924,2.803-6.166,5.979-6.727,9.53C427.933,571.19,429.054,575.489,432.418,579.787z"/>
<path fill="#FFFFFF" d="M434.1,596.418l-6.354,3.364l-12.334-21.864l-15.136,8.035l-2.616-4.671l21.303-11.399L434.1,596.418z"/>
<path fill="#FFFFFF" d="M392.801,593.055c-0.747-1.309-1.494-2.056-2.429-2.43c-1.495-0.747-3.737-0.747-6.354,0.374
	c-1.682,0.561-2.804,1.309-3.737,1.869c-1.683,1.308-2.243,2.803-1.495,4.298c0.374,0.935,1.121,1.495,2.242,1.682
	s2.803,0,5.046-0.374l3.737-0.561c3.55-0.561,6.166-0.747,7.849-0.374c2.616,0.561,4.484,2.243,5.605,5.046
	c0.935,2.616,0.748,5.046-0.747,7.475c-1.495,2.43-4.298,4.485-8.223,5.98c-3.363,1.308-6.54,1.495-9.717,0.747
	c-2.99-0.747-5.232-2.616-6.541-5.606l6.354-2.429c0.748,1.682,2.056,2.616,3.925,2.616c1.308,0,2.616-0.188,4.298-0.748
	s2.99-1.494,3.925-2.429c0.747-0.935,0.934-2.056,0.561-3.177c-0.374-0.935-1.121-1.495-2.43-1.682c-0.747,0-2.43,0-4.672,0.373
	l-5.979,0.935c-2.616,0.374-4.672,0.374-6.354,0c-2.43-0.561-4.111-2.242-5.046-4.858s-0.747-5.232,0.935-7.662
	c1.495-2.616,4.484-4.672,8.596-6.166c4.111-1.495,7.849-1.869,10.839-1.122c2.99,0.748,5.232,2.616,6.354,5.606L392.801,593.055z"
	/>
<path fill="#FFFFFF" d="M400.837,504.665c22.051,17.939,41.672,20.93,50.455,10.651c8.782-10.091,1.868-28.03-19.995-45.97"/>
<path fill="#FFFFFF" d="M338.235,533.63c9.717,26.162,23.546,37.748,36.439,33.263c12.707-4.484,18.126-25.975,8.223-51.949"/>
<path fill="#FFFFFF" d="M262.553,528.397c-5.045,28.218,1.869,46.157,15.51,48.399c13.642,2.43,31.955-6.914,35.319-41.672"/>
<path fill="#FFFFFF" d="M204.436,485.23c-18.687,22.051-25.601,43.541-14.95,52.324c10.652,8.782,30.46,1.121,49.147-20.743"/>
<path fill="#FFFFFF" d="M171.173,422.255c-27.47,9.904-43.541,25.415-38.869,38.309c4.672,12.895,27.657,14.95,54.94,5.232"/>
<g>
	<path fill="#FFFFFF" d="M274.512,606.696v-2.43c1.308,0,2.243-0.187,2.616-0.187c0.748-0.187,1.495-0.561,2.056-0.935
		c0.374-0.374,0.561-0.747,0.748-1.308c0.187-0.374,0.187-0.561,0.187-0.748h3.363v18.313h-4.111v-12.521L274.512,606.696
		L274.512,606.696z"/>
	<path fill="#FFFFFF" d="M291.331,602.771c1.308-1.121,2.99-1.868,5.045-1.868c3.177,0,5.232,1.308,6.541,3.737
		c0.748,1.309,0.935,3.177,0.935,5.419c0,2.243-0.374,4.111-0.935,5.606c-1.308,2.803-3.364,4.298-6.727,4.298
		c-1.495,0-2.99-0.374-4.111-1.308c-1.308-0.748-1.869-2.056-2.056-3.551h4.111c0.187,0.561,0.374,0.935,0.748,1.308
		c0.374,0.374,0.934,0.561,1.682,0.561c1.308,0,2.243-0.561,2.803-1.868c0.374-0.748,0.561-1.682,0.561-3.177
		c-0.374,0.374-0.748,0.747-1.121,0.935c-0.748,0.373-1.682,0.561-2.803,0.561c-1.682,0-3.177-0.561-4.298-1.495
		c-1.308-0.935-1.869-2.43-1.869-4.298C289.462,605.575,290.209,603.894,291.331,602.771z M298.245,610.06
		c0.934-0.561,1.308-1.495,1.308-2.616s-0.187-1.868-0.747-2.429s-1.308-0.935-2.243-0.935c-0.748,0-1.308,0.187-1.869,0.561
		c-0.748,0.561-1.121,1.495-1.121,2.803c0,1.121,0.187,1.869,0.748,2.43c0.561,0.561,1.308,0.747,2.242,0.747
		C297.124,610.434,297.684,610.247,298.245,610.06z"/>
	<path fill="#FFFFFF" d="M315.437,605.575c0-0.374-0.187-0.561-0.373-0.935c-0.374-0.561-1.121-0.935-2.056-0.935
		c-1.309,0-2.242,0.748-2.803,2.056c-0.374,0.748-0.562,1.869-0.562,3.177c0.562-0.561,1.122-0.935,1.683-1.121
		c0.747-0.187,1.494-0.374,2.242-0.374c1.868,0,3.363,0.561,4.484,1.682c1.121,1.122,1.683,2.43,1.683,4.299
		c0,1.682-0.562,3.177-1.683,4.484c-1.121,1.309-2.989,1.869-5.419,1.869c-2.616,0-4.484-0.935-5.793-2.804
		c-0.934-1.494-1.495-3.363-1.495-5.793c0-1.308,0-2.616,0.187-3.363c0.187-1.495,0.748-2.803,1.308-3.924
		c0.561-0.935,1.309-1.495,2.242-2.056c0.935-0.561,2.056-0.748,3.364-0.748c1.868,0,3.363,0.374,4.484,1.309
		c1.121,0.934,1.869,2.056,1.869,3.55h-3.364V605.575L315.437,605.575z M310.766,616.04c0.561,0.561,1.308,0.934,2.242,0.934
		s1.682-0.373,2.056-0.934c0.561-0.561,0.747-1.309,0.747-2.243c0-1.121-0.374-1.868-0.935-2.429s-1.308-0.935-2.242-0.935
		c-0.747,0-1.308,0.187-1.868,0.561c-0.748,0.561-1.122,1.495-1.122,2.616C309.831,614.545,310.018,615.292,310.766,616.04z"/>
	<path fill="#FFFFFF" d="M325.715,614.545c0.187,0.747,0.561,1.308,0.935,1.868c0.373,0.374,1.121,0.561,2.056,0.561
		c0.934,0,1.868-0.373,2.242-0.934c0.561-0.561,0.747-1.495,0.747-2.43s-0.187-1.682-0.747-2.43
		c-0.561-0.561-1.309-0.934-2.242-0.934c-0.561,0-0.935,0-1.309,0.187c-0.561,0.187-1.121,0.561-1.495,1.121l-3.737-0.187
		l1.495-10.091h11.399v2.989h-8.409l-0.748,4.111c0.561-0.374,1.122-0.561,1.495-0.747c0.561-0.188,1.309-0.374,2.056-0.374
		c1.682,0,3.177,0.561,4.485,1.495c1.308,0.935,1.868,2.429,1.868,4.484c0,1.682-0.561,3.177-1.868,4.485
		c-1.309,1.308-2.99,2.056-5.42,2.056c-1.868,0-3.55-0.374-4.858-1.309c-1.308-0.934-2.056-2.242-2.056-3.924H325.715z"/>
</g>
<path fill="#FFFFFF" d="M307.775,240.431c-85.96,0-155.85,68.395-155.85,153.046c0,84.465,69.703,153.047,155.85,153.047
	c85.96,0,155.85-68.395,155.85-153.047C463.625,308.825,393.735,240.431,307.775,240.431z M307.775,527.837
	c-75.683,0-136.976-60.172-136.976-134.546c0-74.188,61.293-134.547,136.976-134.547s136.976,60.172,136.976,134.547
	S383.458,527.837,307.775,527.837z"/>
<path fill="#FFFFFF" d="M594.247,389.74c0-17.379,6.354-33.263,16.818-45.596c-1.121-6.167-2.429-12.333-3.924-18.313
	c-21.864-12.52-36.44-35.505-36.44-62.041c0-6.727,0.935-13.268,2.804-19.621c-2.43-4.111-5.046-8.222-7.849-12.333
	c-35.879-4.298-63.723-33.824-64.471-69.703c-3.363-2.616-6.727-5.232-10.091-7.662c-4.672,0.935-9.717,1.495-14.763,1.495
	c-30.646,0-56.995-18.313-68.021-44.289c-4.111-1.495-8.409-2.803-12.521-3.924c-11.399,7.101-24.854,11.212-39.43,11.212
	c-21.677,0-41.298-9.157-54.753-23.732c-4.858,0-9.717,0.187-14.389,0.561c-13.455,16.071-34.011,26.349-57.183,26.349
	c-11.772,0-22.798-2.616-32.702-7.475c-4.298,1.682-8.596,3.364-12.894,5.045c-10.278,27.47-37.374,47.278-69.329,47.278
	c-2.616,0-5.232-0.187-7.849-0.374c-3.364,2.803-6.728,5.606-9.904,8.596c0,34.197-24.667,62.788-57.556,70.076
	c-2.429,4.298-4.858,8.596-7.288,12.894c3.924,8.783,6.167,18.687,6.167,28.965c0,26.536-14.763,49.708-36.813,62.228
	c-0.748,4.672-1.308,9.157-1.869,13.828c11.212,12.521,17.939,28.965,17.939,46.904c0,15.885-5.232,30.647-14.202,42.42
	c0.935,4.484,1.869,8.783,2.803,13.081c23.359,12.146,39.243,36.065,39.243,63.536c0,7.661-1.308,14.949-3.55,21.863
	c2.616,4.111,5.232,8.223,8.035,12.334c34.945,4.484,62.228,32.889,63.91,67.646c3.55,2.803,7.101,5.419,10.651,8.035
	c2.99-0.373,6.167-0.561,9.344-0.561c28.965,0,54.005,16.258,65.965,39.99c3.924,1.495,7.848,2.804,11.959,3.925
	c10.838-5.98,23.359-9.53,36.626-9.53c21.864,0,41.298,9.156,54.94,23.919c0.935,0,1.869,0,2.803,0c4.111,0,8.036-0.187,11.96-0.187
	c13.455-16.258,34.197-26.536,57.183-26.536c12.894,0,25.04,3.177,35.692,8.97c4.858-1.682,9.53-3.55,14.389-5.419
	c10.091-28.03,37.374-48.025,69.516-48.025c3.363,0,6.728,0.187,9.904,0.747c3.737-3.177,7.475-6.354,11.212-9.53
	c1.309-32.328,24.48-59.238,55.501-66.899c2.616-4.298,5.232-8.783,7.661-13.268c-3.177-8.036-5.045-16.818-5.045-26.162
	c0-26.162,14.389-49.147,35.879-61.667c0.747-3.551,1.308-7.288,1.682-11.025C601.161,424.498,594.247,407.866,594.247,389.74z
	 M308.336,657.151c-149.123,0-270.027-117.915-270.027-263.3s120.905-263.3,270.027-263.3c149.122,0,270.027,117.915,270.027,263.3
	C578.177,539.236,457.458,657.151,308.336,657.151z"/>
<g>
	<g>
		<ellipse fill="none" stroke="#FFFFFF" stroke-width="2.1837" cx="308.336" cy="393.851" rx="190.607" ry="185.749"/>
		<ellipse fill="none" stroke="#FFFFFF" stroke-width="2.1837" cx="308.336" cy="393.851" rx="181.077" ry="176.592"/>
		<ellipse fill="none" stroke="#FFFFFF" stroke-width="2.1837" cx="308.336" cy="393.851" rx="171.921" ry="167.623"/>
	</g>
	<ellipse fill="none" stroke="#FFFFFF" stroke-width="2.1837" cx="308.336" cy="393.851" rx="163.324" ry="159.213"/>
</g>
<path fill="#FFFFFF" d="M68.208,430.852l-0.748-7.102l19.061-1.868c2.056-0.188,3.737-0.561,4.672-1.309
	c1.682-0.935,2.429-2.989,2.055-5.793c-0.374-2.803-1.308-4.484-3.177-5.232c-1.121-0.373-2.616-0.561-4.858-0.373l-19.061,1.868
	l-0.747-7.101l19.061-1.869c3.364-0.374,5.98,0,7.849,0.935c3.55,1.682,5.606,5.419,6.354,11.212
	c0.561,5.793-0.748,9.904-3.924,12.334c-1.682,1.308-4.298,2.055-7.475,2.429L68.208,430.852z"/>
<path fill="#FFFFFF" d="M65.405,393.851l0.374-7.288l22.424-11.959l-21.677-1.122l0.374-6.354l31.208,1.682l-0.374,6.914
	l-22.985,12.146l22.051,1.121l-0.374,6.354L65.405,393.851z"/>
<path fill="#FFFFFF" d="M73.44,333.118l5.419,1.121l-2.056,9.904l25.228,5.045l-1.495,6.914l-25.228-5.232l-2.056,9.904
	l-5.419-1.121L73.44,333.118z"/>
<path fill="#FFFFFF" d="M82.036,308.078l2.803-7.475l14.576,16.818l11.025,3.924l-2.429,6.541l-11.025-3.737l-22.425,4.485
	l2.803-7.849l15.137-2.056L82.036,308.078z"/>
<path fill="#FFFFFF" d="M102.779,292.567c1.121-0.561,2.429-0.374,3.55,0.187c1.308,0.561,2.056,1.495,2.429,2.803
	c0.374,1.308,0.187,2.429-0.374,3.737s-1.495,2.243-2.803,2.616c-1.308,0.561-2.429,0.374-3.737-0.187
	c-1.121-0.561-2.056-1.495-2.429-2.616c-0.374-1.308-0.187-2.429,0.374-3.738C100.536,294.063,101.471,293.128,102.779,292.567z"/>
<path fill="#FFFFFF" d="M107.264,261.173l3.924-6.167l20.182,25.975l-3.55,5.606l-32.516-6.727l4.111-6.354l24.106,6.167
	L107.264,261.173z"/>
<path fill="#FFFFFF" d="M146.132,254.633c-1.869,2.056-4.111,3.177-6.727,3.177s-5.232-1.121-7.849-3.364s-4.111-4.672-4.485-7.101
	s0.374-4.672,2.242-6.728c1.869-2.055,4.111-3.177,6.541-3.177c2.616,0,5.046,1.122,7.849,3.364
	c2.616,2.243,4.111,4.672,4.485,7.101C148.749,250.334,148.001,252.577,146.132,254.633z M148.749,235.572
	c-4.298-3.737-8.596-5.232-13.081-4.485c-3.551,0.374-6.915,2.243-10.091,5.98c-3.177,3.55-4.858,7.101-4.671,10.651
	c-0.187,4.485,1.869,8.409,6.167,12.147c4.298,3.55,8.596,5.045,13.081,4.485c3.55-0.374,6.914-2.243,10.091-5.793
	c3.177-3.551,4.859-7.101,4.672-10.652C155.103,243.233,152.86,239.123,148.749,235.572z"/>
<path fill="#FFFFFF" d="M148.562,219.875c0.561-3.738,2.429-6.728,5.793-9.344c4.485-3.55,8.783-4.858,12.894-3.924
	c2.429,0.561,4.111,1.495,5.419,2.99l-5.606,4.485c-1.308-0.935-2.429-1.308-3.551-1.495c-1.869-0.187-3.737,0.374-5.793,2.056
	c-2.055,1.682-2.99,3.55-2.803,5.979c0,2.43,1.121,4.859,3.364,7.475c2.242,2.616,4.485,4.111,6.727,4.485
	c2.243,0.374,4.485-0.187,6.167-1.682c1.869-1.495,2.803-3.177,2.99-5.232c0-1.122-0.187-2.243-0.935-3.924l5.606-4.485
	c1.682,2.99,2.242,5.979,1.682,9.156s-2.429,5.98-5.419,8.409c-3.738,2.99-7.662,4.298-11.586,3.924
	c-3.924-0.374-7.662-2.616-10.838-6.354C149.309,228.284,148.001,223.986,148.562,219.875z"/>
<path fill="#FFFFFF" d="M460.822,216.511l-14.202-10.465l-3.925,5.232l13.081,9.53l-3.177,4.111l-13.081-9.531l-4.858,6.354
	l14.949,10.838l-3.363,4.298l-20.556-14.949l18.687-24.293l19.809,14.576L460.822,216.511z"/>
<path fill="#FFFFFF" d="M471.848,223.425c3.737,0.187,7.101,1.682,10.091,4.672c3.924,3.924,5.605,8.035,5.045,12.333
	c-0.373,2.242-1.121,4.111-2.429,5.606l-5.046-5.045c0.748-1.308,1.121-2.616,1.309-3.551c0-1.869-0.748-3.55-2.616-5.419
	c-1.869-1.869-3.925-2.616-6.354-2.243c-2.43,0.187-4.859,1.682-7.288,3.924c-2.43,2.429-3.737,4.672-3.925,6.914
	c-0.187,2.243,0.561,4.298,2.243,5.98c1.682,1.682,3.55,2.429,5.605,2.429c1.121,0,2.43-0.374,3.925-1.308l5.045,5.046
	c-2.803,1.869-5.979,2.616-9.156,2.429c-3.363-0.374-6.354-1.869-9.156-4.672c-3.364-3.364-5.046-7.101-5.046-11.025
	c0.187-3.924,1.869-7.662,5.606-11.025C463.438,224.92,467.549,223.238,471.848,223.425z"/>
<path fill="#FFFFFF" d="M472.781,263.789l25.415-17.565l4.111,5.606l-9.718,6.728l7.662,10.651l9.717-6.727l4.111,5.606
	l-25.414,17.566l-4.111-5.606l11.399-7.849l-7.662-10.651l-11.399,7.849L472.781,263.789z"/>
<path fill="#FFFFFF" d="M519.687,277.057l3.363,6.541l-13.455,21.303l19.435-9.344l2.99,5.793l-28.03,13.455l-3.177-6.167
	l13.642-21.677l-19.809,9.53l-2.99-5.793L519.687,277.057z"/>
<path fill="#FFFFFF" d="M508.101,326.391l-2.43-6.54l29.339-10.465l2.429,6.541L508.101,326.391z"/>
<path fill="#FFFFFF" d="M538.187,328.26c3.177,2.055,5.232,5.045,6.166,9.156c1.309,5.419,0.748,9.717-2.056,13.081
	c-1.494,1.869-3.177,2.99-5.045,3.551l-1.682-6.728c1.308-0.748,2.242-1.682,2.989-2.429c0.935-1.495,1.309-3.551,0.561-5.98
	c-0.561-2.429-2.056-4.111-4.298-5.045c-2.242-0.935-5.045-1.122-8.409-0.187c-3.363,0.748-5.793,2.243-7.101,4.111
	c-1.309,1.869-1.682,3.924-1.121,6.167c0.561,2.429,1.682,3.924,3.55,4.859c0.935,0.561,2.243,0.747,3.925,0.934l1.682,6.728
	c-3.363,0.187-6.54-0.561-9.156-2.616c-2.616-1.869-4.485-4.672-5.42-8.409c-1.121-4.672-0.747-8.596,1.495-11.96
	c2.056-3.363,5.606-5.606,10.465-6.727C530.15,325.457,534.449,326.017,538.187,328.26z"/>
<path fill="#FFFFFF" d="M542.858,374.977l-11.96,5.232l-0.748-8.596L542.858,374.977z M517.631,360.962l0.561,7.288l6.727,1.682
	l1.122,12.146l-6.167,2.803l0.561,7.475l30.086-14.389l-0.747-7.848L517.631,360.962z"/>
<path fill="#FFFFFF" d="M551.08,397.589l-0.373,6.914l-25.602-1.309l-1.121,16.632l-5.606-0.374l1.495-23.545L551.08,397.589z"/>
<path fill="#FFFFFF" d="M359.165,263.042c5.045-29.152-3.738-49.147-17.38-51.576c-13.641-2.43-26.909,14.949-31.954,44.101"/>
<path fill="#FFFFFF" d="M420.832,309.386c19.995-22.424,25.414-45.597,14.015-54.566c-11.398-8.97-31.954-1.121-51.949,21.117"/>
<path fill="#FFFFFF" d="M451.104,376.846c28.218-9.904,42.98-26.536,38.122-39.43c-4.859-12.894-27.844-15.697-56.248-5.979"/>
<path fill="#FFFFFF" d="M441.761,447.296c28.778,5.046,49.521-2.616,51.95-16.071c2.43-13.454-13.642-26.909-42.419-31.954"/>
<path fill="#FFFFFF" d="M174.911,349.189c-28.778-5.045-51.016,1.121-53.258,14.576c-2.429,13.455,16.071,27.657,44.849,32.702"/>
<path fill="#FFFFFF" d="M214.901,287.148c-22.238-18.5-41.859-22.424-50.829-11.959s-0.935,30.646,21.49,48.96"/>
<path fill="#FFFFFF" d="M282.174,254.819c-9.904-26.909-25.975-39.43-39.056-34.758s-16.631,25.415-6.541,52.324"/>
<path fill="#FFFFFF" d="M225.552,333.866l-4.485,2.803l-4.485,3.177l-4.298,3.177l-4.298,3.55v0.561v0.748v0.748v0.748
	c5.232-3.364,6.915-1.682,6.915,16.444v11.212v11.212v11.212v11.772c0,13.642-0.748,18.874-1.869,21.864
	c-2.056,6.54-6.354,8.409-11.96,3.924c-11.399-11.025-11.399-24.666-11.399-30.833v-8.035V390.3v-7.849v-7.288
	c0-7.101,0.748-8.97,5.793-14.95v-0.561v-0.748v-0.561v-0.187l-4.485,5.045l-4.298,5.232l-4.111,5.232l-3.737,5.419v0.187v0.187
	v0.187v0.187c4.111-5.232,4.858-5.419,4.858,0v5.793v5.979v5.793v5.793c0,4.672,0,19.248,15.51,37.562
	c19.061,16.631,19.248-16.445,19.061-30.46v-11.773l0.187-11.585v-11.212v-11.586c0-18.5,1.308-22.051,7.288-27.096v-0.934v-0.935
	v-0.935v-0.374H225.552L225.552,333.866z"/>
<path fill="#FFFFFF" d="M282.735,366.194l-0.187-14.576l-0.187-14.202l-0.187-14.202v-14.015h-0.747h-0.187l-0.748,0.187h-0.187
	c-0.934,8.409-3.924,8.97-4.298,8.97c-2.243,0.561-8.222-5.98-16.258-3.551c-15.51,6.167-30.086,37.748-30.086,82.036
	c-0.187,49.146,14.576,76.057,28.965,81.85c17.192,4.858,25.415-25.415,25.601-25.976l-0.561-1.308l-0.561-1.309l-0.561-1.308
	l-0.187-0.935c-2.99,7.288-9.717,23.92-21.303,21.116c-11.212-3.737-21.864-26.535-21.864-71.945
	c0.187-30.646,3.924-45.409,7.662-54.752c3.551-10.465,8.783-17.005,13.455-18.313c11.212-2.99,17.94,15.884,20.369,42.233h0.561
	l0.561-0.187l0.748,0.187H282.735L282.735,366.194z"/>
<path fill="#FFFFFF" d="M353.745,304.901l-4.858-1.308l-4.485-0.935l-5.045-0.934l-4.672-0.561v0.935v1.308v1.308v1.308
	c3.551,1.121,6.728,2.243,6.914,12.707c0,5.232-1.682,15.884-1.868,17.566l-3.551,22.985l-3.364,23.546l-3.55,24.106l-3.551,24.106
	l-3.551-22.051l-3.55-22.051l-3.738-22.237l-3.55-22.237c-2.056-13.268-3.737-23.92-3.737-28.031c0-8.409,1.868-8.783,7.101-9.717
	v-1.308v-1.495v-1.495v-0.748h-6.354l-6.354,0.187l-6.354,0.561l-6.167,0.747v0.748v1.308v1.308v1.495
	c4.298,0,6.167,2.99,9.904,26.536l5.793,35.505l6.167,36.066l5.605,36.065l5.793,36.066h0.561h0.188h0.561l0.187-0.187l5.419-37.001
	l5.42-36.626l5.045-36.066l5.42-35.131c2.616-18.687,4.11-21.864,8.409-21.864v-1.308v-1.308v-0.935v-0.934H353.745L353.745,304.901
	z"/>
<path fill="#FFFFFF" d="M395.417,457.013c-7.101,3.177-8.035-0.187-8.222-14.202v-26.535V389.74v-26.349v-26.349l0.935,0.561
	l1.308,0.561l0.935,0.561l1.308,0.748c8.97,4.672,11.213,9.157,12.707,29.339l0.562,0.187h0.561l0.561,0.187l0.561,0.187
	l-0.188-7.288v-7.475l-0.187-7.288v-7.288c-3.737-2.616-7.662-5.045-11.399-7.288c-3.737-2.243-7.849-4.485-11.959-6.541
	c-3.925-1.869-8.036-3.924-12.146-5.419c-4.111-1.308-8.597-2.99-12.708-4.298l-0.187,10.278v10.278l-0.187,10.278v10.465h0.561
	h0.561h0.561l0.561,0.187c2.056-25.788,4.484-29.712,14.576-26.535l0.934,0.561l1.309,0.187l1.308,0.561l1.309,0.561v27.47v27.47
	v27.47v27.47c0,16.258-0.374,21.49-8.409,25.602v0.747v1.309v0.934l0.187,1.309l6.354-2.803c2.056-0.748,4.298-1.683,6.354-2.804
	c2.056-0.934,4.111-2.056,6.167-3.177s4.111-2.242,6.167-3.55v-0.935v-0.935v-0.935v-0.935H395.417L395.417,457.013z"/>
<path fill="#FFFFFF" d="M438.584,370.679l-0.561-0.561l-0.187-0.561l-0.187-0.561l-0.188-0.187
	c-0.187,0.747-0.561,2.055-2.056,0.187c-1.682-1.869-5.232-9.156-9.156-13.455c-6.167-6.167-12.895-3.55-12.895,14.015
	c0,15.51,4.672,22.611,11.399,29.713c9.53,7.288,10.465,10.091,10.465,14.949s-2.43,12.895-7.662,17.939
	c-9.343,8.409-13.08-8.409-14.575-14.949h-0.561l-0.561,0.187c0,0-0.374,0.188-0.561,0l-0.188,0.188l0.561,8.222l0.561,8.035
	l0.561,8.036l0.748,7.849l0.561-0.188l0.561-0.187l0.187-0.561l0.188-0.561c0-2.243,0.747-5.42,2.242-6.728
	c2.242-1.682,5.793-0.374,10.839-5.793c8.97-10.651,12.894-22.611,12.894-28.218c-0.187-13.641-21.677-19.434-21.677-39.99
	c0-8.596,3.551-9.904,7.101-6.728c6.728,6.728,10.652,18.5,11.773,25.788l0.187,0.187h0.561l0.188,0.187l0.561,0.187l-0.561-4.298
	l-0.188-3.924l-0.187-4.485L438.584,370.679L438.584,370.679z"/>
</svg>
