<svg id="Layer_1" data-name="Layer 1" xmlns="http://www.w3.org/2000/svg" viewBox="0 0 341.18 81.67"><defs><style>.cls-1{fill:#283a88;}</style></defs><title>2017-sponsor-logo-utc-colored</title><path class="cls-1" d="M101.15,3.68h8V27.3c0,1.57.45,2.68,2.22,2.68,1.54,0,2.18-.92,2.18-2.69V3.68h8V26.54c0,5.35-2.68,9.47-10.26,9.47-6.27,0-10.21-3-10.21-9.47V3.68Z"/><path class="cls-1" d="M149.41,11.73h7.74V35.31h-7.74V11.73Zm0-8h7.74V9.41h-7.74V3.73Z"/><path class="cls-1" d="M160.16,16.57V11.73h2.17V5h7.6v6.74h3.2v4.84h-3.2V28.42a1.92,1.92,0,0,0,2.1,2.05h1.1v4.84h-4.3c-4.11,0-6.5-2.24-6.5-6V16.57h-2.17Z"/><path class="cls-1" d="M186,20.4V17.68a1.63,1.63,0,0,0-1.64-1.63,1.61,1.61,0,0,0-1.65,1.63c0,0.3,0,1.54,0,2.71H186Zm7,6.77V28c-0.09,4.74-2.8,8-8.69,8-5.42,0-8.77-2.76-8.76-8.09V19.09c0-5.33,3.34-8.08,8.76-8.08,6,0,8.69,3.24,8.69,8.08v6H182.74v4.22A1.62,1.62,0,0,0,184.4,31,1.63,1.63,0,0,0,186,29.33V27.17h7Z"/><path class="cls-1" d="M204.79,29.07a1.59,1.59,0,0,0,1.62,1.8,1.66,1.66,0,0,0,1.68-1.73V17.76A1.64,1.64,0,0,0,206.44,16a1.61,1.61,0,0,0-1.64,1.8c0,1.26,0,11.24,0,11.24M215.49,3.71V35.3H209l-0.14-1.83h-0.15a6.11,6.11,0,0,1-5.3,2.55c-3.86,0-6-2.68-6-6.64V17.56c0-4,2.38-6.57,5.87-6.57a6.92,6.92,0,0,1,4.7,1.65H208V3.71h7.46Z"/><path class="cls-1" d="M133,11.71l0.14,2.12h0.15A6.74,6.74,0,0,1,138.81,11c3.91,0,5.91,2.8,5.92,6.24,0,2.56,0,18.08,0,18.08h-7.6s0-15.24,0-16.5a1.66,1.66,0,0,0-1.63-1.87,1.72,1.72,0,0,0-1.67,1.8V35.3h-7.6V11.71H133Z"/><polygon class="cls-1" points="101.15 42.13 120.35 42.13 120.35 48.45 114.86 48.45 114.86 73.71 106.48 73.71 106.48 48.45 101.15 48.45 101.15 42.13"/><rect class="cls-1" x="231.86" y="42.14" width="7.81" height="31.58"/><path class="cls-1" d="M289.49,50.15h7.74V73.73h-7.74V50.15Zm0-8h7.74v5.68h-7.74V42.15Z"/><path class="cls-1" d="M151.8,64.62v3.07a1.52,1.52,0,0,1-1.58,1.56,1.5,1.5,0,0,1-1.58-1.56s0-10.33,0-11.51a1.58,1.58,0,0,1,3.16,0V59h7.6V57.51c0-4.85-3.19-8.08-9.17-8.08-5.42,0-9.19,2.76-9.18,8.08v8.84c0,5.33,3.76,8.09,9.17,8.09,6,0,9.18-3.24,9.18-8.09V64.62h-7.6Z"/><path class="cls-1" d="M129.83,58.82V56.1a1.65,1.65,0,0,0-3.3,0v2.71h3.3Zm7,6.77v0.87c-0.09,4.74-2.8,8-8.69,8-5.42,0-8.77-2.76-8.76-8.08V57.51c0-5.33,3.34-8.08,8.76-8.08,6,0,8.69,3.24,8.69,8.08v6H126.53v4.22a1.61,1.61,0,0,0,1.65,1.63,1.63,1.63,0,0,0,1.65-1.63V65.59h7Z"/><path class="cls-1" d="M312.07,58.82V56.1a1.65,1.65,0,0,0-3.3,0c0,0.3,0,1.54,0,2.71h3.3Zm7,6.77v0.87c-0.09,4.74-2.8,8-8.69,8-5.42,0-8.77-2.76-8.76-8.08V57.51c0-5.33,3.34-8.08,8.76-8.08,6,0,8.69,3.24,8.69,8.08v6H308.77v4.22a1.61,1.61,0,0,0,1.65,1.63,1.64,1.64,0,0,0,1.65-1.63V65.59h7Z"/><path class="cls-1" d="M340.49,57.71h-6.92V56.28a1.89,1.89,0,0,0-2-2,1.63,1.63,0,0,0-1.91,1.56c0,1.73,2.66,2.71,5.29,4,3.37,1.62,6.19,3.18,6.19,7.13,0,5-4.08,7.51-9.55,7.51-5.91,0-9.14-3-9.17-8V65.58h7v1.89a2,2,0,0,0,2.21,2.13,1.88,1.88,0,0,0,2-1.9c0-1.52-1.43-2.53-4.52-3.75-4.15-1.64-6.24-3.49-6.25-7.45,0-4.93,4.19-7.07,8.78-7.07,4.85,0,8.83,2.12,8.82,7.66v0.63Z"/><path class="cls-1" d="M273.9,66.56a1.61,1.61,0,0,0,1.64,1.8,1.64,1.64,0,0,0,1.66-1.73V56.33a1.65,1.65,0,0,0-1.68-1.73,1.59,1.59,0,0,0-1.62,1.8s0,8.9,0,10.16M274,74.65v0.48a1.5,1.5,0,0,0,1.58,1.57,1.53,1.53,0,0,0,1.59-1.56V71.26h0a7.09,7.09,0,0,1-4.72,1.58c-3.73,0-5.86-2.46-5.85-6.43,0-2.56,0-10.43,0-10.43,0-3.78,2.06-6.56,6-6.57a6.15,6.15,0,0,1,5.3,2.55h0.15l0.14-1.84h6.52V73.58c0,4.85-2.36,8.09-9,8.09-5.8,0-8.94-2.55-9-7H274Z"/><path class="cls-1" d="M209.42,66.45c0,5.33,3.69,8.09,9.11,8.09,6,0,9.11-3.24,9.11-8.09V57.6c0-4.85-3.12-8.09-9.11-8.09-5.42,0-9.12,2.76-9.11,8.09v8.84Zm7.39-10.18a1.67,1.67,0,0,1,1.73-1.63,1.69,1.69,0,0,1,1.72,1.63c0,1.57,0,11.52,0,11.52a1.69,1.69,0,0,1-1.72,1.63,1.67,1.67,0,0,1-1.72-1.63s0-10.35,0-11.52"/><path class="cls-1" d="M244,66.37c0,5.33,3.69,8.09,9.11,8.08,6,0,9.11-3.23,9.11-8.08V57.52c0-4.85-3.12-8.09-9.11-8.09-5.42,0-9.12,2.76-9.11,8.09v8.85Zm7.39-10.18a1.72,1.72,0,0,1,3.44,0V67.7a1.69,1.69,0,0,1-1.72,1.63,1.67,1.67,0,0,1-1.72-1.63V56.18"/><path class="cls-1" d="M170.92,42.12v9.42H171a6.83,6.83,0,0,1,4.94-2.13c4.15,0,5.89,2.84,5.91,6.29,0,2.56,0,18,0,18h-7.6V57.22a1.66,1.66,0,0,0-1.63-1.87,1.71,1.71,0,0,0-1.67,1.8V73.72h-7.6V42.12h7.6Z"/><path class="cls-1" d="M193.42,50.13l0.14,2.12h0.15a6.73,6.73,0,0,1,5.57-2.86c3.91,0,5.91,2.8,5.92,6.24,0,2.56,0,18.08,0,18.08h-7.6s0-15.24,0-16.5A1.65,1.65,0,0,0,196,55.35a1.71,1.71,0,0,0-1.67,1.8c0,0.91,0,16.57,0,16.57h-7.6V50.13h6.72Z"/><path class="cls-1" d="M53.48,36.29a14.82,14.82,0,0,0-.5-2.13l23-5.86a17.33,17.33,0,0,1,.61,2.5Zm-2.12-5.61a15,15,0,0,1,1.07,2L73.26,21.36a16.16,16.16,0,0,0-1.36-2.47ZM67.72,13.16a21,21,0,0,0-2.36-2.45L48.42,27.31a14.89,14.89,0,0,1,2.07,2.15ZM44.9,25.09a14.63,14.63,0,0,1,2.82,1.67L60,6.43a20.44,20.44,0,0,0-3.17-1.89ZM41,23.94a14.68,14.68,0,0,1,3.32.9L50.78,2a21.44,21.44,0,0,0-3.68-1ZM40.8,0.1C40.16,0,39.36,0,38.72,0S37.35,0,36.8.09L37,23.88a15.25,15.25,0,0,1,1.78-.11,15.53,15.53,0,0,1,1.8.11ZM53,74.59l-2.53-9.08,0.31-.12,5,8a30.1,30.1,0,0,0,6.8-4.29L58,61.77l0.26-.22,6.46,5.68a31.59,31.59,0,0,0,5.61-6.38l-5.92-5.27,0.18-.28,7.22,3.27a30.72,30.72,0,0,0,3.71-8.24l-6.55-3L69.1,47l7.17,0.85a33.91,33.91,0,0,0,1.08-9.13H53.66a14.87,14.87,0,1,1-16.9-14.77l-6-23.05a22.74,22.74,0,0,0-4.07,1.09l6,21.59-0.33.12L21.22,4.21a22.34,22.34,0,0,0-3.94,2.31l11,18.13L28,24.86l-15.06-15a23,23,0,0,0-3.28,3.32L24.17,27.08,24,27.34,6.53,17.28A23.38,23.38,0,0,0,4,21.64l16.65,9.17-0.13.32L2.18,26a26.89,26.89,0,0,0-1.4,5.18l17.48,4.27-0.06.34h-18C0.1,36.71,0,37.8,0,38.69s0.09,1.9.15,2.74l17-.14,0,0.33L0.69,45.72a27.49,27.49,0,0,0,1.5,5.67l15.3-4.2,0.13,0.31L3.74,55.19a31.89,31.89,0,0,0,3,5.3l12.59-7.28,0.21,0.26L9.16,63.61a30.6,30.6,0,0,0,4.46,4.49L23,58.82,23.27,59l-6.7,11.36a30.8,30.8,0,0,0,5.7,3.31L28.33,63.3l0.32,0.13L25.51,75a30.85,30.85,0,0,0,6.62,1.75l2.93-10.73,0.33,0,0.07,11.1c1.07,0.09,2.15.18,3.24,0.18,1.31,0,2.61-.12,3.89-0.24V66.85l0.33,0,2.81,9.89A30.52,30.52,0,0,0,53,74.6"/></svg>