<svg id="Layer_1" data-name="Layer 1" xmlns="http://www.w3.org/2000/svg" viewBox="0 0 335.08 40.66"><defs><style>.cls-1{fill:#ec1e24;fill-rule:evenodd;}</style></defs><title>2017-sponsor-logo-scholastic-red</title><path class="cls-1" d="M152.64,10.93h-0.22a8.08,8.08,0,0,0-5.64,2.38,7.88,7.88,0,0,0-2.21,5.36v0.14a7.88,7.88,0,0,0,2.21,5.36,8.08,8.08,0,0,0,5.64,2.38h0.22a8.07,8.07,0,0,0,5.64-2.38,7.88,7.88,0,0,0,2.21-5.36V18.67a7.88,7.88,0,0,0-2.21-5.36A8.08,8.08,0,0,0,152.64,10.93Z"/><polygon class="cls-1" points="205.46 21.3 215.6 21.3 210.63 12.25 205.46 21.3"/><path class="cls-1" d="M0,0V40.66H335.08V0H0ZM23.05,29.31c0,0.44-.28.38-0.64,0.07s-2.51-2.47-4.54-3.08a10.74,10.74,0,0,0-4.37-.58,24.44,24.44,0,0,1-4.07-.24c-0.24-.1-0.57-0.14-0.51-0.95L11,9.76c0.1-.64-0.07-1,1-0.71a34.42,34.42,0,0,0,4.5.27,7.52,7.52,0,0,1,3.93,1.59c1.25,1.08,2.78,2.44,2.78,3.39ZM36.7,25.23c-0.34.1-2.77,0.3-3.24,0.34a21.8,21.8,0,0,0-6.88,1.59,5.22,5.22,0,0,0-1.92,1.59c-0.41.54-.74,0.41-0.74-0.27L24,14.36a3.72,3.72,0,0,1,1.55-2.43,9.66,9.66,0,0,1,3.75-2.3,20.91,20.91,0,0,1,3.61-.47,18.78,18.78,0,0,0,2.19-.44c0.41-.1.54-0.13,0.61,0.51l1.89,14.34C37.73,25.21,37.52,25,36.7,25.23Zm29.39,0.15a7.34,7.34,0,0,1-4.17,2.83,13.42,13.42,0,0,1-7-.14c-2-.55-3.62-1-4.89-0.24-0.26.15-.33,0.11-0.35-0.23s-0.25-3.94-.26-4.6c0-.23.15-0.17,0.23-0.08A14.23,14.23,0,0,0,54.87,26,9.81,9.81,0,0,0,61,26.3a4,4,0,0,0,2.2-1.63A2.46,2.46,0,0,0,63,22c-0.4-.45-1-1.15-5.53-1.8-4.78-.68-6.11-1.85-7-3.23a4.73,4.73,0,0,1-.12-5A6.43,6.43,0,0,1,53.71,9.3,12.25,12.25,0,0,1,60,8.93c2.46,0.44,3.39,1.09,4.49.61,0.36-.16.55-0.28,0.59,0.18,0.06,0.68.31,3.83,0.33,4.12s-0.08.34-.29,0.14a10.74,10.74,0,0,0-4.62-2.91A8.67,8.67,0,0,0,56.06,11a4.24,4.24,0,0,0-2.52,1.63,2.39,2.39,0,0,0,.18,3c0.8,0.83,2.42,1.11,4,1.34A38.27,38.27,0,0,1,63.32,18a6.29,6.29,0,0,1,2.93,2.27A4.78,4.78,0,0,1,66.09,25.37Zm29.83,1.37a0.5,0.5,0,0,1-.39.47,16.63,16.63,0,0,1-2.79,1A15.45,15.45,0,0,1,84.89,28a11.86,11.86,0,0,1-6.45-4.82A8.72,8.72,0,0,1,78.56,14a10.75,10.75,0,0,1,6.55-4.67,15.22,15.22,0,0,1,7-.19,16.43,16.43,0,0,1,3.12,1,0.5,0.5,0,0,1,.38.46l0.31,3c0,0.3-.18.31-0.32,0.14a10,10,0,0,0-3.77-2.49,8.32,8.32,0,0,0-5.87.1,7.74,7.74,0,0,0-3.86,3.13A7.82,7.82,0,0,0,81.66,22a8.24,8.24,0,0,0,10.7,3.81,12.05,12.05,0,0,0,3.88-2.44c0.2-.2.35-0.15,0.3,0.13C96.39,24.24,96,26.2,95.92,26.74Zm34.28,1.2c0.16,0.06.15,0.22,0,.22h-6.69c-0.17,0-.18-0.16,0-0.22a2.8,2.8,0,0,0,1.71-2.85V18.87H112.46v6.22a2.8,2.8,0,0,0,1.71,2.85c0.16,0.06.15,0.22,0,.22h-6.69c-0.17,0-.18-0.16,0-0.22a2.8,2.8,0,0,0,1.71-2.85V12.27a2.8,2.8,0,0,0-1.71-2.85c-0.16-.06-0.15-0.22,0-0.22h6.69c0.17,0,.18.16,0,0.22a2.8,2.8,0,0,0-1.71,2.85V17.1h12.71V12.27a2.8,2.8,0,0,0-1.71-2.85c-0.16-.06-0.15-0.22,0-0.22h6.69c0.17,0,.18.16,0,0.22a2.8,2.8,0,0,0-1.71,2.85V25.09A2.8,2.8,0,0,0,130.2,27.94Zm34.19-9.13A9.23,9.23,0,0,1,160.84,26c-3,2.53-7.08,2.61-8.18,2.61h-0.25c-1.11,0-5.18-.08-8.18-2.61a9.23,9.23,0,0,1-3.55-7.15V18.67a9.23,9.23,0,0,1,3.55-7.14c3-2.53,7.08-2.61,8.18-2.61h0.25c1.11,0,5.18.08,8.18,2.61a9.23,9.23,0,0,1,3.55,7.14v0.14ZM191.22,25c-0.18.5-1.29,3.28-1.49,3.76a0.18,0.18,0,0,1-.3.1,5.44,5.44,0,0,0-2.71-.67H175.21c-0.17,0-.18-0.16,0-0.22a2.85,2.85,0,0,0,1.71-2.89V12.29a2.8,2.8,0,0,0-1.71-2.85c-0.16-.06-0.15-0.22,0-0.22h7c0.17,0,.19.19,0,0.25a2.75,2.75,0,0,0-1.93,2.81V26.45h6.58A6.49,6.49,0,0,0,191,24.88C191.17,24.72,191.29,24.83,191.22,25Zm32.7,3.18H218c-0.24,0-.2-0.2,0-0.28a1,1,0,0,0,.38-1.6l-1.82-3.24H204.46s-1.55,2.68-1.85,3.26a1.22,1.22,0,0,0,.32,1.56c0.17,0.1.2,0.29,0,.29h-4.34c-0.19,0-.33-0.18,0-0.31s1.13-.49,2.15-2.23,8-13.94,8.27-14.55a1.33,1.33,0,0,0-.2-1.75c-0.12-.1,0-0.16.07-0.16h3.4L221.91,26a4.26,4.26,0,0,0,2,1.92C224.15,28,224.15,28.21,223.92,28.21ZM249.8,25.4a7.35,7.35,0,0,1-4.18,2.83,13.43,13.43,0,0,1-7-.14c-2-.55-3.62-1-4.89-0.24-0.26.15-.33,0.11-0.36-0.23s-0.25-3.94-.26-4.6c0-.23.15-0.17,0.23-0.08a14.18,14.18,0,0,0,5.28,3.13,9.79,9.79,0,0,0,6.14.25,4,4,0,0,0,2.2-1.63,2.46,2.46,0,0,0-.18-2.63c-0.4-.45-1-1.15-5.53-1.8-4.78-.68-6.11-1.85-7-3.23a4.72,4.72,0,0,1-.12-5,6.42,6.42,0,0,1,3.36-2.67A12.24,12.24,0,0,1,243.69,9c2.46,0.43,3.39,1.09,4.49.61,0.36-.16.55-0.28,0.59,0.18,0.06,0.68.3,3.83,0.33,4.12s-0.08.34-.29,0.14a10.72,10.72,0,0,0-4.62-2.91,8.66,8.66,0,0,0-4.42-.11,4.24,4.24,0,0,0-2.52,1.63,2.39,2.39,0,0,0,.18,3c0.8,0.83,2.42,1.11,4,1.34A38.33,38.33,0,0,1,247,18.08,6.29,6.29,0,0,1,250,20.34,4.78,4.78,0,0,1,249.8,25.4ZM280.42,8.88c-0.49.67-1.73,2.31-2.2,2.92-0.17.22-.26,0.09-0.36,0a3.08,3.08,0,0,0-2.18-.64h-4.2v14A2.8,2.8,0,0,0,273.19,28c0.16,0.06.15,0.22,0,.22h-6.69c-0.17,0-.18-0.16,0-0.22a2.8,2.8,0,0,0,1.71-2.85v-14h-4.95a5,5,0,0,0-2.83.61c-0.3.16-.33,0-0.19-0.23,0.58-.74,1.8-2.28,2.39-3.06a0.2,0.2,0,0,1,.32,0,3.53,3.53,0,0,0,2.18.72h11.67a11.27,11.27,0,0,0,3.5-.53C280.41,8.62,280.59,8.65,280.42,8.88ZM297.23,28c0.16,0.06.15,0.22,0,.22h-6.69c-0.17,0-.18-0.16,0-0.22a2.8,2.8,0,0,0,1.71-2.85V12.32a2.8,2.8,0,0,0-1.71-2.85c-0.16-.06-0.15-0.22,0-0.22h6.69c0.17,0,.18.16,0,0.22a2.8,2.8,0,0,0-1.71,2.85V25.15A2.8,2.8,0,0,0,297.23,28Zm29.41-1.25a0.49,0.49,0,0,1-.39.47,16.62,16.62,0,0,1-2.79,1,15.45,15.45,0,0,1-7.85-.17,11.86,11.86,0,0,1-6.45-4.82,8.72,8.72,0,0,1,.12-9.18,10.76,10.76,0,0,1,6.55-4.67,15.21,15.21,0,0,1,7-.19,16.34,16.34,0,0,1,3.12,1,0.5,0.5,0,0,1,.38.46l0.31,3c0,0.3-.18.31-0.32,0.14a10,10,0,0,0-3.77-2.49,8.32,8.32,0,0,0-5.87.1,7.73,7.73,0,0,0-3.86,3.13,7.82,7.82,0,0,0-.41,7.52,8.33,8.33,0,0,0,3.84,3.73,8.42,8.42,0,0,0,6.85.07A12.05,12.05,0,0,0,327,23.38c0.2-.2.35-0.15,0.3,0.13C327.12,24.24,326.75,26.2,326.65,26.74Z"/></svg>