<?xml version="1.0" encoding="utf-8"?>
<!-- Generator: Adobe Illustrator 22.0.1, SVG Export Plug-In . SVG Version: 6.00 Build 0)  -->
<svg version="1.1" id="Main" xmlns="http://www.w3.org/2000/svg" xmlns:xlink="http://www.w3.org/1999/xlink" x="0px" y="0px"
	 viewBox="0 0 250 91.1" style="enable-background:new 0 0 250 91.1;" xml:space="preserve">
<style type="text/css">
	.st0{fill:#FFFFFF;}
	.st1{fill:#EA4335;}
	.st2{fill:#34A853;}
	.st3{fill:#4285F4;}
	.st4{fill:#FBBC05;}
</style>
<path id="Background_2_" class="st0" d="M234,91.1H16c-8.8,0-16-7.2-16-16V16C0,7.2,7.2,0,16,0h218c8.8,0,16,7.2,16,16v59.1
	C250,83.9,242.8,91.1,234,91.1z"/>
<g id="Logo_2_">
	<path id="e_1_" class="st1" d="M225.2,58.3c-4.1,0-7-1.9-8.9-5.6l24.6-10.2l-0.8-2.1c-1.5-4.1-6.2-11.7-15.8-11.7
		c-9.5,0-17.4,7.5-17.4,18.4c0,10.3,7.8,18.4,18.3,18.4c8.4,0,13.3-5.2,15.3-8.1l-6.3-4.2C232.2,56.3,229.3,58.3,225.2,58.3
		L225.2,58.3z M224.6,35.6c3.3,0,6.1,1.7,7,4.1L215,46.6C215,38.9,220.4,35.6,224.6,35.6z"/>
	<path id="l_1_" class="st2" d="M192.7,9.9h8v55.7h-8V9.9z"/>
	<path id="g_1_" class="st3" d="M178.6,32.9h-0.3c-1.8-2.2-5.3-4.1-9.7-4.1c-9.2,0-17.2,8-17.2,18.4c0,10.3,8,18.4,17.2,18.4
		c4.4,0,7.9-2,9.7-4.2h0.3V64c0,7-3.8,10.8-9.8,10.8c-4.9,0-8-3.6-9.3-6.6l-7,2.9c2,4.9,7.4,10.9,16.3,10.9
		c9.5,0,17.5-5.6,17.5-19.2V29.7h-7.7V32.9z M169.4,58.3c-5.6,0-9.8-4.8-9.8-11.2c0-6.5,4.2-11.2,9.8-11.2c5.5,0,9.8,4.8,9.8,11.2
		C179.2,53.7,174.9,58.3,169.4,58.3z"/>
	<path id="o_3_" class="st4" d="M129.2,28.7c-10.2,0-18.5,7.7-18.5,18.4c0,10.6,8.3,18.4,18.5,18.4s18.5-7.8,18.5-18.4
		C147.7,36.5,139.4,28.7,129.2,28.7z M129.2,58.3c-5.6,0-10.4-4.6-10.4-11.2c0-6.6,4.8-11.2,10.4-11.2c5.6,0,10.4,4.5,10.4,11.2
		C139.6,53.7,134.8,58.3,129.2,58.3z"/>
	<path id="o_2_" class="st1" d="M88,28.7c-10.2,0-18.5,7.7-18.5,18.4c0,10.6,8.3,18.4,18.5,18.4s18.5-7.8,18.5-18.4
		C106.5,36.5,98.2,28.7,88,28.7z M88,58.3c-5.6,0-10.4-4.6-10.4-11.2C77.6,40.5,82.4,36,88,36s10.4,4.5,10.4,11.2
		C98.4,53.7,93.6,58.3,88,58.3z"/>
	<path id="G_1_" class="st3" d="M38.1,35.1v7.8h18.6c-0.6,4.4-2,7.6-4.2,9.8c-2.7,2.7-7,5.7-14.4,5.7c-11.5,0-20.5-9.3-20.5-20.7
		s9-20.7,20.5-20.7c6.2,0,10.7,2.4,14,5.6l5.5-5.5C53,12.5,46.7,9.1,38.1,9.1C22.3,9.1,9.1,21.9,9.1,37.6s13.2,28.5,28.9,28.5
		c8.5,0,14.9-2.8,19.9-8c5.1-5.1,6.8-12.4,6.8-18.2c0-1.8-0.1-3.5-0.4-4.9H38.1z"/>
</g>
</svg>
