<?xml version="1.0" encoding="utf-8"?>
<!-- Generator: Adobe Illustrator 22.0.1, SVG Export Plug-In . SVG Version: 6.00 Build 0)  -->
<svg version="1.1" id="Layer_1" xmlns="http://www.w3.org/2000/svg" xmlns:xlink="http://www.w3.org/1999/xlink" x="0px" y="0px"
	 viewBox="0 0 159 46.5" style="enable-background:new 0 0 159 46.5;" xml:space="preserve">
<style type="text/css">
	.st0{fill:#009999;}
</style>
<path class="st0" d="M137.1,12.5c0,1.7,0,3.3,0,5c-0.1,0.5-0.7-0.2-1.1-0.5c-1.3-0.8-3.1-1.7-5.9-1.4c-3.6,0.4-6.5,3.6-6.5,7.7
	c0,3.8,2.8,7.3,6.4,7.7c2.9,0.4,5.5-0.8,7.1-2.2c0,1.8,0,3.5,0,5.3c-8.9,3.8-19.6-1.7-18.6-12.2C119.3,14.1,128.7,8.6,137.1,12.5z"
	/>
<path class="st0" d="M65.8,11.6c1.5,4,3.1,7.8,4.6,11.8c1.7-3.8,3.3-7.8,4.8-11.8c2.5,0,5,0,7.4,0c0,7.7,0,15.5,0,23.2
	c-1.7,0-3.3,0-5,0c0-5.4,0-10.8,0-16.3c-2.6,5.3-4.8,10.9-7.1,16.4c-2.5-5.3-4.8-10.9-7.1-16.4c-0.4,5.1-0.1,10.9-0.2,16.3
	c-1.7,0-3.3,0-5,0c0-7.7,0-15.5,0-23.2C60.8,11.6,63.3,11.6,65.8,11.6z"/>
<path class="st0" d="M98.9,11.6c0,1.3,0,2.7,0,4c-2.8,0-5.7,0-8.5,0c0,1.8,0,3.5,0,5.3c2.4,0.4,5.5,0.1,8.2,0.2c0,1.3,0,2.6,0,3.9
	c-2.7,0-5.5,0-8.2,0c0,1.9,0,3.8,0,5.7c2.5,0.4,5.7,0.1,8.5,0.2c0,1.3,0,2.7,0,4c-4.5,0-9,0-13.5,0c0-7.7,0-15.5,0-23.2
	C89.9,11.6,94.4,11.6,98.9,11.6z"/>
<path class="st0" d="M113.6,24.8c2.1,3.5,5,6.8,6.8,10.1c-1.9-0.4-3.5,0.6-5.3,0c-0.8-0.3-1.8-2.2-2.3-3.1c-2-3-4.7-6.6-6.2-9.6
	c7.9,1.6,7.5-8.7-0.5-6.8c0,6.5,0,13,0,19.5c-1.7,0-3.3,0-5,0c0-7.7,0-15.5,0-23.2c4.9,0.2,11.5-0.9,14.4,1.9
	C118.6,16.4,118.3,23.6,113.6,24.8z"/>
<path class="st0" d="M144.4,11.6c0,7.7,0,15.5,0,23.2c-1.7,0-3.3,0-5,0c0.1-7.7-0.2-15.8,0.2-23.2C141.2,11.6,142.8,11.6,144.4,11.6
	z"/>
<path class="st0" d="M157.7,11.6c0.4,0-0.2,0.8-0.5,1.2c-0.3,0.4-0.8,0.8-1.1,1.2c-1.8,2.5-3.9,5.5-5.7,8.1
	c2.7,4.3,6.1,8.6,8.5,12.7c-2-0.4-3.7,0.6-5.4,0c-0.8-0.3-1.7-2.2-2.3-3.1c-2.1-3.1-4.7-6.7-6.5-9.4c2.4-3.7,4.9-7.3,7.6-10.7
	C154.1,11.6,155.9,11.6,157.7,11.6z"/>
<path class="st0" d="M11.7,11.6c0.5,6.7,4,10.3,10.1,11.5c-0.1,0.5-0.7,0.4-0.9,0.5c-5.1,1.3-8.9,4.9-9.1,11.3
	C4.2,34.5-1.6,28.1,0.4,20.3C1.6,15.6,5.7,11.9,11.7,11.6C12,5,17-0.1,23.5,0c6.5,0.1,11,4.8,11.5,11.1c0,0.2,0,0.4-0.2,0.5
	C27.1,11.6,19.4,11.6,11.7,11.6z"/>
<path class="st0" d="M35.2,34.8c-0.6,3.3-1.4,5.9-3.3,7.9c-1.8,2-4.7,3.5-7.9,3.7c-6.7,0.4-12-4.5-12.4-11.6c7.8,0,15.6,0,23.4,0
	c-0.6-6.8-4.3-10.4-10.4-11.6c6.1-1.2,9.8-4.9,10.4-11.6c6.4,0.3,12.3,5.1,11.5,13.2C46,30.1,41.5,34.5,35.2,34.8z"/>
</svg>
