<?xml version="1.0" encoding="utf-8"?>
<!-- Generator: Adobe Illustrator 22.0.1, SVG Export Plug-In . SVG Version: 6.00 Build 0)  -->
<svg version="1.1" id="Layer_1" xmlns="http://www.w3.org/2000/svg" xmlns:xlink="http://www.w3.org/1999/xlink" x="0px" y="0px"
	 viewBox="0 0 298.1 70.4" style="enable-background:new 0 0 298.1 70.4;" xml:space="preserve">
<style type="text/css">
	.st0{enable-background:new    ;}
	.st1{fill:#FFFFFF;}
</style>
<g class="st0">
	<path class="st1" d="M11,24.3H6.2V5.5H0v-4h17.2v4H11V24.3z"/>
	<path class="st1" d="M36.5,24.3h-4.8V14.1c0-2.5-0.9-3.8-2.8-3.8c-1.3,0-2.3,0.5-2.9,1.4c-0.6,0.9-0.9,2.4-0.9,4.4v8.2h-4.8V0h4.8
		v5c0,0.4,0,1.3-0.1,2.7l-0.1,1.4h0.3c1.1-1.7,2.7-2.6,5.1-2.6c2.1,0,3.6,0.6,4.7,1.7c1.1,1.1,1.6,2.7,1.6,4.7V24.3z"/>
	<path class="st1" d="M49.3,24.6c-2.8,0-5-0.8-6.6-2.3c-1.6-1.6-2.4-3.7-2.4-6.6c0-2.9,0.7-5.2,2.2-6.8C44,7.3,46,6.5,48.6,6.5
		c2.5,0,4.4,0.7,5.8,2.1c1.4,1.4,2.1,3.3,2.1,5.8v2.3H45.2c0.1,1.4,0.5,2.4,1.2,3.2s1.8,1.1,3.2,1.1c1.1,0,2-0.1,3-0.3
		c0.9-0.2,1.9-0.6,2.9-1v3.7c-0.8,0.4-1.7,0.7-2.7,0.9C51.8,24.5,50.7,24.6,49.3,24.6z M48.6,9.9c-1,0-1.8,0.3-2.4,1
		c-0.6,0.6-0.9,1.5-1,2.7H52c0-1.2-0.3-2.1-0.9-2.7C50.4,10.2,49.6,9.9,48.6,9.9z"/>
	<path class="st1" d="M78.7,24.3L73.2,6.4H73c0.2,3.6,0.3,6.1,0.3,7.3v10.6H69V1.5h6.6L81,18.9h0.1l5.7-17.5h6.6v22.8h-4.5V13.5
		c0-0.5,0-1.1,0-1.8c0-0.7,0.1-2.4,0.2-5.3H89l-5.9,17.9H78.7z"/>
	<path class="st1" d="M109.9,24.3l-0.9-2.4h-0.1c-0.8,1-1.6,1.7-2.5,2.1s-2,0.6-3.3,0.6c-1.7,0-3-0.5-4-1.4c-1-1-1.4-2.3-1.4-4.1
		c0-1.9,0.6-3.2,1.9-4.1s3.3-1.4,5.9-1.5l3-0.1v-0.8c0-1.8-0.9-2.7-2.7-2.7c-1.4,0-3,0.4-4.9,1.3l-1.6-3.2c2-1.1,4.2-1.6,6.7-1.6
		c2.3,0,4.1,0.5,5.4,1.5s1.9,2.6,1.9,4.7v11.6H109.9z M108.5,16.2l-1.8,0.1c-1.4,0-2.4,0.3-3.1,0.8s-1,1.2-1,2.1c0,1.3,0.8,2,2.3,2
		c1.1,0,2-0.3,2.6-1c0.7-0.6,1-1.5,1-2.5V16.2z"/>
	<path class="st1" d="M125.5,20.8c0.8,0,1.8-0.2,3-0.5v3.5c-1.2,0.5-2.6,0.8-4.4,0.8c-1.9,0-3.3-0.5-4.2-1.4c-0.9-1-1.3-2.4-1.3-4.3
		v-8.4h-2.3v-2l2.6-1.6l1.4-3.7h3v3.7h4.9v3.6h-4.9v8.4c0,0.7,0.2,1.2,0.6,1.5C124.3,20.7,124.8,20.8,125.5,20.8z"/>
	<path class="st1" d="M136.7,24.3H132V0h4.8V24.3z"/>
	<path class="st1" d="M141.5,2.3c0-1.6,0.9-2.3,2.6-2.3s2.6,0.8,2.6,2.3c0,0.7-0.2,1.3-0.6,1.7c-0.4,0.4-1.1,0.6-1.9,0.6
		C142.4,4.7,141.5,3.9,141.5,2.3z M146.5,24.3h-4.8V6.8h4.8V24.3z"/>
	<path class="st1" d="M167.6,24.3h-4.8V14.1c0-1.3-0.2-2.2-0.7-2.8c-0.4-0.6-1.2-0.9-2.1-0.9c-1.3,0-2.3,0.4-2.9,1.3
		c-0.6,0.9-0.9,2.4-0.9,4.4v8.2h-4.8V6.8h3.6l0.6,2.2h0.3c0.5-0.8,1.3-1.5,2.2-1.9s2-0.6,3.2-0.6c2,0,3.6,0.5,4.6,1.6
		c1.1,1.1,1.6,2.7,1.6,4.8V24.3z"/>
	<path class="st1" d="M177,19.8l0.2,0.4c-0.1,0.6-0.3,1.2-0.5,1.9s-0.4,1.3-0.7,2c-0.2,0.7-0.5,1.4-0.8,2s-0.5,1.3-0.8,1.9H171
		c0.2-0.7,0.3-1.4,0.5-2.1c0.2-0.7,0.3-1.5,0.4-2.2s0.3-1.4,0.4-2.1s0.2-1.3,0.3-1.9H177z"/>
	<path class="st1" d="M200.2,24.3l-5.5-17.9h-0.1c0.2,3.6,0.3,6.1,0.3,7.3v10.6h-4.3V1.5h6.6l5.4,17.5h0.1l5.7-17.5h6.6v22.8h-4.5
		V13.5c0-0.5,0-1.1,0-1.8c0-0.7,0.1-2.4,0.2-5.3h-0.1l-5.9,17.9H200.2z"/>
	<path class="st1" d="M228.2,24.6c-2.8,0-5-0.8-6.6-2.3c-1.6-1.6-2.4-3.7-2.4-6.6c0-2.9,0.7-5.2,2.2-6.8c1.5-1.6,3.5-2.4,6.1-2.4
		c2.5,0,4.4,0.7,5.8,2.1c1.4,1.4,2.1,3.3,2.1,5.8v2.3H224c0.1,1.4,0.5,2.4,1.2,3.2s1.8,1.1,3.2,1.1c1.1,0,2-0.1,3-0.3
		c0.9-0.2,1.9-0.6,2.9-1v3.7c-0.8,0.4-1.7,0.7-2.7,0.9C230.7,24.5,229.5,24.6,228.2,24.6z M227.5,9.9c-1,0-1.8,0.3-2.4,1
		c-0.6,0.6-0.9,1.5-1,2.7h6.7c0-1.2-0.3-2.1-0.9-2.7C229.3,10.2,228.5,9.9,227.5,9.9z"/>
	<path class="st1" d="M255.3,24.3h-4.8V14.1c0-2.5-0.9-3.8-2.8-3.8c-1.3,0-2.3,0.5-2.9,1.4c-0.6,0.9-0.9,2.4-0.9,4.4v8.2h-4.8V0h4.8
		v5c0,0.4,0,1.3-0.1,2.7l-0.1,1.4h0.3c1.1-1.7,2.7-2.6,5.1-2.6c2.1,0,3.6,0.6,4.7,1.7c1.1,1.1,1.6,2.7,1.6,4.7V24.3z"/>
	<path class="st1" d="M267.6,20.8c0.8,0,1.8-0.2,3-0.5v3.5c-1.2,0.5-2.6,0.8-4.4,0.8c-1.9,0-3.3-0.5-4.2-1.4c-0.9-1-1.3-2.4-1.3-4.3
		v-8.4h-2.3v-2l2.6-1.6l1.4-3.7h3v3.7h4.9v3.6h-4.9v8.4c0,0.7,0.2,1.2,0.6,1.5C266.4,20.7,266.9,20.8,267.6,20.8z"/>
	<path class="st1" d="M285.2,24.3l-0.9-2.4h-0.1c-0.8,1-1.6,1.7-2.5,2.1s-2,0.6-3.3,0.6c-1.7,0-3-0.5-4-1.4c-1-1-1.4-2.3-1.4-4.1
		c0-1.9,0.6-3.2,1.9-4.1c1.3-0.9,3.3-1.4,5.9-1.5l3-0.1v-0.8c0-1.8-0.9-2.7-2.7-2.7c-1.4,0-3,0.4-4.9,1.3l-1.6-3.2
		c2-1.1,4.2-1.6,6.7-1.6c2.3,0,4.1,0.5,5.4,1.5c1.2,1,1.9,2.6,1.9,4.7v11.6H285.2z M283.8,16.2l-1.8,0.1c-1.4,0-2.4,0.3-3.1,0.8
		s-1,1.2-1,2.1c0,1.3,0.8,2,2.3,2c1.1,0,2-0.3,2.6-1c0.7-0.6,1-1.5,1-2.5V16.2z"/>
	<path class="st1" d="M297.8,19.8l0.2,0.4c-0.1,0.6-0.3,1.2-0.5,1.9s-0.4,1.3-0.7,2c-0.2,0.7-0.5,1.4-0.8,2s-0.5,1.3-0.8,1.9h-3.4
		c0.2-0.7,0.3-1.4,0.5-2.1c0.2-0.7,0.3-1.5,0.4-2.2s0.3-1.4,0.4-2.1s0.2-1.3,0.3-1.9H297.8z"/>
</g>
<g class="st0">
	<path class="st1" d="M18.7,62.7l-0.9-2.4h-0.1c-0.8,1-1.6,1.7-2.5,2.1s-2,0.6-3.3,0.6c-1.7,0-3-0.5-4-1.4c-1-1-1.4-2.3-1.4-4.1
		c0-1.9,0.6-3.2,1.9-4.1s3.3-1.4,5.9-1.5l3-0.1v-0.8c0-1.8-0.9-2.7-2.7-2.7c-1.4,0-3,0.4-4.9,1.3l-1.6-3.2c2-1.1,4.2-1.6,6.7-1.6
		c2.3,0,4.1,0.5,5.4,1.5s1.9,2.6,1.9,4.7v11.6H18.7z M17.3,54.6l-1.8,0.1c-1.4,0-2.4,0.3-3.1,0.8s-1,1.2-1,2.1c0,1.3,0.8,2,2.3,2
		c1.1,0,2-0.3,2.6-1c0.7-0.6,1-1.5,1-2.5V54.6z"/>
	<path class="st1" d="M43.1,62.7h-4.8V52.5c0-1.3-0.2-2.2-0.7-2.8s-1.2-0.9-2.1-0.9c-1.3,0-2.3,0.4-2.9,1.3
		c-0.6,0.9-0.9,2.4-0.9,4.4v8.2H27V45.2h3.6l0.6,2.2h0.3c0.5-0.8,1.3-1.5,2.2-1.9c0.9-0.4,2-0.6,3.2-0.6c2,0,3.6,0.5,4.6,1.6
		c1.1,1.1,1.6,2.7,1.6,4.8V62.7z"/>
	<path class="st1" d="M53.5,63c-2.1,0-3.7-0.8-4.8-2.4c-1.2-1.6-1.8-3.8-1.8-6.6c0-2.9,0.6-5.1,1.8-6.7c1.2-1.6,2.8-2.4,4.9-2.4
		c2.2,0,3.9,0.9,5,2.6h0.2c-0.2-1.3-0.4-2.5-0.4-3.5v-5.6h4.8v24.3h-3.7l-0.9-2.3h-0.2C57.4,62.2,55.7,63,53.5,63z M55.2,59.2
		c1.2,0,2.1-0.4,2.7-1.1s0.9-1.9,0.9-3.6V54c0-1.9-0.3-3.2-0.9-4c-0.6-0.8-1.5-1.2-2.8-1.2c-1.1,0-1.9,0.5-2.5,1.4s-0.9,2.2-0.9,3.9
		c0,1.7,0.3,3,0.9,3.9C53.3,58.8,54.1,59.2,55.2,59.2z"/>
	<path class="st1" d="M85.7,62.7h-4.8V43.9h-6.2v-4h17.2v4h-6.2V62.7z"/>
	<path class="st1" d="M109.9,53.9c0,2.8-0.7,5.1-2.2,6.7S104,63,101.3,63c-1.7,0-3.2-0.4-4.4-1.1c-1.3-0.7-2.3-1.8-3-3.2
		c-0.7-1.4-1-3-1-4.8c0-2.9,0.7-5.1,2.2-6.7c1.5-1.6,3.6-2.4,6.3-2.4c1.7,0,3.2,0.4,4.4,1.1c1.3,0.7,2.3,1.8,3,3.1
		C109.5,50.5,109.9,52.1,109.9,53.9z M97.8,53.9c0,1.7,0.3,3,0.9,3.9s1.5,1.3,2.8,1.3c1.3,0,2.2-0.4,2.7-1.3
		c0.6-0.9,0.8-2.2,0.8-3.9c0-1.7-0.3-3-0.8-3.9c-0.6-0.9-1.5-1.3-2.8-1.3c-1.3,0-2.2,0.4-2.7,1.3C98.1,50.9,97.8,52.2,97.8,53.9z"/>
	<path class="st1" d="M129.9,62.7h-4.8V52.5c0-1.3-0.2-2.2-0.7-2.8s-1.2-0.9-2.1-0.9c-1.3,0-2.3,0.4-2.9,1.3
		c-0.6,0.9-0.9,2.4-0.9,4.4v8.2h-4.8V45.2h3.6l0.6,2.2h0.3c0.5-0.8,1.3-1.5,2.2-1.9c0.9-0.4,2-0.6,3.2-0.6c2,0,3.6,0.5,4.6,1.6
		c1.1,1.1,1.6,2.7,1.6,4.8V62.7z"/>
	<path class="st1" d="M150.1,62.7c0,2.5-0.7,4.4-2.2,5.7c-1.5,1.3-3.6,1.9-6.5,1.9c-2.6,0-4.7-0.3-6.5-1v-3.8
		c2.1,0.9,4.4,1.3,6.8,1.3c2.4,0,3.7-1.3,3.7-4v-0.3l0.1-2.1h-0.1c-1.1,1.7-2.8,2.6-5,2.6c-2.1,0-3.7-0.8-4.9-2.4
		c-1.2-1.6-1.7-3.8-1.7-6.6c0-2.9,0.6-5.1,1.8-6.7c1.2-1.6,2.8-2.4,4.9-2.4c2.1,0,3.8,0.9,5.1,2.6h0.1l0.4-2.2h4V62.7z M142,59.3
		c1.3,0,2.2-0.4,2.7-1.1c0.6-0.7,0.8-1.9,0.8-3.6V54c0-1.9-0.3-3.2-0.9-4c-0.6-0.8-1.5-1.2-2.8-1.2c-2.2,0-3.4,1.8-3.4,5.3
		c0,1.8,0.3,3.1,0.8,3.9S140.9,59.3,142,59.3z"/>
	<path class="st1" d="M168.5,62.7h-4.8V39.9h13.1v4h-8.3v5.9h7.7v4h-7.7V62.7z"/>
	<path class="st1" d="M192,62.7l-0.9-2.4H191c-0.8,1-1.6,1.7-2.5,2.1s-2,0.6-3.3,0.6c-1.7,0-3-0.5-4-1.4c-1-1-1.4-2.3-1.4-4.1
		c0-1.9,0.6-3.2,1.9-4.1c1.3-0.9,3.3-1.4,5.9-1.5l3-0.1v-0.8c0-1.8-0.9-2.7-2.7-2.7c-1.4,0-3,0.4-4.9,1.3l-1.6-3.2
		c2-1.1,4.2-1.6,6.7-1.6c2.3,0,4.1,0.5,5.4,1.5c1.2,1,1.9,2.6,1.9,4.7v11.6H192z M190.6,54.6l-1.8,0.1c-1.4,0-2.4,0.3-3.1,0.8
		s-1,1.2-1,2.1c0,1.3,0.8,2,2.3,2c1.1,0,2-0.3,2.6-1c0.7-0.6,1-1.5,1-2.5V54.6z"/>
	<path class="st1" d="M215.9,62.7h-4.8V52.5c0-1.3-0.2-2.2-0.6-2.8s-1.1-0.9-2-0.9c-1.2,0-2.1,0.4-2.7,1.3c-0.6,0.9-0.8,2.4-0.8,4.4
		v8.2h-4.8V45.2h3.6l0.6,2.2h0.3c0.5-0.8,1.1-1.4,2-1.9c0.9-0.5,1.9-0.7,3-0.7c2.6,0,4.4,0.9,5.3,2.6h0.4c0.5-0.8,1.2-1.4,2.1-1.9
		s1.9-0.7,3.1-0.7c2,0,3.5,0.5,4.5,1.5c1,1,1.5,2.6,1.5,4.9v11.4H222V52.5c0-1.3-0.2-2.2-0.6-2.8c-0.4-0.6-1.1-0.9-2-0.9
		c-1.2,0-2,0.4-2.6,1.2c-0.6,0.8-0.9,2.2-0.9,4V62.7z"/>
	<path class="st1" d="M231.4,40.7c0-1.6,0.9-2.3,2.6-2.3s2.6,0.8,2.6,2.3c0,0.7-0.2,1.3-0.6,1.7c-0.4,0.4-1.1,0.6-1.9,0.6
		C232.3,43.1,231.4,42.3,231.4,40.7z M236.4,62.7h-4.8V45.2h4.8V62.7z"/>
	<path class="st1" d="M246.2,62.7h-4.8V38.4h4.8V62.7z"/>
	<path class="st1" d="M251,40.7c0-1.6,0.9-2.3,2.6-2.3s2.6,0.8,2.6,2.3c0,0.7-0.2,1.3-0.6,1.7c-0.4,0.4-1.1,0.6-1.9,0.6
		C251.8,43.1,251,42.3,251,40.7z M255.9,62.7h-4.8V45.2h4.8V62.7z"/>
	<path class="st1" d="M268.8,63c-2.8,0-5-0.8-6.6-2.3c-1.6-1.6-2.4-3.7-2.4-6.6c0-2.9,0.7-5.2,2.2-6.8c1.5-1.6,3.5-2.4,6.1-2.4
		c2.5,0,4.4,0.7,5.8,2.1c1.4,1.4,2.1,3.3,2.1,5.8v2.3h-11.3c0.1,1.4,0.5,2.4,1.2,3.2s1.8,1.1,3.2,1.1c1.1,0,2-0.1,3-0.3
		c0.9-0.2,1.9-0.6,2.9-1v3.7c-0.8,0.4-1.7,0.7-2.7,0.9C271.4,62.9,270.2,63,268.8,63z M268.2,48.3c-1,0-1.8,0.3-2.4,1
		c-0.6,0.6-0.9,1.5-1,2.7h6.7c0-1.2-0.3-2.1-0.9-2.7C270,48.6,269.2,48.3,268.2,48.3z"/>
	<path class="st1" d="M292,57.5c0,1.8-0.6,3.2-1.9,4.1c-1.2,0.9-3.1,1.4-5.6,1.4c-1.3,0-2.4-0.1-3.2-0.3s-1.7-0.4-2.5-0.8v-3.9
		c0.9,0.4,1.9,0.8,3,1c1.1,0.3,2.1,0.4,2.9,0.4c1.7,0,2.6-0.5,2.6-1.5c0-0.4-0.1-0.7-0.3-0.9s-0.6-0.5-1.2-0.8
		c-0.6-0.3-1.3-0.6-2.2-1c-1.3-0.6-2.3-1.1-3-1.6c-0.6-0.5-1.1-1-1.4-1.6c-0.3-0.6-0.4-1.4-0.4-2.3c0-1.6,0.6-2.8,1.8-3.6
		c1.2-0.8,2.9-1.3,5.1-1.3c2.1,0,4.1,0.5,6.1,1.4l-1.4,3.4c-0.9-0.4-1.7-0.7-2.5-0.9c-0.8-0.2-1.5-0.4-2.3-0.4
		c-1.4,0-2.1,0.4-2.1,1.1c0,0.4,0.2,0.8,0.7,1.1s1.4,0.8,3,1.4c1.4,0.6,2.4,1.1,3,1.5c0.6,0.5,1.1,1,1.4,1.7S292,56.7,292,57.5z"/>
</g>
</svg>
