<?xml version="1.0" encoding="utf-8"?>
<!-- Generator: Adobe Illustrator 22.0.1, SVG Export Plug-In . SVG Version: 6.00 Build 0)  -->
<svg version="1.1" id="Layer_1" xmlns="http://www.w3.org/2000/svg" xmlns:xlink="http://www.w3.org/1999/xlink" x="0px" y="0px"
	 viewBox="0 0 404.9 70.4" style="enable-background:new 0 0 404.9 70.4;" xml:space="preserve">
<style type="text/css">
	.st0{fill:#FFFFFF;}
</style>
<g>
	<path class="st0" d="M22,24.3h-4.8V5.5H11v-4h17.2v4H22V24.3z"/>
	<path class="st0" d="M47.5,24.3h-4.8V14.1c0-2.5-0.9-3.8-2.8-3.8c-1.3,0-2.3,0.5-2.9,1.4c-0.6,0.9-0.9,2.4-0.9,4.4v8.2h-4.8V0h4.8
		v5c0,0.4,0,1.3-0.1,2.7l-0.1,1.4h0.3c1.1-1.7,2.7-2.6,5.1-2.6c2.1,0,3.6,0.6,4.7,1.7c1.1,1.1,1.6,2.7,1.6,4.7V24.3z"/>
	<path class="st0" d="M60.3,24.6c-2.8,0-5-0.8-6.6-2.3c-1.6-1.6-2.4-3.7-2.4-6.6c0-2.9,0.7-5.2,2.2-6.8C55,7.3,57,6.5,59.6,6.5
		c2.5,0,4.4,0.7,5.8,2.1c1.4,1.4,2.1,3.3,2.1,5.8v2.3H56.1c0.1,1.4,0.5,2.4,1.2,3.2s1.8,1.1,3.2,1.1c1.1,0,2-0.1,3-0.3
		c0.9-0.2,1.9-0.6,2.9-1v3.7c-0.8,0.4-1.7,0.7-2.7,0.9C62.8,24.5,61.6,24.6,60.3,24.6z M59.6,9.9c-1,0-1.8,0.3-2.4,1
		c-0.6,0.6-0.9,1.5-1,2.7h6.7c0-1.2-0.3-2.1-0.9-2.7C61.4,10.2,60.6,9.9,59.6,9.9z"/>
	<path class="st0" d="M98.9,12.7c0,3.8-1.1,6.6-3.2,8.6s-5.2,3-9.3,3H80V1.5h7.2c3.7,0,6.6,1,8.7,3S98.9,9.1,98.9,12.7z M93.9,12.8
		c0-4.9-2.2-7.4-6.5-7.4h-2.6v14.9h2.1C91.5,20.3,93.9,17.8,93.9,12.8z"/>
	<path class="st0" d="M111.2,24.6c-2.8,0-5-0.8-6.6-2.3c-1.6-1.6-2.4-3.7-2.4-6.6c0-2.9,0.7-5.2,2.2-6.8c1.5-1.6,3.5-2.4,6.1-2.4
		c2.5,0,4.4,0.7,5.8,2.1c1.4,1.4,2.1,3.3,2.1,5.8v2.3H107c0.1,1.4,0.5,2.4,1.2,3.2s1.8,1.1,3.2,1.1c1.1,0,2-0.1,3-0.3
		c0.9-0.2,1.9-0.6,2.9-1v3.7c-0.8,0.4-1.7,0.7-2.7,0.9C113.7,24.5,112.5,24.6,111.2,24.6z M110.5,9.9c-1,0-1.8,0.3-2.4,1
		c-0.6,0.6-0.9,1.5-1,2.7h6.7c0-1.2-0.3-2.1-0.9-2.7C112.3,10.2,111.5,9.9,110.5,9.9z"/>
	<path class="st0" d="M135.7,15.5v8.8h-4.8V1.5h6.7c3.1,0,5.4,0.6,6.9,1.7c1.5,1.1,2.2,2.8,2.2,5.1c0,1.3-0.4,2.5-1.1,3.6
		s-1.8,1.9-3.1,2.5l6.7,9.9h-5.4l-5.5-8.8H135.7z M135.7,11.6h1.6c1.5,0,2.7-0.3,3.4-0.8c0.7-0.5,1.1-1.3,1.1-2.4
		c0-1.1-0.4-1.9-1.1-2.3c-0.7-0.5-1.9-0.7-3.5-0.7h-1.5V11.6z"/>
	<path class="st0" d="M167.4,15.5c0,2.8-0.7,5.1-2.2,6.7s-3.6,2.4-6.3,2.4c-1.7,0-3.2-0.4-4.4-1.1c-1.3-0.7-2.3-1.8-3-3.2
		c-0.7-1.4-1-3-1-4.8c0-2.9,0.7-5.1,2.2-6.7c1.5-1.6,3.6-2.4,6.3-2.4c1.7,0,3.2,0.4,4.4,1.1c1.3,0.7,2.3,1.8,3,3.1
		C167.1,12.1,167.4,13.7,167.4,15.5z M155.4,15.5c0,1.7,0.3,3,0.9,3.9s1.5,1.3,2.8,1.3c1.3,0,2.2-0.4,2.7-1.3
		c0.6-0.9,0.8-2.2,0.8-3.9c0-1.7-0.3-3-0.8-3.9c-0.6-0.9-1.5-1.3-2.8-1.3c-1.3,0-2.2,0.4-2.7,1.3C155.7,12.5,155.4,13.8,155.4,15.5z
		"/>
	<path class="st0" d="M181.1,6.5c2.1,0,3.7,0.8,4.8,2.4c1.2,1.6,1.7,3.8,1.7,6.6c0,2.9-0.6,5.1-1.8,6.7c-1.2,1.6-2.8,2.4-4.9,2.4
		c-2.1,0-3.7-0.7-4.8-2.2h-0.3l-0.8,1.9h-3.6V0h4.8v5.7c0,0.7-0.1,1.9-0.2,3.5h0.2C177.3,7.4,178.9,6.5,181.1,6.5z M179.6,10.3
		c-1.2,0-2,0.4-2.6,1.1c-0.5,0.7-0.8,1.9-0.8,3.6v0.5c0,1.9,0.3,3.2,0.8,4c0.6,0.8,1.4,1.2,2.6,1.2c1,0,1.8-0.5,2.3-1.4
		c0.6-0.9,0.9-2.2,0.9-3.9c0-1.7-0.3-3-0.9-3.9C181.4,10.8,180.6,10.3,179.6,10.3z"/>
	<path class="st0" d="M199.5,24.6c-2.8,0-5-0.8-6.6-2.3s-2.4-3.7-2.4-6.6c0-2.9,0.7-5.2,2.2-6.8c1.5-1.6,3.5-2.4,6.1-2.4
		c2.5,0,4.4,0.7,5.8,2.1c1.4,1.4,2.1,3.3,2.1,5.8v2.3h-11.3c0.1,1.4,0.5,2.4,1.2,3.2c0.7,0.8,1.8,1.1,3.2,1.1c1.1,0,2-0.1,3-0.3
		c0.9-0.2,1.9-0.6,2.9-1v3.7c-0.8,0.4-1.7,0.7-2.7,0.9S200.9,24.6,199.5,24.6z M198.9,9.9c-1,0-1.8,0.3-2.4,1
		c-0.6,0.6-0.9,1.5-1,2.7h6.7c0-1.2-0.3-2.1-0.9-2.7C200.7,10.2,199.9,9.9,198.9,9.9z"/>
	<path class="st0" d="M220.3,6.5c0.6,0,1.2,0,1.6,0.1l-0.4,4.5c-0.4-0.1-0.9-0.2-1.4-0.2c-1.5,0-2.7,0.4-3.6,1.2s-1.3,1.9-1.3,3.3
		v8.9h-4.8V6.8h3.6l0.7,2.9h0.2c0.5-1,1.3-1.8,2.2-2.4C218.2,6.8,219.2,6.5,220.3,6.5z"/>
	<path class="st0" d="M232.4,20.8c0.8,0,1.8-0.2,3-0.5v3.5c-1.2,0.5-2.6,0.8-4.4,0.8c-1.9,0-3.3-0.5-4.2-1.4c-0.9-1-1.3-2.4-1.3-4.3
		v-8.4h-2.3v-2l2.6-1.6l1.4-3.7h3v3.7h4.9v3.6h-4.9v8.4c0,0.7,0.2,1.2,0.6,1.5C231.3,20.7,231.8,20.8,232.4,20.8z"/>
	<path class="st0" d="M238.7,2.3c0-1.6,0.9-2.3,2.6-2.3s2.6,0.8,2.6,2.3c0,0.7-0.2,1.3-0.6,1.7c-0.4,0.4-1.1,0.6-1.9,0.6
		C239.6,4.7,238.7,3.9,238.7,2.3z M243.7,24.3h-4.8V6.8h4.8V24.3z"/>
	<path class="st0" d="M260.9,19.1c0,1.8-0.6,3.2-1.9,4.1c-1.2,0.9-3.1,1.4-5.6,1.4c-1.3,0-2.4-0.1-3.2-0.3s-1.7-0.4-2.5-0.8v-3.9
		c0.9,0.4,1.9,0.8,3,1c1.1,0.3,2.1,0.4,2.9,0.4c1.7,0,2.6-0.5,2.6-1.5c0-0.4-0.1-0.7-0.3-0.9c-0.2-0.2-0.6-0.5-1.2-0.8
		c-0.6-0.3-1.3-0.6-2.2-1c-1.3-0.6-2.3-1.1-3-1.6c-0.6-0.5-1.1-1-1.4-1.6c-0.3-0.6-0.4-1.4-0.4-2.3c0-1.6,0.6-2.8,1.8-3.6
		c1.2-0.8,2.9-1.3,5.1-1.3c2.1,0,4.1,0.5,6.1,1.4l-1.4,3.4c-0.9-0.4-1.7-0.7-2.5-0.9c-0.8-0.2-1.5-0.4-2.3-0.4
		c-1.4,0-2.1,0.4-2.1,1.1c0,0.4,0.2,0.8,0.7,1.1s1.4,0.8,3,1.4c1.4,0.6,2.4,1.1,3,1.5c0.6,0.5,1.1,1,1.4,1.7S260.9,18.3,260.9,19.1z
		"/>
	<path class="st0" d="M269,19.8l0.2,0.4c-0.1,0.6-0.3,1.2-0.5,1.9s-0.4,1.3-0.7,2c-0.2,0.7-0.5,1.4-0.8,2s-0.5,1.3-0.8,1.9h-3.4
		c0.2-0.7,0.3-1.4,0.5-2.1c0.2-0.7,0.3-1.5,0.4-2.2c0.1-0.7,0.3-1.4,0.4-2.1c0.1-0.7,0.2-1.3,0.3-1.9H269z"/>
	<path class="st0" d="M292.2,24.3l-5.5-17.9h-0.1c0.2,3.6,0.3,6.1,0.3,7.3v10.6h-4.3V1.5h6.6l5.4,17.5h0.1l5.7-17.5h6.6v22.8h-4.5
		V13.5c0-0.5,0-1.1,0-1.8c0-0.7,0.1-2.4,0.2-5.3h-0.1l-5.9,17.9H292.2z"/>
	<path class="st0" d="M323.4,24.3l-0.9-2.4h-0.1c-0.8,1-1.6,1.7-2.5,2.1s-2,0.6-3.3,0.6c-1.7,0-3-0.5-4-1.4c-1-1-1.4-2.3-1.4-4.1
		c0-1.9,0.6-3.2,1.9-4.1c1.3-0.9,3.3-1.4,5.9-1.5l3-0.1v-0.8c0-1.8-0.9-2.7-2.7-2.7c-1.4,0-3,0.4-4.9,1.3l-1.6-3.2
		c2-1.1,4.2-1.6,6.7-1.6c2.3,0,4.1,0.5,5.4,1.5c1.3,1,1.9,2.6,1.9,4.7v11.6H323.4z M322,16.2l-1.8,0.1c-1.4,0-2.4,0.3-3.1,0.8
		s-1,1.2-1,2.1c0,1.3,0.8,2,2.3,2c1.1,0,2-0.3,2.6-1c0.7-0.6,1-1.5,1-2.5V16.2z"/>
	<path class="st0" d="M339,20.8c0.8,0,1.8-0.2,3-0.5v3.5c-1.2,0.5-2.6,0.8-4.4,0.8c-1.9,0-3.3-0.5-4.2-1.4c-0.9-1-1.3-2.4-1.3-4.3
		v-8.4h-2.3v-2l2.6-1.6l1.4-3.7h3v3.7h4.9v3.6h-4.9v8.4c0,0.7,0.2,1.2,0.6,1.5C337.9,20.7,338.4,20.8,339,20.8z"/>
	<path class="st0" d="M350.3,24.3h-4.8V0h4.8V24.3z"/>
	<path class="st0" d="M355.1,2.3c0-1.6,0.9-2.3,2.6-2.3s2.6,0.8,2.6,2.3c0,0.7-0.2,1.3-0.6,1.7c-0.4,0.4-1.1,0.6-1.9,0.6
		C356,4.7,355.1,3.9,355.1,2.3z M360.1,24.3h-4.8V6.8h4.8V24.3z"/>
	<path class="st0" d="M381.2,24.3h-4.8V14.1c0-1.3-0.2-2.2-0.7-2.8c-0.4-0.6-1.2-0.9-2.1-0.9c-1.3,0-2.3,0.4-2.9,1.3
		c-0.6,0.9-0.9,2.4-0.9,4.4v8.2h-4.8V6.8h3.6l0.6,2.2h0.3c0.5-0.8,1.3-1.5,2.2-1.9s2-0.6,3.2-0.6c2,0,3.6,0.5,4.6,1.6
		c1.1,1.1,1.6,2.7,1.6,4.8V24.3z"/>
	<path class="st0" d="M390.5,19.8l0.2,0.4c-0.1,0.6-0.3,1.2-0.5,1.9s-0.4,1.3-0.7,2c-0.2,0.7-0.5,1.4-0.8,2s-0.5,1.3-0.8,1.9h-3.4
		c0.2-0.7,0.3-1.4,0.5-2.1c0.2-0.7,0.3-1.5,0.4-2.2s0.3-1.4,0.4-2.1s0.2-1.3,0.3-1.9H390.5z"/>
	<path class="st0" d="M9.7,62.7L4.2,44.8H4c0.2,3.6,0.3,6.1,0.3,7.3v10.6H0V39.9h6.6L12,57.3h0.1l5.7-17.5h6.6v22.8h-4.5V51.9
		c0-0.5,0-1.1,0-1.8c0-0.7,0.1-2.4,0.2-5.3H20l-5.9,17.9H9.7z"/>
	<path class="st0" d="M37.7,63c-2.8,0-5-0.8-6.6-2.3c-1.6-1.6-2.4-3.7-2.4-6.6c0-2.9,0.7-5.2,2.2-6.8c1.5-1.6,3.5-2.4,6.1-2.4
		c2.5,0,4.4,0.7,5.8,2.1c1.4,1.4,2.1,3.3,2.1,5.8v2.3H33.5c0.1,1.4,0.5,2.4,1.2,3.2s1.8,1.1,3.2,1.1c1.1,0,2-0.1,3-0.3
		c0.9-0.2,1.9-0.6,2.9-1v3.7c-0.8,0.4-1.7,0.7-2.7,0.9C40.2,62.9,39.1,63,37.7,63z M37,48.3c-1,0-1.8,0.3-2.4,1
		c-0.6,0.6-0.9,1.5-1,2.7h6.7c0-1.2-0.3-2.1-0.9-2.7C38.8,48.6,38,48.3,37,48.3z"/>
	<path class="st0" d="M64.8,62.7H60V52.5c0-2.5-0.9-3.8-2.8-3.8c-1.3,0-2.3,0.5-2.9,1.4c-0.6,0.9-0.9,2.4-0.9,4.4v8.2h-4.8V38.4h4.8
		v5c0,0.4,0,1.3-0.1,2.7l-0.1,1.4h0.3c1.1-1.7,2.7-2.6,5.1-2.6c2.1,0,3.6,0.6,4.7,1.7c1.1,1.1,1.6,2.7,1.6,4.7V62.7z"/>
	<path class="st0" d="M77.1,59.2c0.8,0,1.8-0.2,3-0.5v3.5c-1.2,0.5-2.6,0.8-4.4,0.8c-1.9,0-3.3-0.5-4.2-1.4c-0.9-1-1.3-2.4-1.3-4.3
		v-8.4h-2.3v-2l2.6-1.6l1.4-3.7h3v3.7h4.9v3.6H75v8.4c0,0.7,0.2,1.2,0.6,1.5C75.9,59,76.4,59.2,77.1,59.2z"/>
	<path class="st0" d="M94.7,62.7l-0.9-2.4h-0.1c-0.8,1-1.6,1.7-2.5,2.1s-2,0.6-3.3,0.6c-1.7,0-3-0.5-4-1.4c-1-1-1.4-2.3-1.4-4.1
		c0-1.9,0.6-3.2,1.9-4.1s3.3-1.4,5.9-1.5l3-0.1v-0.8c0-1.8-0.9-2.7-2.7-2.7c-1.4,0-3,0.4-4.9,1.3l-1.6-3.2c2-1.1,4.2-1.6,6.7-1.6
		c2.3,0,4.1,0.5,5.4,1.5S98,49,98,51.1v11.6H94.7z M93.3,54.6l-1.8,0.1c-1.4,0-2.4,0.3-3.1,0.8s-1,1.2-1,2.1c0,1.3,0.8,2,2.3,2
		c1.1,0,2-0.3,2.6-1c0.7-0.6,1-1.5,1-2.5V54.6z"/>
	<path class="st0" d="M107.3,58.2l0.2,0.4c-0.1,0.6-0.3,1.2-0.5,1.9s-0.4,1.3-0.7,2s-0.5,1.4-0.8,2s-0.5,1.3-0.8,1.9h-3.4
		c0.2-0.7,0.3-1.4,0.5-2.1c0.2-0.7,0.3-1.5,0.4-2.2c0.1-0.7,0.3-1.4,0.4-2.1s0.2-1.3,0.3-1.9H107.3z"/>
	<path class="st0" d="M131.6,62.7l-0.9-2.4h-0.1c-0.8,1-1.6,1.7-2.5,2.1s-2,0.6-3.3,0.6c-1.7,0-3-0.5-4-1.4c-1-1-1.4-2.3-1.4-4.1
		c0-1.9,0.6-3.2,1.9-4.1s3.3-1.4,5.9-1.5l3-0.1v-0.8c0-1.8-0.9-2.7-2.7-2.7c-1.4,0-3,0.4-4.9,1.3l-1.6-3.2c2-1.1,4.2-1.6,6.7-1.6
		c2.3,0,4.1,0.5,5.4,1.5s1.9,2.6,1.9,4.7v11.6H131.6z M130.2,54.6l-1.8,0.1c-1.4,0-2.4,0.3-3.1,0.8s-1,1.2-1,2.1c0,1.3,0.8,2,2.3,2
		c1.1,0,2-0.3,2.6-1c0.7-0.6,1-1.5,1-2.5V54.6z"/>
	<path class="st0" d="M155.9,62.7h-4.8V52.5c0-1.3-0.2-2.2-0.7-2.8s-1.2-0.9-2.1-0.9c-1.3,0-2.3,0.4-2.9,1.3
		c-0.6,0.9-0.9,2.4-0.9,4.4v8.2h-4.8V45.2h3.6l0.6,2.2h0.3c0.5-0.8,1.3-1.5,2.2-1.9c0.9-0.4,2-0.6,3.2-0.6c2,0,3.6,0.5,4.6,1.6
		c1.1,1.1,1.6,2.7,1.6,4.8V62.7z"/>
	<path class="st0" d="M166.4,63c-2.1,0-3.7-0.8-4.8-2.4c-1.2-1.6-1.8-3.8-1.8-6.6c0-2.9,0.6-5.1,1.8-6.7c1.2-1.6,2.8-2.4,4.9-2.4
		c2.2,0,3.9,0.9,5,2.6h0.2c-0.2-1.3-0.4-2.5-0.4-3.5v-5.6h4.8v24.3h-3.7l-0.9-2.3h-0.2C170.2,62.1,168.6,63,166.4,63z M168,59.2
		c1.2,0,2.1-0.4,2.7-1.1s0.9-1.9,0.9-3.6V54c0-1.9-0.3-3.2-0.9-4c-0.6-0.8-1.5-1.2-2.8-1.2c-1.1,0-1.9,0.5-2.5,1.4s-0.9,2.2-0.9,3.9
		c0,1.7,0.3,3,0.9,3.9C166.1,58.8,166.9,59.2,168,59.2z"/>
	<path class="st0" d="M198.6,62.7h-4.8V43.9h-6.2v-4h17.2v4h-6.2V62.7z"/>
	<path class="st0" d="M222.7,53.9c0,2.8-0.7,5.1-2.2,6.7c-1.5,1.6-3.6,2.4-6.3,2.4c-1.7,0-3.2-0.4-4.4-1.1c-1.3-0.7-2.3-1.8-3-3.2
		c-0.7-1.4-1-3-1-4.8c0-2.9,0.7-5.1,2.2-6.7c1.5-1.6,3.6-2.4,6.3-2.4c1.7,0,3.2,0.4,4.4,1.1c1.3,0.7,2.3,1.8,3,3.1
		C222.4,50.5,222.7,52.1,222.7,53.9z M210.6,53.9c0,1.7,0.3,3,0.9,3.9s1.5,1.3,2.8,1.3c1.3,0,2.2-0.4,2.7-1.3
		c0.6-0.9,0.8-2.2,0.8-3.9c0-1.7-0.3-3-0.8-3.9c-0.6-0.9-1.5-1.3-2.8-1.3c-1.3,0-2.2,0.4-2.7,1.3S210.6,52.2,210.6,53.9z"/>
	<path class="st0" d="M242.7,62.7H238V52.5c0-1.3-0.2-2.2-0.7-2.8c-0.4-0.6-1.2-0.9-2.1-0.9c-1.3,0-2.3,0.4-2.9,1.3
		c-0.6,0.9-0.9,2.4-0.9,4.4v8.2h-4.8V45.2h3.6l0.6,2.2h0.3c0.5-0.8,1.3-1.5,2.2-1.9s2-0.6,3.2-0.6c2,0,3.6,0.5,4.6,1.6
		c1.1,1.1,1.6,2.7,1.6,4.8V62.7z"/>
	<path class="st0" d="M262.9,62.7c0,2.5-0.7,4.4-2.2,5.7c-1.5,1.3-3.6,1.9-6.5,1.9c-2.6,0-4.7-0.3-6.5-1v-3.8
		c2.1,0.9,4.4,1.3,6.8,1.3c2.4,0,3.7-1.3,3.7-4v-0.3l0.1-2.1h-0.1c-1.1,1.7-2.8,2.6-5,2.6c-2.1,0-3.7-0.8-4.9-2.4s-1.7-3.8-1.7-6.6
		c0-2.9,0.6-5.1,1.8-6.7c1.2-1.6,2.8-2.4,4.9-2.4c2.1,0,3.8,0.9,5.1,2.6h0.1l0.4-2.2h4V62.7z M254.9,59.3c1.3,0,2.2-0.4,2.7-1.1
		s0.8-1.9,0.8-3.6V54c0-1.9-0.3-3.2-0.9-4c-0.6-0.8-1.5-1.2-2.8-1.2c-2.2,0-3.4,1.8-3.4,5.3c0,1.8,0.3,3.1,0.8,3.9
		C252.8,58.8,253.7,59.3,254.9,59.3z"/>
	<path class="st0" d="M281.3,62.7h-4.8V39.9h13.1v4h-8.3v5.9h7.7v4h-7.7V62.7z"/>
	<path class="st0" d="M304.8,62.7l-0.9-2.4h-0.1c-0.8,1-1.6,1.7-2.5,2.1s-2,0.6-3.3,0.6c-1.7,0-3-0.5-4-1.4c-1-1-1.4-2.3-1.4-4.1
		c0-1.9,0.6-3.2,1.9-4.1c1.3-0.9,3.3-1.4,5.9-1.5l3-0.1v-0.8c0-1.8-0.9-2.7-2.7-2.7c-1.4,0-3,0.4-4.9,1.3l-1.6-3.2
		c2-1.1,4.2-1.6,6.7-1.6c2.3,0,4.1,0.5,5.4,1.5c1.2,1,1.9,2.6,1.9,4.7v11.6H304.8z M303.4,54.6l-1.8,0.1c-1.4,0-2.4,0.3-3.1,0.8
		s-1,1.2-1,2.1c0,1.3,0.8,2,2.3,2c1.1,0,2-0.3,2.6-1c0.7-0.6,1-1.5,1-2.5V54.6z"/>
	<path class="st0" d="M328.7,62.7H324V52.5c0-1.3-0.2-2.2-0.6-2.8s-1.1-0.9-2-0.9c-1.2,0-2.1,0.4-2.7,1.3s-0.8,2.4-0.8,4.4v8.2h-4.8
		V45.2h3.6l0.6,2.2h0.3c0.5-0.8,1.1-1.4,2-1.9c0.9-0.5,1.9-0.7,3-0.7c2.6,0,4.4,0.9,5.3,2.6h0.4c0.5-0.8,1.2-1.4,2.1-1.9
		s1.9-0.7,3.1-0.7c2,0,3.5,0.5,4.5,1.5c1,1,1.5,2.6,1.5,4.9v11.4h-4.8V52.5c0-1.3-0.2-2.2-0.6-2.8s-1.1-0.9-2-0.9
		c-1.2,0-2,0.4-2.6,1.2c-0.6,0.8-0.9,2.2-0.9,4V62.7z"/>
	<path class="st0" d="M344.3,40.7c0-1.6,0.9-2.3,2.6-2.3s2.6,0.8,2.6,2.3c0,0.7-0.2,1.3-0.6,1.7c-0.4,0.4-1.1,0.6-1.9,0.6
		C345.2,43.1,344.3,42.3,344.3,40.7z M349.3,62.7h-4.8V45.2h4.8V62.7z"/>
	<path class="st0" d="M359,62.7h-4.8V38.4h4.8V62.7z"/>
	<path class="st0" d="M363.8,40.7c0-1.6,0.9-2.3,2.6-2.3s2.6,0.8,2.6,2.3c0,0.7-0.2,1.3-0.6,1.7c-0.4,0.4-1.1,0.6-1.9,0.6
		C364.7,43.1,363.8,42.3,363.8,40.7z M368.8,62.7H364V45.2h4.8V62.7z"/>
	<path class="st0" d="M381.7,63c-2.8,0-5-0.8-6.6-2.3c-1.6-1.6-2.4-3.7-2.4-6.6c0-2.9,0.7-5.2,2.2-6.8c1.5-1.6,3.5-2.4,6.1-2.4
		c2.5,0,4.4,0.7,5.8,2.1c1.4,1.4,2.1,3.3,2.1,5.8v2.3h-11.3c0.1,1.4,0.5,2.4,1.2,3.2s1.8,1.1,3.2,1.1c1.1,0,2-0.1,3-0.3
		c0.9-0.2,1.9-0.6,2.9-1v3.7c-0.8,0.4-1.7,0.7-2.7,0.9C384.2,62.9,383,63,381.7,63z M381,48.3c-1,0-1.8,0.3-2.4,1
		c-0.6,0.6-0.9,1.5-1,2.7h6.7c0-1.2-0.3-2.1-0.9-2.7C382.8,48.6,382,48.3,381,48.3z"/>
	<path class="st0" d="M404.9,57.5c0,1.8-0.6,3.2-1.9,4.1c-1.2,0.9-3.1,1.4-5.6,1.4c-1.3,0-2.4-0.1-3.2-0.3s-1.7-0.4-2.5-0.8V58
		c0.9,0.4,1.9,0.8,3,1c1.1,0.3,2.1,0.4,2.9,0.4c1.7,0,2.6-0.5,2.6-1.5c0-0.4-0.1-0.7-0.3-0.9s-0.6-0.5-1.2-0.8
		c-0.6-0.3-1.3-0.6-2.2-1c-1.3-0.6-2.3-1.1-3-1.6c-0.6-0.5-1.1-1-1.4-1.6c-0.3-0.6-0.4-1.4-0.4-2.3c0-1.6,0.6-2.8,1.8-3.6
		c1.2-0.8,2.9-1.3,5.1-1.3c2.1,0,4.1,0.5,6.1,1.4l-1.4,3.4c-0.9-0.4-1.7-0.7-2.5-0.9c-0.8-0.2-1.5-0.4-2.3-0.4
		c-1.4,0-2.1,0.4-2.1,1.1c0,0.4,0.2,0.8,0.7,1.1s1.4,0.8,3,1.4c1.4,0.6,2.4,1.1,3,1.5c0.6,0.5,1.1,1,1.4,1.7S404.9,56.6,404.9,57.5z
		"/>
</g>
</svg>
