<?xml version="1.0" encoding="utf-8"?>
<!-- Generator: Adobe Illustrator 22.0.1, SVG Export Plug-In . SVG Version: 6.00 Build 0)  -->
<svg version="1.1" id="Layer_1" xmlns="http://www.w3.org/2000/svg" xmlns:xlink="http://www.w3.org/1999/xlink" x="0px" y="0px"
	 viewBox="0 0 658.7 83" style="enable-background:new 0 0 658.7 83;" xml:space="preserve">
<style type="text/css">
	.st0{fill:#FFFFFF;}
</style>
<g>
	<path class="st0" d="M77.3,18.5h-3.7V4.2h-4.7V1.1H82v3.1h-4.7V18.5z"/>
	<path class="st0" d="M96.7,18.5h-3.6v-7.8c0-1.9-0.7-2.9-2.1-2.9c-1,0-1.8,0.3-2.2,1c-0.5,0.7-0.7,1.8-0.7,3.4v6.3h-3.6V0H88v3.8
		c0,0.3,0,1-0.1,2.1l-0.1,1.1h0.2c0.8-1.3,2.1-2,3.9-2c1.6,0,2.8,0.4,3.6,1.3c0.8,0.8,1.2,2,1.2,3.6V18.5z"/>
	<path class="st0" d="M106.5,18.8c-2.1,0-3.8-0.6-5-1.8c-1.2-1.2-1.8-2.9-1.8-5c0-2.2,0.6-4,1.7-5.2c1.1-1.2,2.7-1.8,4.6-1.8
		c1.9,0,3.3,0.5,4.4,1.6c1,1.1,1.6,2.6,1.6,4.4v1.8h-8.6c0,1,0.3,1.8,0.9,2.4c0.6,0.6,1.4,0.9,2.4,0.9c0.8,0,1.6-0.1,2.3-0.3
		s1.5-0.4,2.2-0.8v2.8c-0.6,0.3-1.3,0.6-2,0.7S107.5,18.8,106.5,18.8z M106,7.6c-0.8,0-1.4,0.2-1.8,0.7c-0.4,0.5-0.7,1.2-0.8,2.1
		h5.1c0-0.9-0.3-1.6-0.7-2.1C107.3,7.8,106.7,7.6,106,7.6z"/>
	<path class="st0" d="M128.1,8.8h6.9v9c-1.1,0.4-2.2,0.6-3.2,0.8c-1,0.1-2,0.2-3,0.2c-2.6,0-4.6-0.8-6-2.3s-2.1-3.8-2.1-6.7
		c0-2.8,0.8-5,2.4-6.6c1.6-1.6,3.8-2.4,6.7-2.4c1.8,0,3.5,0.4,5.2,1.1l-1.2,3c-1.3-0.6-2.6-1-4-1c-1.6,0-2.9,0.5-3.8,1.6
		c-1,1.1-1.4,2.5-1.4,4.3c0,1.9,0.4,3.3,1.2,4.3s1.9,1.5,3.4,1.5c0.8,0,1.6-0.1,2.3-0.2v-3.6h-3.3V8.8z"/>
	<path class="st0" d="M144.9,18.8c-2.1,0-3.8-0.6-5-1.8c-1.2-1.2-1.8-2.9-1.8-5c0-2.2,0.6-4,1.7-5.2c1.1-1.2,2.7-1.8,4.6-1.8
		c1.9,0,3.3,0.5,4.4,1.6c1,1.1,1.6,2.6,1.6,4.4v1.8h-8.6c0,1,0.3,1.8,0.9,2.4c0.6,0.6,1.4,0.9,2.4,0.9c0.8,0,1.6-0.1,2.3-0.3
		s1.5-0.4,2.2-0.8v2.8c-0.6,0.3-1.3,0.6-2,0.7S146,18.8,144.9,18.8z M144.4,7.6c-0.8,0-1.4,0.2-1.8,0.7c-0.4,0.5-0.7,1.2-0.8,2.1
		h5.1c0-0.9-0.3-1.6-0.7-2.1C145.8,7.8,145.2,7.6,144.4,7.6z"/>
	<path class="st0" d="M160.7,5c0.5,0,0.9,0,1.2,0.1l-0.3,3.4c-0.3-0.1-0.7-0.1-1.1-0.1c-1.2,0-2.1,0.3-2.7,0.9c-0.6,0.6-1,1.4-1,2.5
		v6.8h-3.6V5.2h2.8l0.5,2.2h0.2c0.4-0.7,1-1.3,1.7-1.8C159.2,5.2,159.9,5,160.7,5z"/>
	<path class="st0" d="M173.7,14.6c0,1.4-0.5,2.4-1.4,3.1c-0.9,0.7-2.4,1.1-4.3,1.1c-1,0-1.8-0.1-2.5-0.2c-0.7-0.1-1.3-0.3-1.9-0.6
		v-3c0.7,0.3,1.4,0.6,2.3,0.8c0.8,0.2,1.6,0.3,2.2,0.3c1.3,0,2-0.4,2-1.1c0-0.3-0.1-0.5-0.3-0.7s-0.5-0.4-0.9-0.6
		c-0.4-0.2-1-0.5-1.7-0.8c-1-0.4-1.8-0.8-2.3-1.2c-0.5-0.4-0.8-0.8-1-1.3c-0.2-0.5-0.3-1.1-0.3-1.7c0-1.2,0.5-2.1,1.4-2.7
		c0.9-0.6,2.2-1,3.9-1c1.6,0,3.2,0.3,4.7,1l-1.1,2.6c-0.7-0.3-1.3-0.5-1.9-0.7s-1.2-0.3-1.8-0.3c-1.1,0-1.6,0.3-1.6,0.9
		c0,0.3,0.2,0.6,0.5,0.8s1.1,0.6,2.3,1.1c1,0.4,1.8,0.8,2.3,1.2s0.8,0.8,1.1,1.3S173.7,13.9,173.7,14.6z"/>
	<path class="st0" d="M182.1,15.9c0.6,0,1.4-0.1,2.3-0.4v2.7c-0.9,0.4-2,0.6-3.3,0.6c-1.5,0-2.5-0.4-3.2-1.1s-1-1.8-1-3.3V8h-1.7
		V6.4l2-1.2l1-2.8h2.3v2.8h3.7V8h-3.7v6.4c0,0.5,0.1,0.9,0.4,1.1C181.3,15.8,181.7,15.9,182.1,15.9z"/>
	<path class="st0" d="M193.2,18.8c-2.1,0-3.8-0.6-5-1.8c-1.2-1.2-1.8-2.9-1.8-5c0-2.2,0.6-4,1.7-5.2c1.1-1.2,2.7-1.8,4.6-1.8
		c1.9,0,3.3,0.5,4.4,1.6c1,1.1,1.6,2.6,1.6,4.4v1.8H190c0,1,0.3,1.8,0.9,2.4c0.6,0.6,1.4,0.9,2.4,0.9c0.8,0,1.6-0.1,2.3-0.3
		s1.5-0.4,2.2-0.8v2.8c-0.6,0.3-1.3,0.6-2,0.7S194.2,18.8,193.2,18.8z M192.6,7.6c-0.8,0-1.4,0.2-1.8,0.7c-0.4,0.5-0.7,1.2-0.8,2.1
		h5.1c0-0.9-0.3-1.6-0.7-2.1C194,7.8,193.4,7.6,192.6,7.6z"/>
	<path class="st0" d="M201.4,1.8c0-1.2,0.7-1.8,2-1.8s2,0.6,2,1.8c0,0.6-0.2,1-0.5,1.3c-0.3,0.3-0.8,0.5-1.5,0.5
		C202.1,3.6,201.4,3,201.4,1.8z M205.2,18.5h-3.6V5.2h3.6V18.5z"/>
	<path class="st0" d="M221.3,18.5h-3.6v-7.8c0-1-0.2-1.7-0.5-2.2c-0.3-0.5-0.9-0.7-1.6-0.7c-1,0-1.8,0.3-2.2,1
		c-0.5,0.7-0.7,1.8-0.7,3.4v6.3H209V5.2h2.8l0.5,1.7h0.2c0.4-0.6,1-1.1,1.7-1.5c0.7-0.3,1.5-0.5,2.4-0.5c1.5,0,2.7,0.4,3.5,1.3
		c0.8,0.8,1.2,2,1.2,3.6V18.5z"/>
	<path class="st0" d="M228.4,15.1l0.2,0.3c-0.1,0.5-0.2,0.9-0.4,1.5c-0.2,0.5-0.3,1-0.5,1.5c-0.2,0.5-0.4,1-0.6,1.6s-0.4,1-0.6,1.5
		h-2.6c0.1-0.5,0.2-1.1,0.4-1.6c0.1-0.6,0.2-1.1,0.3-1.7c0.1-0.5,0.2-1.1,0.3-1.6s0.2-1,0.2-1.5H228.4z"/>
	<path class="st0" d="M253,18.5h-3.7V11h-6.9v7.5h-3.7V1.1h3.7V8h6.9V1.1h3.7V18.5z"/>
	<path class="st0" d="M265.6,18.5l-0.7-1.8h-0.1c-0.6,0.8-1.2,1.3-1.9,1.6c-0.6,0.3-1.5,0.4-2.5,0.4c-1.3,0-2.3-0.4-3-1.1
		c-0.7-0.7-1.1-1.8-1.1-3.1c0-1.4,0.5-2.5,1.5-3.1s2.5-1,4.5-1.1l2.3-0.1V9.7c0-1.4-0.7-2-2.1-2c-1.1,0-2.3,0.3-3.8,1l-1.2-2.5
		c1.5-0.8,3.2-1.2,5.1-1.2c1.8,0,3.2,0.4,4.1,1.2c1,0.8,1.4,2,1.4,3.6v8.9H265.6z M264.5,12.4l-1.4,0c-1.1,0-1.8,0.2-2.4,0.6
		c-0.5,0.3-0.8,0.9-0.8,1.6c0,1,0.6,1.5,1.8,1.5c0.8,0,1.5-0.2,2-0.7c0.5-0.5,0.8-1.1,0.8-1.9V12.4z"/>
	<path class="st0" d="M283.5,18.6c0,1.9-0.6,3.4-1.7,4.4c-1.1,1-2.8,1.5-5,1.5c-1.9,0-3.6-0.3-5-0.8v-2.9c1.6,0.7,3.3,1,5.2,1
		c1.9,0,2.8-1,2.8-3v-0.3l0.1-1.6h-0.1c-0.9,1.3-2.1,2-3.8,2c-1.6,0-2.8-0.6-3.7-1.8c-0.9-1.2-1.3-2.9-1.3-5c0-2.2,0.5-3.9,1.4-5.1
		c0.9-1.2,2.2-1.8,3.8-1.8c1.6,0,2.9,0.7,3.9,2h0.1l0.3-1.7h3.1V18.6z M277.4,15.9c1,0,1.7-0.3,2.1-0.8c0.4-0.6,0.6-1.5,0.6-2.7
		v-0.4c0-1.4-0.2-2.4-0.7-3.1s-1.2-0.9-2.1-0.9c-1.7,0-2.6,1.3-2.6,4c0,1.3,0.2,2.3,0.6,3C275.9,15.6,276.5,15.9,277.4,15.9z"/>
	<path class="st0" d="M295.8,18.5l-0.7-1.8H295c-0.6,0.8-1.2,1.3-1.9,1.6c-0.6,0.3-1.5,0.4-2.5,0.4c-1.3,0-2.3-0.4-3-1.1
		c-0.7-0.7-1.1-1.8-1.1-3.1c0-1.4,0.5-2.5,1.5-3.1s2.5-1,4.5-1.1l2.3-0.1V9.7c0-1.4-0.7-2-2.1-2c-1.1,0-2.3,0.3-3.8,1l-1.2-2.5
		c1.5-0.8,3.2-1.2,5.1-1.2c1.8,0,3.2,0.4,4.1,1.2c1,0.8,1.4,2,1.4,3.6v8.9H295.8z M294.7,12.4l-1.4,0c-1.1,0-1.8,0.2-2.4,0.6
		c-0.5,0.3-0.8,0.9-0.8,1.6c0,1,0.6,1.5,1.8,1.5c0.8,0,1.5-0.2,2-0.7c0.5-0.5,0.8-1.1,0.8-1.9V12.4z"/>
	<path class="st0" d="M314.4,18.5h-3.6v-7.8c0-1-0.2-1.7-0.5-2.2c-0.3-0.5-0.9-0.7-1.6-0.7c-1,0-1.8,0.3-2.2,1
		c-0.5,0.7-0.7,1.8-0.7,3.4v6.3h-3.6V5.2h2.8l0.5,1.7h0.2c0.4-0.6,1-1.1,1.7-1.5c0.7-0.3,1.5-0.5,2.4-0.5c1.5,0,2.7,0.4,3.5,1.3
		c0.8,0.8,1.2,2,1.2,3.6V18.5z"/>
	<path class="st0" d="M321.5,15.1l0.2,0.3c-0.1,0.5-0.2,0.9-0.4,1.5c-0.2,0.5-0.3,1-0.5,1.5c-0.2,0.5-0.4,1-0.6,1.6s-0.4,1-0.6,1.5
		H317c0.1-0.5,0.2-1.1,0.4-1.6c0.1-0.6,0.2-1.1,0.3-1.7c0.1-0.5,0.2-1.1,0.3-1.6s0.2-1,0.2-1.5H321.5z"/>
	<path class="st0" d="M339.2,18.5L335,4.9h-0.1c0.2,2.8,0.2,4.6,0.2,5.6v8.1h-3.3V1.1h5l4.1,13.3h0.1l4.4-13.3h5v17.4H347v-8.2
		c0-0.4,0-0.8,0-1.3c0-0.5,0.1-1.9,0.2-4.1h-0.1l-4.5,13.6H339.2z"/>
	<path class="st0" d="M366.7,11.9c0,2.2-0.6,3.9-1.7,5.1c-1.1,1.2-2.7,1.8-4.8,1.8c-1.3,0-2.4-0.3-3.4-0.8c-1-0.6-1.7-1.4-2.3-2.4
		s-0.8-2.3-0.8-3.7c0-2.2,0.6-3.9,1.7-5.1c1.1-1.2,2.7-1.8,4.8-1.8c1.3,0,2.4,0.3,3.4,0.8c1,0.6,1.7,1.4,2.3,2.4
		C366.4,9.2,366.7,10.5,366.7,11.9z M357.5,11.9c0,1.3,0.2,2.3,0.7,3c0.4,0.7,1.1,1,2.1,1c1,0,1.7-0.3,2.1-1c0.4-0.7,0.6-1.7,0.6-3
		c0-1.3-0.2-2.3-0.6-3c-0.4-0.7-1.1-1-2.1-1c-1,0-1.7,0.3-2.1,1C357.7,9.5,357.5,10.5,357.5,11.9z"/>
	<path class="st0" d="M379,14.6c0,1.4-0.5,2.4-1.4,3.1c-1,0.7-2.4,1.1-4.3,1.1c-1,0-1.8-0.1-2.5-0.2c-0.7-0.1-1.3-0.3-1.9-0.6v-3
		c0.7,0.3,1.4,0.6,2.3,0.8c0.8,0.2,1.6,0.3,2.2,0.3c1.3,0,2-0.4,2-1.1c0-0.3-0.1-0.5-0.3-0.7s-0.5-0.4-0.9-0.6s-1-0.5-1.7-0.8
		c-1-0.4-1.8-0.8-2.3-1.2c-0.5-0.4-0.8-0.8-1-1.3c-0.2-0.5-0.3-1.1-0.3-1.7c0-1.2,0.5-2.1,1.4-2.7c0.9-0.6,2.2-1,3.9-1
		c1.6,0,3.2,0.3,4.7,1l-1.1,2.6c-0.7-0.3-1.3-0.5-1.9-0.7s-1.2-0.3-1.8-0.3c-1.1,0-1.6,0.3-1.6,0.9c0,0.3,0.2,0.6,0.5,0.8
		s1.1,0.6,2.3,1.1c1,0.4,1.8,0.8,2.3,1.2c0.5,0.4,0.8,0.8,1.1,1.3S379,13.9,379,14.6z"/>
	<path class="st0" d="M385.3,11.3l1.6-2l3.7-4.1h4.1l-5.3,5.8l5.6,7.5h-4.2l-3.8-5.4l-1.6,1.3v4.1h-3.6V0h3.6v8.3L385.3,11.3
		L385.3,11.3z"/>
	<path class="st0" d="M408.8,11.9c0,2.2-0.6,3.9-1.7,5.1c-1.1,1.2-2.7,1.8-4.8,1.8c-1.3,0-2.4-0.3-3.4-0.8c-1-0.6-1.7-1.4-2.3-2.4
		s-0.8-2.3-0.8-3.7c0-2.2,0.6-3.9,1.7-5.1s2.7-1.8,4.8-1.8c1.3,0,2.4,0.3,3.4,0.8c1,0.6,1.7,1.4,2.3,2.4S408.8,10.5,408.8,11.9z
		 M399.6,11.9c0,1.3,0.2,2.3,0.6,3c0.4,0.7,1.1,1,2.1,1c1,0,1.7-0.3,2.1-1c0.4-0.7,0.6-1.7,0.6-3c0-1.3-0.2-2.3-0.6-3
		c-0.4-0.7-1.1-1-2.1-1c-1,0-1.7,0.3-2.1,1C399.8,9.5,399.6,10.5,399.6,11.9z"/>
	<path class="st0" d="M422.6,18.5l-1-4.7L420.2,8h-0.1l-2.4,10.5h-3.9l-3.8-13.3h3.6l1.5,5.9c0.2,0.7,0.4,2.2,0.7,4.4h0.1
		c0-0.6,0.2-1.6,0.4-2.9l0.2-1l1.6-6.4h4l1.6,6.4c0.1,0.4,0.2,1.1,0.4,1.9c0.1,0.8,0.2,1.5,0.2,2h0.1c0.1-0.7,0.2-1.5,0.4-2.4
		c0.2-0.9,0.3-1.6,0.4-2l1.6-5.9h3.6l-3.8,13.3H422.6z"/>
	<path class="st0" d="M432.3,1.8c0-1.2,0.7-1.8,2-1.8c1.3,0,2,0.6,2,1.8c0,0.6-0.2,1-0.5,1.3c-0.3,0.3-0.8,0.5-1.5,0.5
		C433,3.6,432.3,3,432.3,1.8z M436.1,18.5h-3.6V5.2h3.6V18.5z"/>
	<path class="st0" d="M445.6,15.9c0.6,0,1.4-0.1,2.3-0.4v2.7c-0.9,0.4-2,0.6-3.3,0.6c-1.5,0-2.5-0.4-3.2-1.1s-1-1.8-1-3.3V8h-1.7
		V6.4l2-1.2l1-2.8h2.3v2.8h3.7V8H444v6.4c0,0.5,0.1,0.9,0.4,1.1C444.7,15.8,445.1,15.9,445.6,15.9z"/>
	<path class="st0" d="M459.8,18.5h-10.5v-2.1l6.2-8.4h-5.8V5.2h9.9v2.4l-6,8.2h6.2V18.5z"/>
	<path class="st0" d="M465.8,15.1l0.2,0.3c-0.1,0.5-0.2,0.9-0.4,1.5s-0.3,1-0.5,1.5s-0.4,1-0.6,1.6c-0.2,0.5-0.4,1-0.6,1.5h-2.6
		c0.1-0.5,0.2-1.1,0.4-1.6c0.1-0.6,0.2-1.1,0.3-1.7c0.1-0.5,0.2-1.1,0.3-1.6c0.1-0.5,0.2-1,0.2-1.5H465.8z"/>
	<path class="st0" d="M490.6,9.7c0,2.9-0.8,5.1-2.5,6.6c-1.6,1.5-4,2.3-7.1,2.3h-4.9V1.1h5.5c2.8,0,5.1,0.8,6.6,2.3
		C489.8,4.9,490.6,7,490.6,9.7z M486.8,9.8c0-3.7-1.7-5.6-5-5.6h-2v11.3h1.6C485,15.5,486.8,13.6,486.8,9.8z"/>
	<path class="st0" d="M500,18.8c-2.1,0-3.8-0.6-5-1.8c-1.2-1.2-1.8-2.9-1.8-5c0-2.2,0.6-4,1.7-5.2c1.1-1.2,2.7-1.8,4.6-1.8
		c1.9,0,3.3,0.5,4.4,1.6c1,1.1,1.6,2.6,1.6,4.4v1.8h-8.6c0,1,0.3,1.8,0.9,2.4s1.4,0.9,2.4,0.9c0.8,0,1.6-0.1,2.3-0.3
		s1.5-0.4,2.2-0.8v2.8c-0.6,0.3-1.3,0.6-2,0.7C501.9,18.7,501,18.8,500,18.8z M499.5,7.6c-0.8,0-1.4,0.2-1.8,0.7
		c-0.4,0.5-0.7,1.2-0.8,2.1h5.1c0-0.9-0.3-1.6-0.7-2.1C500.9,7.8,500.2,7.6,499.5,7.6z"/>
	<path class="st0" d="M512,18.5h-3.6V0h3.6V18.5z"/>
	<path class="st0" d="M534.5,6.6c0,1.9-0.6,3.3-1.8,4.3s-2.8,1.5-5,1.5h-1.6v6.2h-3.7V1.1h5.6c2.1,0,3.7,0.5,4.8,1.4
		S534.5,4.8,534.5,6.6z M526.1,9.3h1.2c1.1,0,2-0.2,2.6-0.7c0.6-0.4,0.8-1.1,0.8-2c0-0.9-0.2-1.5-0.7-1.9c-0.5-0.4-1.2-0.6-2.2-0.6
		h-1.7V9.3z"/>
	<path class="st0" d="M537.3,1.8c0-1.2,0.7-1.8,2-1.8c1.3,0,2,0.6,2,1.8c0,0.6-0.2,1-0.5,1.3c-0.3,0.3-0.8,0.5-1.5,0.5
		C538,3.6,537.3,3,537.3,1.8z M541.1,18.5h-3.6V5.2h3.6V18.5z"/>
	<path class="st0" d="M554.2,18.5h-10.5v-2.1l6.2-8.4h-5.8V5.2h9.9v2.4l-6,8.2h6.2V18.5z"/>
	<path class="st0" d="M566.1,18.5h-10.5v-2.1l6.2-8.4H556V5.2h9.9v2.4l-6,8.2h6.2V18.5z"/>
	<path class="st0" d="M580.9,11.9c0,2.2-0.6,3.9-1.7,5.1c-1.1,1.2-2.7,1.8-4.8,1.8c-1.3,0-2.4-0.3-3.4-0.8c-1-0.6-1.7-1.4-2.3-2.4
		s-0.8-2.3-0.8-3.7c0-2.2,0.6-3.9,1.7-5.1c1.1-1.2,2.7-1.8,4.8-1.8c1.3,0,2.4,0.3,3.4,0.8c1,0.6,1.7,1.4,2.3,2.4
		S580.9,10.5,580.9,11.9z M571.7,11.9c0,1.3,0.2,2.3,0.6,3c0.4,0.7,1.1,1,2.1,1c1,0,1.7-0.3,2.1-1c0.4-0.7,0.6-1.7,0.6-3
		c0-1.3-0.2-2.3-0.6-3c-0.4-0.7-1.1-1-2.1-1c-1,0-1.7,0.3-2.1,1C571.9,9.5,571.7,10.5,571.7,11.9z"/>
	<path class="st0" d="M587.3,15.1l0.2,0.3c-0.1,0.5-0.2,0.9-0.4,1.5s-0.3,1-0.5,1.5s-0.4,1-0.6,1.6c-0.2,0.5-0.4,1-0.6,1.5h-2.6
		c0.1-0.5,0.2-1.1,0.4-1.6c0.1-0.6,0.2-1.1,0.3-1.7c0.1-0.5,0.2-1.1,0.3-1.6c0.1-0.5,0.2-1,0.2-1.5H587.3z"/>
	<path class="st0" d="M47.3,47.8h-3.7v-7.5h-6.9v7.5h-3.7V30.4h3.7v6.8h6.9v-6.8h3.7V47.8z"/>
	<path class="st0" d="M59.9,47.8L59.2,46h-0.1c-0.6,0.8-1.2,1.3-1.9,1.6c-0.6,0.3-1.5,0.4-2.5,0.4c-1.3,0-2.3-0.4-3-1.1
		c-0.7-0.7-1.1-1.8-1.1-3.1c0-1.4,0.5-2.5,1.5-3.1s2.5-1,4.5-1.1l2.3-0.1V39c0-1.4-0.7-2-2.1-2c-1.1,0-2.3,0.3-3.8,1l-1.2-2.5
		c1.5-0.8,3.2-1.2,5.1-1.2c1.8,0,3.2,0.4,4.1,1.2c1,0.8,1.4,2,1.4,3.6v8.9H59.9z M58.8,41.7l-1.4,0c-1.1,0-1.8,0.2-2.4,0.6
		c-0.5,0.3-0.8,0.9-0.8,1.6c0,1,0.6,1.5,1.8,1.5c0.8,0,1.5-0.2,2-0.7c0.5-0.5,0.8-1.1,0.8-1.9V41.7z"/>
	<path class="st0" d="M73.6,34.3c0.5,0,0.9,0,1.2,0.1l-0.3,3.4c-0.3-0.1-0.7-0.1-1.1-0.1c-1.2,0-2.1,0.3-2.7,0.9
		c-0.6,0.6-1,1.4-1,2.5v6.8h-3.6V34.5H69l0.5,2.2h0.2c0.4-0.7,1-1.3,1.7-1.8C72,34.5,72.8,34.3,73.6,34.3z"/>
	<path class="st0" d="M76.2,53.7c-0.9,0-1.7-0.1-2.4-0.3v-2.9c0.6,0.2,1.1,0.2,1.7,0.2c0.6,0,1.1-0.2,1.3-0.5
		c0.3-0.3,0.4-0.8,0.4-1.5V34.5h3.6v14.8c0,1.4-0.4,2.5-1.2,3.3C78.9,53.3,77.7,53.7,76.2,53.7z M77.1,31.1c0-1.2,0.7-1.8,2-1.8
		s2,0.6,2,1.8c0,0.6-0.2,1-0.5,1.3c-0.3,0.3-0.8,0.5-1.5,0.5C77.8,32.9,77.1,32.3,77.1,31.1z"/>
	<path class="st0" d="M96.8,41.2c0,2.2-0.6,3.9-1.7,5.1c-1.1,1.2-2.7,1.8-4.8,1.8c-1.3,0-2.4-0.3-3.4-0.8c-1-0.6-1.7-1.4-2.3-2.4
		s-0.8-2.3-0.8-3.7c0-2.2,0.6-3.9,1.7-5.1c1.1-1.2,2.7-1.8,4.8-1.8c1.3,0,2.4,0.3,3.4,0.8c1,0.6,1.7,1.4,2.3,2.4
		C96.6,38.5,96.8,39.8,96.8,41.2z M87.6,41.2c0,1.3,0.2,2.3,0.6,3s1.1,1,2.1,1c1,0,1.7-0.3,2.1-1c0.4-0.7,0.6-1.7,0.6-3
		c0-1.3-0.2-2.3-0.6-3c-0.4-0.7-1.1-1-2.1-1c-1,0-1.7,0.3-2.1,1C87.8,38.8,87.6,39.8,87.6,41.2z"/>
	<path class="st0" d="M112.2,47.8h-3.6v-7.8c0-1-0.2-1.7-0.5-2.2c-0.3-0.5-0.9-0.7-1.6-0.7c-1,0-1.8,0.3-2.2,1
		c-0.5,0.7-0.7,1.8-0.7,3.4v6.3h-3.6V34.5h2.8l0.5,1.7h0.2c0.4-0.6,1-1.1,1.7-1.5c0.7-0.3,1.5-0.5,2.4-0.5c1.5,0,2.7,0.4,3.5,1.3
		c0.8,0.8,1.2,2,1.2,3.6V47.8z"/>
	<path class="st0" d="M128,41.2c0,2.2-0.6,3.9-1.7,5.1c-1.1,1.2-2.7,1.8-4.8,1.8c-1.3,0-2.4-0.3-3.4-0.8c-1-0.6-1.7-1.4-2.3-2.4
		s-0.8-2.3-0.8-3.7c0-2.2,0.6-3.9,1.7-5.1c1.1-1.2,2.7-1.8,4.8-1.8c1.3,0,2.4,0.3,3.4,0.8c1,0.6,1.7,1.4,2.3,2.4
		C127.7,38.5,128,39.8,128,41.2z M118.8,41.2c0,1.3,0.2,2.3,0.6,3s1.1,1,2.1,1c1,0,1.7-0.3,2.1-1c0.4-0.7,0.6-1.7,0.6-3
		c0-1.3-0.2-2.3-0.6-3c-0.4-0.7-1.1-1-2.1-1c-1,0-1.7,0.3-2.1,1C119,38.8,118.8,39.8,118.8,41.2z"/>
	<path class="st0" d="M134.4,44.4l0.2,0.3c-0.1,0.5-0.2,0.9-0.4,1.5c-0.2,0.5-0.3,1-0.5,1.5c-0.2,0.5-0.4,1-0.6,1.6s-0.4,1-0.6,1.5
		h-2.6c0.1-0.5,0.2-1.1,0.4-1.6c0.1-0.6,0.2-1.1,0.3-1.7c0.1-0.5,0.2-1.1,0.3-1.6s0.2-1,0.2-1.5H134.4z"/>
	<path class="st0" d="M159,47.8h-3.7v-7.5h-6.9v7.5h-3.7V30.4h3.7v6.8h6.9v-6.8h3.7V47.8z"/>
	<path class="st0" d="M172.6,47.8l-0.5-1.7h-0.2c-0.4,0.6-0.9,1.1-1.7,1.4c-0.7,0.3-1.5,0.5-2.4,0.5c-1.6,0-2.7-0.4-3.5-1.3
		c-0.8-0.8-1.2-2-1.2-3.6v-8.7h3.6v7.8c0,1,0.2,1.7,0.5,2.2c0.3,0.5,0.9,0.7,1.6,0.7c1,0,1.8-0.3,2.2-1c0.5-0.7,0.7-1.8,0.7-3.4
		v-6.3h3.6v13.3H172.6z"/>
	<path class="st0" d="M179,31.1c0-1.2,0.7-1.8,2-1.8s2,0.6,2,1.8c0,0.6-0.2,1-0.5,1.3c-0.3,0.3-0.8,0.5-1.5,0.5
		C179.7,32.9,179,32.3,179,31.1z M182.8,47.8h-3.6V34.5h3.6V47.8z"/>
	<path class="st0" d="M190,44.4l0.2,0.3c-0.1,0.5-0.2,0.9-0.4,1.5c-0.2,0.5-0.3,1-0.5,1.5c-0.2,0.5-0.4,1-0.6,1.6s-0.4,1-0.6,1.5
		h-2.6c0.1-0.5,0.2-1.1,0.4-1.6c0.1-0.6,0.2-1.1,0.3-1.7c0.1-0.5,0.2-1.1,0.3-1.6s0.2-1,0.2-1.5H190z"/>
	<path class="st0" d="M207.7,47.8l-4.2-13.7h-0.1c0.2,2.8,0.2,4.6,0.2,5.6v8.1h-3.3V30.4h5l4.1,13.3h0.1l4.4-13.3h5v17.4h-3.4v-8.2
		c0-0.4,0-0.8,0-1.3c0-0.5,0.1-1.9,0.2-4.1h-0.1l-4.5,13.6H207.7z"/>
	<path class="st0" d="M231.5,47.8l-0.7-1.8h-0.1c-0.6,0.8-1.2,1.3-1.9,1.6c-0.6,0.3-1.5,0.4-2.5,0.4c-1.3,0-2.3-0.4-3-1.1
		c-0.7-0.7-1.1-1.8-1.1-3.1c0-1.4,0.5-2.5,1.5-3.1s2.5-1,4.5-1.1l2.3-0.1V39c0-1.4-0.7-2-2.1-2c-1.1,0-2.3,0.3-3.8,1l-1.2-2.5
		c1.5-0.8,3.2-1.2,5.1-1.2c1.8,0,3.2,0.4,4.1,1.2c1,0.8,1.4,2,1.4,3.6v8.9H231.5z M230.4,41.7l-1.4,0c-1.1,0-1.8,0.2-2.4,0.6
		c-0.5,0.3-0.8,0.9-0.8,1.6c0,1,0.6,1.5,1.8,1.5c0.8,0,1.5-0.2,2-0.7c0.5-0.5,0.8-1.1,0.8-1.9V41.7z"/>
	<path class="st0" d="M247.1,47.8h-10.5v-2.1l6.2-8.4h-5.8v-2.8h9.9v2.4l-6,8.2h6.2V47.8z"/>
	<path class="st0" d="M259,47.8h-10.5v-2.1l6.2-8.4h-5.8v-2.8h9.9v2.4l-6,8.2h6.2V47.8z"/>
	<path class="st0" d="M270.1,47.8l-0.7-1.8h-0.1c-0.6,0.8-1.2,1.3-1.9,1.6c-0.6,0.3-1.5,0.4-2.5,0.4c-1.3,0-2.3-0.4-3-1.1
		c-0.7-0.7-1.1-1.8-1.1-3.1c0-1.4,0.5-2.5,1.5-3.1s2.5-1,4.5-1.1l2.3-0.1V39c0-1.4-0.7-2-2.1-2c-1.1,0-2.3,0.3-3.8,1l-1.2-2.5
		c1.5-0.8,3.2-1.2,5.1-1.2c1.8,0,3.2,0.4,4.1,1.2c1,0.8,1.4,2,1.4,3.6v8.9H270.1z M269,41.7l-1.4,0c-1.1,0-1.8,0.2-2.4,0.6
		c-0.5,0.3-0.8,0.9-0.8,1.6c0,1,0.6,1.5,1.8,1.5c0.8,0,1.5-0.2,2-0.7c0.5-0.5,0.8-1.1,0.8-1.9V41.7z"/>
	<path class="st0" d="M279.7,44.4l0.2,0.3c-0.1,0.5-0.2,0.9-0.4,1.5c-0.2,0.5-0.3,1-0.5,1.5c-0.2,0.5-0.4,1-0.6,1.6s-0.4,1-0.6,1.5
		h-2.6c0.1-0.5,0.2-1.1,0.4-1.6c0.1-0.6,0.2-1.1,0.3-1.7c0.1-0.5,0.2-1.1,0.3-1.6s0.2-1,0.2-1.5H279.7z"/>
	<path class="st0" d="M288.2,53c-0.8,0-1.6-0.1-2.2-0.3v-3.1c0.6,0.2,1.2,0.2,1.7,0.2c0.8,0,1.4-0.3,1.7-0.8
		c0.3-0.5,0.5-1.3,0.5-2.4V30.4h3.7v16.3c0,2-0.5,3.6-1.4,4.6C291.4,52.4,290.1,53,288.2,53z"/>
	<path class="st0" d="M307.3,47.8l-0.5-1.7h-0.2c-0.4,0.6-0.9,1.1-1.7,1.4c-0.7,0.3-1.5,0.5-2.4,0.5c-1.6,0-2.7-0.4-3.5-1.3
		c-0.8-0.8-1.2-2-1.2-3.6v-8.7h3.6v7.8c0,1,0.2,1.7,0.5,2.2c0.3,0.5,0.9,0.7,1.6,0.7c1,0,1.8-0.3,2.2-1c0.5-0.7,0.7-1.8,0.7-3.4
		v-6.3h3.6v13.3H307.3z"/>
	<path class="st0" d="M321.3,34.3c0.5,0,0.9,0,1.2,0.1l-0.3,3.4c-0.3-0.1-0.7-0.1-1.1-0.1c-1.2,0-2.1,0.3-2.7,0.9
		c-0.6,0.6-1,1.4-1,2.5v6.8h-3.6V34.5h2.8l0.5,2.2h0.2c0.4-0.7,1-1.3,1.7-1.8C319.8,34.5,320.5,34.3,321.3,34.3z"/>
	<path class="st0" d="M330.2,48.1c-4.1,0-6.2-2.3-6.2-6.8c0-2.3,0.6-4,1.7-5.2c1.1-1.2,2.7-1.8,4.9-1.8c1.5,0,2.9,0.3,4.1,0.9
		l-1.1,2.8c-0.6-0.2-1.1-0.4-1.6-0.6c-0.5-0.1-1-0.2-1.5-0.2c-1.9,0-2.8,1.3-2.8,4c0,2.6,0.9,3.9,2.8,3.9c0.7,0,1.3-0.1,1.9-0.3
		c0.6-0.2,1.2-0.5,1.8-0.9v3.1c-0.6,0.4-1.2,0.6-1.8,0.8C331.8,48,331.1,48.1,330.2,48.1z"/>
	<path class="st0" d="M346.6,47.8h-10.5v-2.1l6.2-8.4h-5.8v-2.8h9.9v2.4l-6,8.2h6.2V47.8z"/>
	<path class="st0" d="M357.7,47.8L357,46h-0.1c-0.6,0.8-1.2,1.3-1.9,1.6c-0.6,0.3-1.5,0.4-2.5,0.4c-1.3,0-2.3-0.4-3-1.1
		c-0.7-0.7-1.1-1.8-1.1-3.1c0-1.4,0.5-2.5,1.5-3.1s2.5-1,4.5-1.1l2.3-0.1V39c0-1.4-0.7-2-2.1-2c-1.1,0-2.3,0.3-3.8,1l-1.2-2.5
		c1.5-0.8,3.2-1.2,5.1-1.2c1.8,0,3.2,0.4,4.1,1.2c1,0.8,1.4,2,1.4,3.6v8.9H357.7z M356.6,41.7l-1.4,0c-1.1,0-1.8,0.2-2.4,0.6
		s-0.8,0.9-0.8,1.6c0,1,0.6,1.5,1.8,1.5c0.8,0,1.5-0.2,2-0.7c0.5-0.5,0.8-1.1,0.8-1.9V41.7z"/>
	<path class="st0" d="M367.5,40.6l1.6-2l3.7-4.1h4.1l-5.3,5.8l5.6,7.5H373l-3.8-5.4l-1.6,1.3v4.1H364V29.3h3.6v8.3L367.5,40.6
		L367.5,40.6z"/>
	<path class="st0" d="M382.5,44.4l0.2,0.3c-0.1,0.5-0.2,0.9-0.4,1.5s-0.3,1-0.5,1.5s-0.4,1-0.6,1.6c-0.2,0.5-0.4,1-0.6,1.5h-2.6
		c0.1-0.5,0.2-1.1,0.4-1.6c0.1-0.6,0.2-1.1,0.3-1.7c0.1-0.5,0.2-1.1,0.3-1.6c0.1-0.5,0.2-1,0.2-1.5H382.5z"/>
	<path class="st0" d="M392.8,30.4h5.4c2.5,0,4.3,0.4,5.4,1.1c1.1,0.7,1.7,1.8,1.7,3.4c0,1-0.2,1.9-0.7,2.6c-0.5,0.7-1.1,1.1-1.9,1.2
		v0.1c1.1,0.2,1.9,0.7,2.4,1.4c0.5,0.7,0.7,1.6,0.7,2.7c0,1.6-0.6,2.8-1.7,3.7s-2.7,1.3-4.7,1.3h-6.5V30.4z M396.5,37.3h2.1
		c1,0,1.7-0.2,2.2-0.5c0.4-0.3,0.7-0.8,0.7-1.5c0-0.7-0.2-1.1-0.7-1.4c-0.5-0.3-1.3-0.4-2.3-0.4h-1.9V37.3z M396.5,40.3v4.5h2.4
		c1,0,1.8-0.2,2.3-0.6c0.5-0.4,0.7-1,0.7-1.8c0-1.4-1-2.2-3.1-2.2H396.5z"/>
	<path class="st0" d="M412.6,47.8h-3.6V29.3h3.6V47.8z"/>
	<path class="st0" d="M422.4,48.1c-2.1,0-3.8-0.6-5-1.8c-1.2-1.2-1.8-2.9-1.8-5c0-2.2,0.6-4,1.7-5.2c1.1-1.2,2.7-1.8,4.6-1.8
		c1.9,0,3.3,0.5,4.4,1.6c1,1.1,1.6,2.6,1.6,4.4v1.8h-8.6c0,1,0.3,1.8,0.9,2.4c0.6,0.6,1.4,0.9,2.4,0.9c0.8,0,1.6-0.1,2.3-0.3
		s1.5-0.4,2.2-0.8v2.8c-0.6,0.3-1.3,0.6-2,0.7C424.3,48,423.4,48.1,422.4,48.1z M421.9,36.9c-0.8,0-1.4,0.2-1.8,0.7
		c-0.4,0.5-0.7,1.2-0.8,2.1h5.1c0-0.9-0.3-1.6-0.7-2.1C423.3,37.1,422.7,36.9,421.9,36.9z"/>
	<path class="st0" d="M436.2,48.1c-4.1,0-6.2-2.3-6.2-6.8c0-2.3,0.6-4,1.7-5.2c1.1-1.2,2.7-1.8,4.9-1.8c1.5,0,2.9,0.3,4.1,0.9
		l-1.1,2.8c-0.6-0.2-1.1-0.4-1.6-0.6c-0.5-0.1-1-0.2-1.5-0.2c-1.9,0-2.8,1.3-2.8,4c0,2.6,0.9,3.9,2.8,3.9c0.7,0,1.3-0.1,1.9-0.3
		c0.6-0.2,1.2-0.5,1.8-0.9v3.1c-0.6,0.4-1.2,0.6-1.8,0.8C437.9,48,437.1,48.1,436.2,48.1z"/>
	<path class="st0" d="M455.7,47.8H452v-7.8c0-1.9-0.7-2.9-2.1-2.9c-1,0-1.8,0.3-2.2,1S447,40,447,41.6v6.3h-3.6V29.3h3.6v3.8
		c0,0.3,0,1-0.1,2.1l-0.1,1.1h0.2c0.8-1.3,2.1-2,3.9-2c1.6,0,2.8,0.4,3.6,1.3c0.8,0.8,1.2,2,1.2,3.6V47.8z"/>
	<path class="st0" d="M459.2,31.1c0-1.2,0.7-1.8,2-1.8c1.3,0,2,0.6,2,1.8c0,0.6-0.2,1-0.5,1.3c-0.3,0.3-0.8,0.5-1.5,0.5
		C459.9,32.9,459.2,32.3,459.2,31.1z M463,47.8h-3.6V34.5h3.6V47.8z"/>
	<path class="st0" d="M479.1,47.8h-3.6v-7.8c0-1-0.2-1.7-0.5-2.2c-0.3-0.5-0.9-0.7-1.6-0.7c-1,0-1.8,0.3-2.2,1s-0.7,1.8-0.7,3.4v6.3
		h-3.6V34.5h2.8l0.5,1.7h0.2c0.4-0.6,1-1.1,1.7-1.5c0.7-0.3,1.5-0.5,2.4-0.5c1.5,0,2.7,0.4,3.5,1.3c0.8,0.8,1.2,2,1.2,3.6V47.8z"/>
	<path class="st0" d="M494.5,47.9c0,1.9-0.6,3.4-1.7,4.4c-1.1,1-2.8,1.5-5,1.5c-1.9,0-3.6-0.3-5-0.8V50c1.6,0.7,3.3,1,5.2,1
		c1.9,0,2.8-1,2.8-3v-0.3l0.1-1.6h-0.1c-0.9,1.3-2.1,2-3.8,2c-1.6,0-2.8-0.6-3.7-1.8c-0.9-1.2-1.3-2.9-1.3-5c0-2.2,0.5-3.9,1.4-5.1
		c0.9-1.2,2.2-1.8,3.8-1.8c1.6,0,2.9,0.7,3.9,2h0.1l0.3-1.7h3.1V47.9z M488.4,45.2c1,0,1.7-0.3,2.1-0.8c0.4-0.6,0.6-1.5,0.6-2.7
		v-0.4c0-1.4-0.2-2.4-0.7-3.1c-0.4-0.6-1.2-0.9-2.1-0.9c-1.7,0-2.6,1.3-2.6,4c0,1.3,0.2,2.3,0.6,3C486.9,44.9,487.5,45.2,488.4,45.2
		z"/>
	<path class="st0" d="M504.4,48.1c-2.1,0-3.8-0.6-5-1.8c-1.2-1.2-1.8-2.9-1.8-5c0-2.2,0.6-4,1.7-5.2c1.1-1.2,2.7-1.8,4.6-1.8
		c1.9,0,3.3,0.5,4.4,1.6c1,1.1,1.6,2.6,1.6,4.4v1.8h-8.6c0,1,0.3,1.8,0.9,2.4s1.4,0.9,2.4,0.9c0.8,0,1.6-0.1,2.3-0.3
		s1.5-0.4,2.2-0.8v2.8c-0.6,0.3-1.3,0.6-2,0.7C506.3,48,505.4,48.1,504.4,48.1z M503.9,36.9c-0.8,0-1.4,0.2-1.8,0.7
		c-0.4,0.5-0.7,1.2-0.8,2.1h5.1c0-0.9-0.3-1.6-0.7-2.1C505.2,37.1,504.6,36.9,503.9,36.9z"/>
	<path class="st0" d="M520.2,34.3c0.5,0,0.9,0,1.2,0.1l-0.3,3.4c-0.3-0.1-0.7-0.1-1.1-0.1c-1.2,0-2.1,0.3-2.7,0.9s-1,1.4-1,2.5v6.8
		h-3.6V34.5h2.8l0.5,2.2h0.2c0.4-0.7,1-1.3,1.7-1.8S519.4,34.3,520.2,34.3z"/>
	<path class="st0" d="M523.2,42.1v-3h6.4v3H523.2z"/>
	<path class="st0" d="M543.4,43c0,1.6-0.6,2.8-1.7,3.7c-1.1,0.9-2.7,1.4-4.7,1.4c-1.9,0-3.5-0.3-4.9-1v-3.4c1.2,0.5,2.2,0.9,3,1.1
		c0.8,0.2,1.6,0.3,2.2,0.3c0.8,0,1.4-0.2,1.9-0.5c0.4-0.3,0.6-0.8,0.6-1.4c0-0.3-0.1-0.6-0.3-0.9c-0.2-0.3-0.5-0.5-0.8-0.8
		s-1.1-0.6-2.3-1.2c-1.1-0.5-1.9-1-2.4-1.4s-1-1-1.3-1.6c-0.3-0.6-0.5-1.3-0.5-2.1c0-1.5,0.5-2.8,1.6-3.6c1-0.9,2.5-1.3,4.3-1.3
		c0.9,0,1.8,0.1,2.6,0.3c0.8,0.2,1.7,0.5,2.6,0.9l-1.2,2.9c-0.9-0.4-1.7-0.6-2.3-0.8c-0.6-0.2-1.2-0.2-1.8-0.2
		c-0.7,0-1.2,0.2-1.6,0.5c-0.4,0.3-0.6,0.8-0.6,1.3c0,0.3,0.1,0.6,0.2,0.9c0.2,0.2,0.4,0.5,0.7,0.7c0.3,0.2,1.1,0.6,2.3,1.2
		c1.6,0.8,2.7,1.6,3.3,2.3C543.1,40.9,543.4,41.9,543.4,43z"/>
	<path class="st0" d="M549.9,47.8h-3.6V29.3h3.6V47.8z"/>
	<path class="st0" d="M565.8,41.2c0,2.2-0.6,3.9-1.7,5.1c-1.1,1.2-2.7,1.8-4.8,1.8c-1.3,0-2.4-0.3-3.4-0.8c-1-0.6-1.7-1.4-2.3-2.4
		s-0.8-2.3-0.8-3.7c0-2.2,0.6-3.9,1.7-5.1c1.1-1.2,2.7-1.8,4.8-1.8c1.3,0,2.4,0.3,3.4,0.8c1,0.6,1.7,1.4,2.3,2.4
		S565.8,39.8,565.8,41.2z M556.6,41.2c0,1.3,0.2,2.3,0.6,3c0.4,0.7,1.1,1,2.1,1c1,0,1.7-0.3,2.1-1c0.4-0.7,0.6-1.7,0.6-3
		c0-1.3-0.2-2.3-0.6-3c-0.4-0.7-1.1-1-2.1-1c-1,0-1.7,0.3-2.1,1C556.8,38.8,556.6,39.8,556.6,41.2z"/>
	<path class="st0" d="M574.2,48.1c-4.1,0-6.2-2.3-6.2-6.8c0-2.3,0.6-4,1.7-5.2c1.1-1.2,2.7-1.8,4.9-1.8c1.5,0,2.9,0.3,4.1,0.9
		l-1.1,2.8c-0.6-0.2-1.1-0.4-1.6-0.6c-0.5-0.1-1-0.2-1.5-0.2c-1.9,0-2.8,1.3-2.8,4c0,2.6,0.9,3.9,2.8,3.9c0.7,0,1.3-0.1,1.9-0.3
		c0.6-0.2,1.2-0.5,1.8-0.9v3.1c-0.6,0.4-1.2,0.6-1.8,0.8C575.9,48,575.1,48.1,574.2,48.1z"/>
	<path class="st0" d="M590.8,47.8l-0.5-1.7h-0.2c-0.4,0.6-0.9,1.1-1.7,1.4c-0.7,0.3-1.5,0.5-2.4,0.5c-1.6,0-2.7-0.4-3.5-1.3
		c-0.8-0.8-1.2-2-1.2-3.6v-8.7h3.6v7.8c0,1,0.2,1.7,0.5,2.2c0.3,0.5,0.9,0.7,1.6,0.7c1,0,1.8-0.3,2.2-1c0.5-0.7,0.7-1.8,0.7-3.4
		v-6.3h3.6v13.3H590.8z"/>
	<path class="st0" d="M609.3,47.8h-3.6v-7.8c0-1-0.2-1.7-0.5-2.2c-0.3-0.5-0.8-0.7-1.5-0.7c-0.9,0-1.6,0.3-2,1S601,40,601,41.6v6.3
		h-3.6V34.5h2.8l0.5,1.7h0.2c0.4-0.6,0.9-1.1,1.5-1.4s1.5-0.5,2.3-0.5c2,0,3.3,0.7,4.1,2h0.3c0.4-0.6,0.9-1.1,1.6-1.4
		s1.5-0.5,2.4-0.5c1.5,0,2.7,0.4,3.4,1.2c0.8,0.8,1.2,2,1.2,3.7v8.7H614v-7.8c0-1-0.2-1.7-0.5-2.2c-0.3-0.5-0.8-0.7-1.5-0.7
		c-0.9,0-1.6,0.3-2,1c-0.4,0.6-0.7,1.6-0.7,3V47.8z"/>
	<path class="st0" d="M624.7,44.4l0.2,0.3c-0.1,0.5-0.2,0.9-0.4,1.5s-0.3,1-0.5,1.5s-0.4,1-0.6,1.6c-0.2,0.5-0.4,1-0.6,1.5h-2.6
		c0.1-0.5,0.2-1.1,0.4-1.6c0.1-0.6,0.2-1.1,0.3-1.7c0.1-0.5,0.2-1.1,0.3-1.6c0.1-0.5,0.2-1,0.2-1.5H624.7z"/>
	<path class="st0" d="M14,77.1H9.8l-4.6-7.3l-1.6,1.1v6.2H0V59.7h3.7v8l1.5-2l4.7-5.9H14l-6.1,7.7L14,77.1z"/>
	<path class="st0" d="M24.4,77.1l-0.7-1.8h-0.1c-0.6,0.8-1.2,1.3-1.9,1.6c-0.6,0.3-1.5,0.4-2.5,0.4c-1.3,0-2.3-0.4-3-1.1
		c-0.7-0.7-1.1-1.8-1.1-3.1c0-1.4,0.5-2.5,1.5-3.1s2.5-1,4.5-1.1l2.3-0.1v-0.6c0-1.4-0.7-2-2.1-2c-1.1,0-2.3,0.3-3.8,1l-1.2-2.5
		c1.5-0.8,3.2-1.2,5.1-1.2c1.8,0,3.2,0.4,4.1,1.2c1,0.8,1.4,2,1.4,3.6v8.9H24.4z M23.3,71l-1.4,0c-1.1,0-1.8,0.2-2.4,0.6
		c-0.5,0.3-0.8,0.9-0.8,1.6c0,1,0.6,1.5,1.8,1.5c0.8,0,1.5-0.2,2-0.7c0.5-0.5,0.8-1.1,0.8-1.9V71z"/>
	<path class="st0" d="M43,77.1h-3.6v-7.8c0-1-0.2-1.7-0.5-2.2c-0.3-0.5-0.9-0.7-1.6-0.7c-1,0-1.8,0.3-2.2,1
		c-0.5,0.7-0.7,1.8-0.7,3.4v6.3h-3.6V63.8h2.8l0.5,1.7h0.2c0.4-0.6,1-1.1,1.7-1.5c0.7-0.3,1.5-0.5,2.4-0.5c1.5,0,2.7,0.4,3.5,1.3
		c0.8,0.8,1.2,2,1.2,3.6V77.1z"/>
	<path class="st0" d="M58.4,77.2c0,1.9-0.6,3.4-1.7,4.4c-1.1,1-2.8,1.5-5,1.5c-1.9,0-3.6-0.3-5-0.8v-2.9c1.6,0.7,3.3,1,5.2,1
		c1.9,0,2.8-1,2.8-3V77l0.1-1.6h-0.1c-0.9,1.3-2.1,2-3.8,2c-1.6,0-2.8-0.6-3.7-1.8c-0.9-1.2-1.3-2.9-1.3-5c0-2.2,0.5-3.9,1.4-5.1
		c0.9-1.2,2.2-1.8,3.8-1.8c1.6,0,2.9,0.7,3.9,2H55l0.3-1.7h3.1V77.2z M52.2,74.5c1,0,1.7-0.3,2.1-0.8c0.4-0.6,0.6-1.5,0.6-2.7v-0.4
		c0-1.4-0.2-2.4-0.7-3.1s-1.2-0.9-2.1-0.9c-1.7,0-2.6,1.3-2.6,4c0,1.3,0.2,2.3,0.6,3C50.7,74.2,51.3,74.5,52.2,74.5z"/>
	<path class="st0" d="M65.6,73.7l0.2,0.3c-0.1,0.5-0.2,0.9-0.4,1.5c-0.2,0.5-0.3,1-0.5,1.5c-0.2,0.5-0.4,1-0.6,1.6s-0.4,1-0.6,1.5
		H61c0.1-0.5,0.2-1.1,0.4-1.6c0.1-0.6,0.2-1.1,0.3-1.7c0.1-0.5,0.2-1.1,0.3-1.6s0.2-1,0.2-1.5H65.6z"/>
	<path class="st0" d="M89.9,77.1h-4.2l-4.6-7.3l-1.6,1.1v6.2h-3.7V59.7h3.7v8l1.5-2l4.7-5.9h4.1l-6.1,7.7L89.9,77.1z"/>
	<path class="st0" d="M91.6,60.4c0-1.2,0.7-1.8,2-1.8s2,0.6,2,1.8c0,0.6-0.2,1-0.5,1.3c-0.3,0.3-0.8,0.5-1.5,0.5
		C92.3,62.2,91.6,61.6,91.6,60.4z M95.4,77.1h-3.6V63.8h3.6V77.1z"/>
	<path class="st0" d="M102.9,77.1h-3.6V58.6h3.6V77.1z"/>
	<path class="st0" d="M112.1,77.4c-4.1,0-6.2-2.3-6.2-6.8c0-2.3,0.6-4,1.7-5.2c1.1-1.2,2.7-1.8,4.9-1.8c1.5,0,2.9,0.3,4.1,0.9
		l-1.1,2.8c-0.6-0.2-1.1-0.4-1.6-0.6c-0.5-0.1-1-0.2-1.5-0.2c-1.9,0-2.8,1.3-2.8,4c0,2.6,0.9,3.9,2.8,3.9c0.7,0,1.3-0.1,1.9-0.3
		c0.6-0.2,1.2-0.5,1.8-0.9v3.1c-0.6,0.4-1.2,0.6-1.8,0.8C113.8,77.3,113,77.4,112.1,77.4z"/>
	<path class="st0" d="M128.7,77.1l-0.5-1.7H128c-0.4,0.6-0.9,1.1-1.7,1.4c-0.7,0.3-1.5,0.5-2.4,0.5c-1.6,0-2.7-0.4-3.5-1.3
		c-0.8-0.8-1.2-2-1.2-3.6v-8.7h3.6v7.8c0,1,0.2,1.7,0.5,2.2c0.3,0.5,0.9,0.7,1.6,0.7c1,0,1.8-0.3,2.2-1c0.5-0.7,0.7-1.8,0.7-3.4
		v-6.3h3.6v13.3H128.7z"/>
	<path class="st0" d="M138.9,77.1h-3.6V58.6h3.6V77.1z"/>
	<path class="st0" d="M146.4,77.1h-3.6V58.6h3.6V77.1z"/>
	<path class="st0" d="M156.2,77.4c-2.1,0-3.8-0.6-5-1.8c-1.2-1.2-1.8-2.9-1.8-5c0-2.2,0.6-4,1.7-5.2c1.1-1.2,2.7-1.8,4.6-1.8
		c1.9,0,3.3,0.5,4.4,1.6c1,1.1,1.6,2.6,1.6,4.4v1.8h-8.6c0,1,0.3,1.8,0.9,2.4c0.6,0.6,1.4,0.9,2.4,0.9c0.8,0,1.6-0.1,2.3-0.3
		s1.5-0.4,2.2-0.8v2.8c-0.6,0.3-1.3,0.6-2,0.7S157.3,77.4,156.2,77.4z M155.7,66.1c-0.8,0-1.4,0.2-1.8,0.7c-0.4,0.5-0.7,1.2-0.8,2.1
		h5.1c0-0.9-0.3-1.6-0.7-2.1C157.1,66.4,156.5,66.1,155.7,66.1z"/>
	<path class="st0" d="M176.9,77.1h-3.6v-7.8c0-1-0.2-1.7-0.5-2.2c-0.3-0.5-0.9-0.7-1.6-0.7c-1,0-1.8,0.3-2.2,1
		c-0.5,0.7-0.7,1.8-0.7,3.4v6.3h-3.6V63.8h2.8l0.5,1.7h0.2c0.4-0.6,1-1.1,1.7-1.5c0.7-0.3,1.5-0.5,2.4-0.5c1.5,0,2.7,0.4,3.5,1.3
		c0.8,0.8,1.2,2,1.2,3.6V77.1z"/>
	<path class="st0" d="M184.1,73.7l0.2,0.3c-0.1,0.5-0.2,0.9-0.4,1.5c-0.2,0.5-0.3,1-0.5,1.5c-0.2,0.5-0.4,1-0.6,1.6s-0.4,1-0.6,1.5
		h-2.6c0.1-0.5,0.2-1.1,0.4-1.6c0.1-0.6,0.2-1.1,0.3-1.7c0.1-0.5,0.2-1.1,0.3-1.6s0.2-1,0.2-1.5H184.1z"/>
	<path class="st0" d="M194.4,77.1V59.7h3.7v14.4h7.1v3.1H194.4z"/>
	<path class="st0" d="M213.9,77.4c-2.1,0-3.8-0.6-5-1.8c-1.2-1.2-1.8-2.9-1.8-5c0-2.2,0.6-4,1.7-5.2c1.1-1.2,2.7-1.8,4.6-1.8
		c1.9,0,3.3,0.5,4.4,1.6c1,1.1,1.6,2.6,1.6,4.4v1.8h-8.6c0,1,0.3,1.8,0.9,2.4c0.6,0.6,1.4,0.9,2.4,0.9c0.8,0,1.6-0.1,2.3-0.3
		s1.5-0.4,2.2-0.8v2.8c-0.6,0.3-1.3,0.6-2,0.7S215,77.4,213.9,77.4z M213.4,66.1c-0.8,0-1.4,0.2-1.8,0.7c-0.4,0.5-0.7,1.2-0.8,2.1
		h5.1c0-0.9-0.3-1.6-0.7-2.1C214.8,66.4,214.2,66.1,213.4,66.1z"/>
	<path class="st0" d="M225.2,77.1l-5.1-13.3h3.8l2.6,7.6c0.3,0.8,0.4,1.7,0.5,2.7h0.1c0-0.9,0.2-1.8,0.5-2.7l2.6-7.6h3.8L229,77.1
		H225.2z"/>
	<path class="st0" d="M248.1,70.5c0,2.2-0.6,3.9-1.7,5.1c-1.1,1.2-2.7,1.8-4.8,1.8c-1.3,0-2.4-0.3-3.4-0.8c-1-0.6-1.7-1.4-2.3-2.4
		s-0.8-2.3-0.8-3.7c0-2.2,0.6-3.9,1.7-5.1c1.1-1.2,2.7-1.8,4.8-1.8c1.3,0,2.4,0.3,3.4,0.8c1,0.6,1.7,1.4,2.3,2.4
		C247.8,67.8,248.1,69.1,248.1,70.5z M238.8,70.5c0,1.3,0.2,2.3,0.6,3s1.1,1,2.1,1c1,0,1.7-0.3,2.1-1c0.4-0.7,0.6-1.7,0.6-3
		c0-1.3-0.2-2.3-0.6-3c-0.4-0.7-1.1-1-2.1-1c-1,0-1.7,0.3-2.1,1C239.1,68.1,238.8,69.1,238.8,70.5z"/>
	<path class="st0" d="M258.5,63.6c0.5,0,0.9,0,1.2,0.1l-0.3,3.4c-0.3-0.1-0.7-0.1-1.1-0.1c-1.2,0-2.1,0.3-2.7,0.9
		c-0.6,0.6-1,1.4-1,2.5v6.8h-3.6V63.8h2.8l0.5,2.2h0.2c0.4-0.7,1-1.3,1.7-1.8C256.9,63.8,257.7,63.6,258.5,63.6z"/>
	<path class="st0" d="M271.5,73.2c0,1.4-0.5,2.4-1.4,3.1c-0.9,0.7-2.4,1.1-4.3,1.1c-1,0-1.8-0.1-2.5-0.2c-0.7-0.1-1.3-0.3-1.9-0.6
		v-3c0.7,0.3,1.4,0.6,2.3,0.8c0.8,0.2,1.6,0.3,2.2,0.3c1.3,0,2-0.4,2-1.1c0-0.3-0.1-0.5-0.3-0.7s-0.5-0.4-0.9-0.6
		c-0.4-0.2-1-0.5-1.7-0.8c-1-0.4-1.8-0.8-2.3-1.2c-0.5-0.4-0.8-0.8-1-1.3c-0.2-0.5-0.3-1.1-0.3-1.7c0-1.2,0.5-2.1,1.4-2.7
		c0.9-0.6,2.2-1,3.9-1c1.6,0,3.2,0.3,4.7,1l-1.1,2.6c-0.7-0.3-1.3-0.5-1.9-0.7s-1.2-0.3-1.8-0.3c-1.1,0-1.6,0.3-1.6,0.9
		c0,0.3,0.2,0.6,0.5,0.8s1.1,0.6,2.3,1.1c1,0.4,1.8,0.8,2.3,1.2s0.8,0.8,1.1,1.3S271.5,72.5,271.5,73.2z"/>
	<path class="st0" d="M280.3,77.4c-2.1,0-3.8-0.6-5-1.8c-1.2-1.2-1.8-2.9-1.8-5c0-2.2,0.6-4,1.7-5.2c1.1-1.2,2.7-1.8,4.6-1.8
		c1.9,0,3.3,0.5,4.4,1.6c1,1.1,1.6,2.6,1.6,4.4v1.8h-8.6c0,1,0.3,1.8,0.9,2.4c0.6,0.6,1.4,0.9,2.4,0.9c0.8,0,1.6-0.1,2.3-0.3
		s1.5-0.4,2.2-0.8v2.8c-0.6,0.3-1.3,0.6-2,0.7S281.4,77.4,280.3,77.4z M279.8,66.1c-0.8,0-1.4,0.2-1.8,0.7c-0.4,0.5-0.7,1.2-0.8,2.1
		h5.1c0-0.9-0.3-1.6-0.7-2.1C281.2,66.4,280.6,66.1,279.8,66.1z"/>
	<path class="st0" d="M292.1,73.7l0.2,0.3c-0.1,0.5-0.2,0.9-0.4,1.5c-0.2,0.5-0.3,1-0.5,1.5c-0.2,0.5-0.4,1-0.6,1.6s-0.4,1-0.6,1.5
		h-2.6c0.1-0.5,0.2-1.1,0.4-1.6c0.1-0.6,0.2-1.1,0.3-1.7c0.1-0.5,0.2-1.1,0.3-1.6s0.2-1,0.2-1.5H292.1z"/>
	<path class="st0" d="M306.1,70.5v6.7h-3.7V59.7h5.1c2.4,0,4.1,0.4,5.3,1.3c1.1,0.9,1.7,2.2,1.7,3.9c0,1-0.3,1.9-0.8,2.7
		c-0.6,0.8-1.4,1.4-2.4,1.9l5.1,7.6h-4.1l-4.2-6.7H306.1z M306.1,67.4h1.2c1.2,0,2-0.2,2.6-0.6s0.8-1,0.8-1.8c0-0.8-0.3-1.4-0.9-1.8
		c-0.6-0.3-1.4-0.5-2.6-0.5h-1.1V67.4z"/>
	<path class="st0" d="M326.7,77.1l-0.7-1.8h-0.1c-0.6,0.8-1.2,1.3-1.9,1.6c-0.6,0.3-1.5,0.4-2.5,0.4c-1.3,0-2.3-0.4-3-1.1
		c-0.7-0.7-1.1-1.8-1.1-3.1c0-1.4,0.5-2.5,1.5-3.1s2.5-1,4.5-1.1l2.3-0.1v-0.6c0-1.4-0.7-2-2.1-2c-1.1,0-2.3,0.3-3.8,1l-1.2-2.5
		c1.5-0.8,3.2-1.2,5.1-1.2c1.8,0,3.2,0.4,4.1,1.2c1,0.8,1.4,2,1.4,3.6v8.9H326.7z M325.6,71l-1.4,0c-1.1,0-1.8,0.2-2.4,0.6
		c-0.5,0.3-0.8,0.9-0.8,1.6c0,1,0.6,1.5,1.8,1.5c0.8,0,1.5-0.2,2-0.7c0.5-0.5,0.8-1.1,0.8-1.9V71z"/>
	<path class="st0" d="M340.4,66.5h-3.1v10.6h-3.6V66.5h-2v-1.8l2-1v-1c0-1.5,0.4-2.6,1.1-3.3s1.9-1,3.6-1c1.3,0,2.4,0.2,3.4,0.6
		l-0.9,2.7c-0.7-0.2-1.4-0.3-2-0.3c-0.5,0-0.9,0.2-1.1,0.5c-0.2,0.3-0.3,0.7-0.3,1.2v0.8h3.1V66.5z"/>
	<path class="st0" d="M350.9,77.1l-0.7-1.8h-0.1c-0.6,0.8-1.2,1.3-1.9,1.6c-0.6,0.3-1.5,0.4-2.5,0.4c-1.3,0-2.3-0.4-3-1.1
		c-0.7-0.7-1.1-1.8-1.1-3.1c0-1.4,0.5-2.5,1.5-3.1s2.5-1,4.5-1.1l2.3-0.1v-0.6c0-1.4-0.7-2-2.1-2c-1.1,0-2.3,0.3-3.8,1l-1.2-2.5
		c1.5-0.8,3.2-1.2,5.1-1.2c1.8,0,3.2,0.4,4.1,1.2c1,0.8,1.4,2,1.4,3.6v8.9H350.9z M349.8,71l-1.4,0c-1.1,0-1.8,0.2-2.4,0.6
		c-0.5,0.3-0.8,0.9-0.8,1.6c0,1,0.6,1.5,1.8,1.5c0.8,0,1.5-0.2,2-0.7c0.5-0.5,0.8-1.1,0.8-1.9V71z"/>
	<path class="st0" d="M360.8,77.1h-3.6V58.6h3.6V77.1z"/>
	<path class="st0" d="M376.8,70.5c0,2.2-0.6,3.9-1.7,5.1c-1.1,1.2-2.7,1.8-4.8,1.8c-1.3,0-2.4-0.3-3.4-0.8c-1-0.6-1.7-1.4-2.3-2.4
		s-0.8-2.3-0.8-3.7c0-2.2,0.6-3.9,1.7-5.1c1.1-1.2,2.7-1.8,4.8-1.8c1.3,0,2.4,0.3,3.4,0.8c1,0.6,1.7,1.4,2.3,2.4
		C376.5,67.8,376.8,69.1,376.8,70.5z M367.5,70.5c0,1.3,0.2,2.3,0.7,3c0.4,0.7,1.1,1,2.1,1c1,0,1.7-0.3,2.1-1c0.4-0.7,0.6-1.7,0.6-3
		c0-1.3-0.2-2.3-0.6-3c-0.4-0.7-1.1-1-2.1-1c-1,0-1.7,0.3-2.1,1C367.8,68.1,367.5,69.1,367.5,70.5z"/>
	<path class="st0" d="M390.5,77.1l-1-4.7l-1.4-5.9H388l-2.4,10.5h-3.9l-3.8-13.3h3.6l1.5,5.9c0.2,0.7,0.4,2.2,0.7,4.4h0.1
		c0-0.6,0.2-1.6,0.4-2.9l0.2-1l1.6-6.4h4l1.6,6.4c0.1,0.4,0.2,1.1,0.4,1.9c0.1,0.8,0.2,1.5,0.2,2h0.1c0.1-0.7,0.2-1.5,0.4-2.4
		c0.2-0.9,0.3-1.6,0.4-2l1.6-5.9h3.6l-3.8,13.3H390.5z"/>
	<path class="st0" d="M409.7,73.2c0,1.4-0.5,2.4-1.4,3.1c-1,0.7-2.4,1.1-4.3,1.1c-1,0-1.8-0.1-2.5-0.2c-0.7-0.1-1.3-0.3-1.9-0.6v-3
		c0.7,0.3,1.4,0.6,2.3,0.8c0.8,0.2,1.6,0.3,2.2,0.3c1.3,0,2-0.4,2-1.1c0-0.3-0.1-0.5-0.3-0.7s-0.5-0.4-0.9-0.6s-1-0.5-1.7-0.8
		c-1-0.4-1.8-0.8-2.3-1.2c-0.5-0.4-0.8-0.8-1-1.3c-0.2-0.5-0.3-1.1-0.3-1.7c0-1.2,0.5-2.1,1.4-2.7c0.9-0.6,2.2-1,3.9-1
		c1.6,0,3.2,0.3,4.7,1l-1.1,2.6c-0.7-0.3-1.3-0.5-1.9-0.7s-1.2-0.3-1.8-0.3c-1.1,0-1.6,0.3-1.6,0.9c0,0.3,0.2,0.6,0.5,0.8
		s1.1,0.6,2.3,1.1c1,0.4,1.8,0.8,2.3,1.2c0.5,0.4,0.8,0.8,1.1,1.3S409.7,72.5,409.7,73.2z"/>
	<path class="st0" d="M416,69.9l1.6-2l3.7-4.1h4.1l-5.3,5.8l5.6,7.5h-4.2l-3.8-5.4l-1.6,1.3v4.1h-3.6V58.6h3.6v8.3L416,69.9
		L416,69.9z"/>
	<path class="st0" d="M427.5,60.4c0-1.2,0.7-1.8,2-1.8c1.3,0,2,0.6,2,1.8c0,0.6-0.2,1-0.5,1.3c-0.3,0.3-0.8,0.5-1.5,0.5
		C428.2,62.2,427.5,61.6,427.5,60.4z M431.3,77.1h-3.6V63.8h3.6V77.1z"/>
	<path class="st0" d="M438.5,73.7l0.2,0.3c-0.1,0.5-0.2,0.9-0.4,1.5s-0.3,1-0.5,1.5s-0.4,1-0.6,1.6c-0.2,0.5-0.4,1-0.6,1.5H434
		c0.1-0.5,0.2-1.1,0.4-1.6c0.1-0.6,0.2-1.1,0.3-1.7c0.1-0.5,0.2-1.1,0.3-1.6c0.1-0.5,0.2-1,0.2-1.5H438.5z"/>
	<path class="st0" d="M457,77.1l-0.7-1.8h-0.1c-0.6,0.8-1.2,1.3-1.9,1.6c-0.6,0.3-1.5,0.4-2.5,0.4c-1.3,0-2.3-0.4-3-1.1
		c-0.7-0.7-1.1-1.8-1.1-3.1c0-1.4,0.5-2.5,1.5-3.1c1-0.7,2.5-1,4.5-1.1l2.3-0.1v-0.6c0-1.4-0.7-2-2.1-2c-1.1,0-2.3,0.3-3.8,1
		l-1.2-2.5c1.5-0.8,3.2-1.2,5.1-1.2c1.8,0,3.2,0.4,4.1,1.2c1,0.8,1.4,2,1.4,3.6v8.9H457z M456,71l-1.4,0c-1.1,0-1.8,0.2-2.4,0.6
		s-0.8,0.9-0.8,1.6c0,1,0.6,1.5,1.8,1.5c0.8,0,1.5-0.2,2-0.7c0.5-0.5,0.8-1.1,0.8-1.9V71z"/>
	<path class="st0" d="M475.6,77.1H472v-7.8c0-1-0.2-1.7-0.5-2.2c-0.3-0.5-0.9-0.7-1.6-0.7c-1,0-1.8,0.3-2.2,1s-0.7,1.8-0.7,3.4v6.3
		h-3.6V63.8h2.8l0.5,1.7h0.2c0.4-0.6,1-1.1,1.7-1.5c0.7-0.3,1.5-0.5,2.4-0.5c1.5,0,2.7,0.4,3.5,1.3c0.8,0.8,1.2,2,1.2,3.6V77.1z"/>
	<path class="st0" d="M483.6,77.4c-1.6,0-2.8-0.6-3.7-1.8c-0.9-1.2-1.3-2.9-1.3-5.1c0-2.2,0.5-3.9,1.4-5.1c0.9-1.2,2.2-1.8,3.8-1.8
		c1.7,0,3,0.7,3.8,2h0.1c-0.2-1-0.3-1.9-0.3-2.7v-4.3h3.6v18.5h-2.8l-0.7-1.7h-0.2C486.5,76.7,485.3,77.4,483.6,77.4z M484.9,74.5
		c0.9,0,1.6-0.3,2-0.8c0.4-0.5,0.7-1.5,0.7-2.8v-0.4c0-1.4-0.2-2.5-0.7-3.1c-0.4-0.6-1.2-0.9-2.2-0.9c-0.8,0-1.4,0.3-1.9,1
		c-0.4,0.7-0.7,1.7-0.7,3s0.2,2.3,0.7,3C483.4,74.2,484,74.5,484.9,74.5z"/>
	<path class="st0" d="M511.7,72.3c0,1.6-0.6,2.8-1.7,3.7c-1.1,0.9-2.7,1.4-4.7,1.4c-1.9,0-3.5-0.3-4.9-1v-3.4c1.2,0.5,2.2,0.9,3,1.1
		c0.8,0.2,1.6,0.3,2.2,0.3c0.8,0,1.4-0.2,1.9-0.5c0.4-0.3,0.6-0.8,0.6-1.4c0-0.3-0.1-0.6-0.3-0.9c-0.2-0.3-0.5-0.5-0.8-0.8
		s-1.1-0.6-2.3-1.2c-1.1-0.5-1.9-1-2.4-1.4s-1-1-1.3-1.6c-0.3-0.6-0.5-1.3-0.5-2.1c0-1.5,0.5-2.8,1.6-3.6c1-0.9,2.5-1.3,4.3-1.3
		c0.9,0,1.8,0.1,2.6,0.3c0.8,0.2,1.7,0.5,2.6,0.9l-1.2,2.9c-0.9-0.4-1.7-0.6-2.3-0.8c-0.6-0.2-1.2-0.2-1.8-0.2
		c-0.7,0-1.2,0.2-1.6,0.5c-0.4,0.3-0.6,0.8-0.6,1.3c0,0.3,0.1,0.6,0.2,0.9c0.2,0.2,0.4,0.5,0.7,0.7c0.3,0.2,1.1,0.6,2.3,1.2
		c1.6,0.8,2.7,1.6,3.3,2.3C511.4,70.2,511.7,71.2,511.7,72.3z"/>
	<path class="st0" d="M526.9,77.1h-3.6v-7.8c0-1.9-0.7-2.9-2.1-2.9c-1,0-1.8,0.3-2.2,1s-0.7,1.8-0.7,3.4v6.3h-3.6V58.6h3.6v3.8
		c0,0.3,0,1-0.1,2.1l-0.1,1.1h0.2c0.8-1.3,2.1-2,3.9-2c1.6,0,2.8,0.4,3.6,1.3c0.8,0.8,1.2,2,1.2,3.6V77.1z"/>
	<path class="st0" d="M530.5,60.4c0-1.2,0.7-1.8,2-1.8c1.3,0,2,0.6,2,1.8c0,0.6-0.2,1-0.5,1.3c-0.3,0.3-0.8,0.5-1.5,0.5
		C531.1,62.2,530.5,61.6,530.5,60.4z M534.3,77.1h-3.6V63.8h3.6V77.1z"/>
	<path class="st0" d="M550.4,77.1h-3.6v-7.8c0-1.9-0.7-2.9-2.1-2.9c-1,0-1.8,0.3-2.2,1s-0.7,1.8-0.7,3.4v6.3h-3.6V58.6h3.6v3.8
		c0,0.3,0,1-0.1,2.1l-0.1,1.1h0.2c0.8-1.3,2.1-2,3.9-2c1.6,0,2.8,0.4,3.6,1.3c0.8,0.8,1.2,2,1.2,3.6V77.1z"/>
	<path class="st0" d="M564.4,77.1h-3.6V59.7h10v3h-6.4v4.5h5.9v3h-5.9V77.1z"/>
	<path class="st0" d="M582.3,77.1l-0.7-1.8h-0.1c-0.6,0.8-1.2,1.3-1.9,1.6c-0.6,0.3-1.5,0.4-2.5,0.4c-1.3,0-2.3-0.4-3-1.1
		c-0.7-0.7-1.1-1.8-1.1-3.1c0-1.4,0.5-2.5,1.5-3.1c1-0.7,2.5-1,4.5-1.1l2.3-0.1v-0.6c0-1.4-0.7-2-2.1-2c-1.1,0-2.3,0.3-3.8,1
		l-1.2-2.5c1.5-0.8,3.2-1.2,5.1-1.2c1.8,0,3.2,0.4,4.1,1.2c1,0.8,1.4,2,1.4,3.6v8.9H582.3z M581.3,71l-1.4,0c-1.1,0-1.8,0.2-2.4,0.6
		s-0.8,0.9-0.8,1.6c0,1,0.6,1.5,1.8,1.5c0.8,0,1.5-0.2,2-0.7c0.5-0.5,0.8-1.1,0.8-1.9V71z"/>
	<path class="st0" d="M600.6,77.1h-3.6v-7.8c0-1-0.2-1.7-0.5-2.2c-0.3-0.5-0.8-0.7-1.5-0.7c-0.9,0-1.6,0.3-2,1s-0.6,1.8-0.6,3.4v6.3
		h-3.6V63.8h2.8l0.5,1.7h0.2c0.4-0.6,0.9-1.1,1.5-1.4s1.5-0.5,2.3-0.5c2,0,3.3,0.7,4.1,2h0.3c0.4-0.6,0.9-1.1,1.6-1.4
		s1.5-0.5,2.4-0.5c1.5,0,2.7,0.4,3.4,1.2c0.8,0.8,1.2,2,1.2,3.7v8.7h-3.6v-7.8c0-1-0.2-1.7-0.5-2.2c-0.3-0.5-0.8-0.7-1.5-0.7
		c-0.9,0-1.6,0.3-2,1c-0.4,0.6-0.7,1.6-0.7,3V77.1z"/>
	<path class="st0" d="M612.4,60.4c0-1.2,0.7-1.8,2-1.8c1.3,0,2,0.6,2,1.8c0,0.6-0.2,1-0.5,1.3c-0.3,0.3-0.8,0.5-1.5,0.5
		C613.1,62.2,612.4,61.6,612.4,60.4z M616.2,77.1h-3.6V63.8h3.6V77.1z"/>
	<path class="st0" d="M623.7,77.1H620V58.6h3.6V77.1z"/>
	<path class="st0" d="M627.3,60.4c0-1.2,0.7-1.8,2-1.8c1.3,0,2,0.6,2,1.8c0,0.6-0.2,1-0.5,1.3c-0.3,0.3-0.8,0.5-1.5,0.5
		C628,62.2,627.3,61.6,627.3,60.4z M631.1,77.1h-3.6V63.8h3.6V77.1z"/>
	<path class="st0" d="M641,77.4c-2.1,0-3.8-0.6-5-1.8c-1.2-1.2-1.8-2.9-1.8-5c0-2.2,0.6-4,1.7-5.2c1.1-1.2,2.7-1.8,4.6-1.8
		c1.9,0,3.3,0.5,4.4,1.6c1,1.1,1.6,2.6,1.6,4.4v1.8h-8.6c0,1,0.3,1.8,0.9,2.4s1.4,0.9,2.4,0.9c0.8,0,1.6-0.1,2.3-0.3
		s1.5-0.4,2.2-0.8v2.8c-0.6,0.3-1.3,0.6-2,0.7C642.9,77.3,642,77.4,641,77.4z M640.5,66.1c-0.8,0-1.4,0.2-1.8,0.7
		c-0.4,0.5-0.7,1.2-0.8,2.1h5.1c0-0.9-0.3-1.6-0.7-2.1C641.8,66.4,641.2,66.1,640.5,66.1z"/>
	<path class="st0" d="M658.7,73.2c0,1.4-0.5,2.4-1.4,3.1c-0.9,0.7-2.4,1.1-4.3,1.1c-1,0-1.8-0.1-2.5-0.2c-0.7-0.1-1.3-0.3-1.9-0.6
		v-3c0.7,0.3,1.4,0.6,2.3,0.8c0.8,0.2,1.6,0.3,2.2,0.3c1.3,0,2-0.4,2-1.1c0-0.3-0.1-0.5-0.3-0.7s-0.5-0.4-0.9-0.6
		c-0.4-0.2-1-0.5-1.7-0.8c-1-0.4-1.8-0.8-2.3-1.2c-0.5-0.4-0.8-0.8-1-1.3c-0.2-0.5-0.3-1.1-0.3-1.7c0-1.2,0.5-2.1,1.4-2.7
		c0.9-0.6,2.2-1,3.9-1c1.6,0,3.2,0.3,4.7,1l-1.1,2.6c-0.7-0.3-1.3-0.5-1.9-0.7s-1.2-0.3-1.8-0.3c-1.1,0-1.6,0.3-1.6,0.9
		c0,0.3,0.2,0.6,0.5,0.8s1.1,0.6,2.3,1.1c1,0.4,1.8,0.8,2.3,1.2c0.5,0.4,0.8,0.8,1.1,1.3S658.7,72.5,658.7,73.2z"/>
</g>
</svg>
