<?xml version="1.0" encoding="utf-8"?>
<!-- Generator: Adobe Illustrator 22.0.1, SVG Export Plug-In . SVG Version: 6.00 Build 0)  -->
<svg version="1.1" id="Main" xmlns="http://www.w3.org/2000/svg" xmlns:xlink="http://www.w3.org/1999/xlink" x="0px" y="0px"
	 viewBox="0 0 340.3 342.3" style="enable-background:new 0 0 340.3 342.3;" xml:space="preserve">
<style type="text/css">
	.st0{fill:#FFCF1D;}
	.st1{fill:none;stroke:#FFFFFF;stroke-width:2.75;stroke-miterlimit:10;}
	.st2{fill:#FFFFFF;}
	.st3{fill:#F2C31D;}
	.st4{fill:#CC2127;}
	.st5{fill:#14436F;}
</style>
<ellipse id="Background" class="st0" cx="170.1" cy="171.2" rx="170.1" ry="171.2"/>
<path id="Black" d="M325,171.4c0,85.9-69.5,155.8-154.9,155.8c-85.8,0-154.9-69.9-154.9-155.8c0-86.3,69.1-156.2,154.9-156.2
	C255.6,15.2,325,85.1,325,171.4z"/>
<path id="Rim" class="st1" d="M325,171.4c0,85.9-69.5,155.8-154.9,155.8c-85.8,0-154.9-69.9-154.9-155.8
	c0-86.3,69.1-156.2,154.9-156.2C255.6,15.2,325,85.1,325,171.4z"/>
<g id="Flame_x2F_Text">
	<path class="st2" d="M74.7,89.7c-1.7-1.2-2.5-1.2-3-0.8L60,104.4l4.2,2.9l11.8-15C76.3,91.8,75.9,90.6,74.7,89.7z M78,84.7
		c2.1,1.7,3.3,3.3,3.8,5.4c0.4,2,0,4.2-1.2,5.9l-11.3,15.1l6.7,5l-3.8,5l-20.5-15.9l15.1-19.7c1.1-1.9,3.2-3,5.4-2.9
		C74.3,82.7,76.3,83.4,78,84.7L78,84.7z"/>
	<polygon class="st2" points="98.5,90.1 93.9,94.3 76.8,75.1 81.3,70.9 	"/>
	<path class="st2" d="M124.1,73l-16.8,10c-2,1.2-4.4,1.7-6.7,1.2c-2.1-0.5-4-1.8-5-3.8l-5-7.9c-1.1-1.9-1.4-4.2-0.8-6.3
		c0.8-2,2.1-3.7,3.8-5l17.2-10.5l3.3,5L96.8,66.3c-1.1,0.5-1.6,1.9-1,3c0.1,0.1,0.1,0.2,0.2,0.3l4.6,8c0.9,1.3,2.1,1.3,3.4,0.4
		l17.2-10.5L124.1,73z"/>
	<path class="st2" d="M155,63.8l-5.8,1.7l-2.1-8L132,61.7l-1.7-5.8l15.5-4.2l-1.3-3.7c-0.4-1.3-0.8-1.7-1.7-1.3l-16.3,4.2
		c-0.9,0.5-1.3,1.6-0.8,2.5c0,0,0,0,0,0l4.6,17.2l-5.9,1.7L119.9,55c-0.5-2.1-0.3-4.3,0.4-6.3c0.9-1.8,2.6-3,4.6-3.3l16.3-4.6
		c2-0.8,4.2-0.5,5.9,0.8c1.7,1.2,2.9,3,3.3,5L155,63.8z"/>
	<polygon class="st2" points="185.6,44.1 173.9,44.1 173.5,63.8 167.6,63.8 167.6,43.7 156.3,43.7 156.3,37.4 185.6,38.2 	"/>
	<polygon class="st2" points="193.2,66.3 187.3,65 192.3,39.5 198.2,40.7 	"/>
	<polygon class="st2" points="221.6,75.9 216.2,73.4 208.2,51.6 201.6,68 196.1,65.9 205.7,41.6 211.2,43.7 219.1,65.5 225.4,49.5 
		231.3,51.6 	"/>
	<polygon class="st2" points="245.1,92.3 240.1,88.9 238,65.5 227.5,79.7 222.9,75.9 238,55.4 243,58.8 245.1,81.8 255.6,68 
		260.1,71.7 	"/>
	<path class="st2" d="M279.4,106.5c-1.5,1.3-3.4,2-5.4,2.1c-2.1-0.4-4-1.4-5.5-2.9l-3.3-4.2l-7.5,5.8l-3.8-4.6l8-6.3l-3.8-4.2
		c-1.2-1.7-1.7-3.8-1.2-5.9c0.6-1.9,1.7-3.5,3.3-4.6l6.3-5l3.7,4.6l-6.3,5c-1.3,0.8-1.3,1.2-0.9,2.1l10.5,13.4
		c0.4,0.8,1.3,0.8,2.1,0l6.3-5l3.8,5L279.4,106.5z"/>
	<path class="st1" d="M245.1,269.8c29.9-23.2,47.4-58.9,47.4-96.8c0.1-19.9-4.8-39.4-14.3-56.9"/>
	<path class="st1" d="M59.6,120.3c-7.8,16.5-11.8,34.5-11.7,52.7c-0.1,37.7,17.4,73.4,47.3,96.3"/>
	<path class="st2" d="M125.3,293.2c-0.8,1.9-2.3,3.4-4.2,4.2c-2,0.5-4,0.3-5.9-0.4l-19.7-10l2.5-5.5l20.1,10c0.4,0.4,1.3,0,1.7-1.3
		c0.8-0.8,0.8-1.7,0-2.1l-14.7-7.5c-1.7-1-3-2.4-3.8-4.2c-0.4-2-0.1-4.1,0.8-5.9c0.9-2,2.5-3.5,4.6-4.2c1.7-0.9,3.7-0.9,5.5,0
		l20.1,10l-2.9,5.4l-19.7-10c-0.8-0.4-1.7,0-2.1,1.3s-0.4,2.1,0.4,2.1l14.3,7.5c2,0.8,3.4,2.5,3.8,4.6
		C126.7,289.3,126.4,291.5,125.3,293.2z"/>
	<polygon class="st2" points="166.4,289 154.6,287.4 151.7,307 145.8,306.2 148.8,286.5 137.5,284.9 138.3,279 167.2,283.2 	"/>
	<polygon class="st2" points="199.8,285.3 178.5,288.6 178.9,292.4 199,289.5 199.8,295.3 179.8,298.3 180.6,302 202,299.1 
		202.8,305 175.6,309.1 171.8,283.6 199,279.4 	"/>
	<polygon class="st2" points="245.5,286.1 240.1,289 232.9,275.2 230.4,293.6 213.7,284.9 221.2,298.7 215.8,301.6 204.1,278.6 
		209.5,275.7 225.8,284.4 228.4,266 233.8,263.5 	"/>
	<polygon class="st3" points="193.6,249.3 176,249.3 170.6,232.5 165.1,249.3 147.9,249.3 162.2,259.3 156.7,275.7 170.6,265.6 
		184.8,275.7 179.8,258.9 	"/>
	<polygon points="187.7,250.5 174.7,250.5 170.6,238.4 166.8,250.5 153.4,250.5 164.3,258.1 160.1,270.6 170.6,263.1 181.4,270.6 
		177.3,258.1 	"/>
	<polygon class="st2" points="175.6,257.6 183.5,252.2 173.9,252.2 170.6,243 167.6,252.2 157.6,252.2 166,258.1 162.6,267.3 
		170.6,261.4 178.5,267.3 	"/>
	<path class="st4" d="M221.2,189.8c-0.9,2.3-2.1,4.6-3.4,6.7c-0.4,0.4-0.4,1.3-0.9,1.7c-0.2,0-0.4,0.2-0.4,0.4c0,0,0,0,0,0
		c-0.4,0.3-0.7,0.7-0.8,1.3c-0.2,0-0.4,0.2-0.4,0.4c0,0,0,0,0,0c-0.4,0-0.4,0-0.4,0.4c0,0-0.4,0.4-0.8,0.9
		c-5.5,6.3-13.4,11.7-19.7,16.3c-15.5,10.9-23.5,16.8-23.9,16.8c-7.5-5-15.1-10-21.4-15.1c-8-5.4-13-9.2-16.3-11.7l0,0
		c-16.8-11.7-17.6-33.9-18-59c-0.4-10.5-0.8-18-9.2-24.7c15.1,5.5,30.6,19.7,33.9,37.3c-2.1-40.2,21.8-48.2,32.2-66.2
		c2.5-4.6,8-13.8,0-23c40.6,23.8,7.5,54.8,24.7,76.2c-6.3-24.3,17.2-37.3,32.7-39.3C196.1,129.5,232.5,161.8,221.2,189.8z"/>
	<path class="st2" d="M214.9,191.9c-0.7,1.9-1.7,3.8-2.9,5.5c-5,8.4-14.3,12.6-21.4,18c-15.9,12.6-19.7,19.3-20.1,19.3
		c-5.9-6.7-13-12.6-20.9-18.4c-5.4-4.2-15.9-12.1-15.9-12.1c-10-8-12.6-19.7-13-37.7c0-8.4,2.5-23.5-5-29.3
		c12.1,6.7,17.2,10,26,36.8c-2.5-32.3,14.3-44.8,29.3-57.8c4.2-3.8,12.2-17.2,9.2-28.9c22.6,31.8-10,47.3,21,74.5
		c-5.4-18.4,1.7-33.5,13.8-38.5C201.6,148.8,224.1,168.4,214.9,191.9z"/>
	<path class="st5" d="M206.6,195.3c-4.2,7.5-15.9,14.6-21.4,19.7c-10.9,10.5-14.2,16.8-14.2,16.8c-2.5-2.5-5.8-6.3-14.2-14.7
		c-5.9-5.8-12.2-11.3-14.7-13.4c-0.4-0.8-0.8-0.8-0.8-1.3l0,0c-2.5-2.5-5-5.5-6.3-9.2c-1.6-4.4-2.1-9.2-1.7-13.8
		c1.7,8.4,12.6,15.5,23.5,15.5c-21-23.5,7.1-58.6,23.9-68.7c-8.4,13-5.9,22.2-2.1,28.9c4.8,7.5,8.3,15.7,10.4,24.3
		c0.7,3.4,1,6.9,0.8,10.4c10.4-5.4,19.2-18.8,17.2-31.4C214.1,171.4,213.3,185.2,206.6,195.3z"/>
</g>
</svg>
