<?xml version="1.0" encoding="utf-8"?>
<!-- Generator: Adobe Illustrator 22.0.1, SVG Export Plug-In . SVG Version: 6.00 Build 0)  -->
<svg version="1.1" id="Logo" xmlns="http://www.w3.org/2000/svg" xmlns:xlink="http://www.w3.org/1999/xlink" x="0px" y="0px"
	 viewBox="0 0 147 77.2" style="enable-background:new 0 0 147 77.2;" xml:space="preserve">
<style type="text/css">
	.st0{fill:#E98300;}
	.st1{fill:#FFFFFF;}
</style>
<rect id="Background" class="st0" width="147" height="77.2"/>
<path id="Words" class="st1" d="M62.7,28.2H33.2c-2.4,0-4.3-1.9-4.3-4.3s1.9-4.3,4.3-4.3h29.5c2.4,0,4.3,1.9,4.3,4.3
	S65.1,28.2,62.7,28.2z M61.3,45.5c0-2.4-1.9-4.3-4.3-4.3H27.4c-2.4,0-4.3,1.9-4.3,4.3c0,2.4,1.9,4.3,4.3,4.3h29.5
	C59.3,49.9,61.3,47.9,61.3,45.5z M14.3,34.7c0,2.4,1.9,4.3,4.3,4.3c0,0,0,0,0,0h29.5c2.4,0,4.3-1.9,4.3-4.3s-1.9-4.3-4.3-4.3H18.7
	C16.3,30.3,14.3,32.3,14.3,34.7C14.3,34.6,14.3,34.6,14.3,34.7z M75.5,19.7l-1.8,6.8h9.1l-6.2,23.1h7.9l6.2-23.1h9.1l1.8-6.8H75.5
	L75.5,19.7z M103.9,19.7l-8,29.9h24l1.8-6.6h-16.3l1.5-5.4h14.5l1.7-6h-14.6l1.4-5.2h16.2l1.8-6.6L103.9,19.7L103.9,19.7z
	 M69.2,60.7c0.7,0,1.3-0.3,1.7-0.7l-0.7-0.8c-0.3,0.3-0.6,0.4-1,0.5c-0.5,0-0.9-0.4-0.9-0.9c0,0,0-0.1,0-0.1c0-0.8,0.5-1.5,1.3-1.6
	c0.4,0,0.8,0.2,1,0.6l1-0.7c-0.4-0.7-1.1-1.1-1.9-1c-1.5,0-2.7,1.1-2.8,2.6c0,0,0,0.1,0,0.1c0,1.1,0.8,2,1.9,2.1
	C69,60.7,69.1,60.7,69.2,60.7L69.2,60.7z M73.9,60.7c1.4,0,2.6-1.2,2.6-2.6c0.1-1.1-0.8-2-1.9-2.1c-0.1,0-0.2,0-0.3,0
	c-1.4,0-2.6,1.2-2.6,2.6c0,1.1,0.8,2,1.9,2.1C73.7,60.7,73.8,60.7,73.9,60.7L73.9,60.7z M73.9,59.6c-0.5,0-1-0.4-1-0.9
	c0,0,0-0.1,0-0.1c0-0.8,0.6-1.4,1.3-1.5c0.5,0,1,0.4,1,0.9c0,0,0,0.1,0,0.1C75.3,58.9,74.7,59.5,73.9,59.6L73.9,59.6z M76.7,60.6H78
	l0.7-2.6c0-0.5,0.5-0.9,1-0.9c0.3-0.1,0.6,0.1,0.6,0.4c0,0,0,0.1,0,0.1c0,0.1,0,0.3-0.1,0.4l-0.7,2.5h1.3l0.7-2.5
	c0.1-0.3,0.1-0.6,0.2-0.9c0-0.7-0.5-1.2-1.2-1.3c0,0-0.1,0-0.1,0c-0.5,0-0.9,0.2-1.2,0.6l0.1-0.6h-1.3L76.7,60.6z M82,60.6h1.3
	L84,58c0-0.5,0.5-0.9,1-0.9c0.3-0.1,0.6,0.1,0.6,0.4c0,0,0,0.1,0,0.1c0,0.1,0,0.3-0.1,0.4l-0.7,2.5h1.3l0.7-2.5
	c0.1-0.3,0.1-0.5,0.1-0.8c0-0.7-0.5-1.3-1.2-1.3c-0.1,0-0.1,0-0.2,0c-0.5,0-0.9,0.2-1.3,0.6l0.1-0.6h-1.3L82,60.6z M88.8,58.8h3.1
	c0.1-0.3,0.2-0.7,0.2-1c0-0.9-0.7-1.8-1.6-1.8c-0.1,0-0.2,0-0.2,0c-1.5,0-2.7,1.2-2.7,2.7c-0.1,1.1,0.8,2,1.8,2c0.1,0,0.2,0,0.3,0
	c0.6,0,1.3-0.2,1.8-0.6l-0.6-0.8c-0.3,0.2-0.6,0.4-1,0.4c-0.5,0.1-1-0.3-1-0.8C88.8,58.9,88.8,58.8,88.8,58.8L88.8,58.8z M88.9,58
	c0.2-0.6,0.7-1,1.3-1c0.4-0.1,0.7,0.2,0.7,0.5c0,0,0,0.1,0,0.1c0,0.1,0,0.2,0,0.3L88.9,58L88.9,58z M94.9,60.7
	c0.6,0,1.3-0.3,1.7-0.7l-0.7-0.8c-0.3,0.3-0.6,0.4-1,0.5c-0.5,0-0.9-0.4-0.9-0.9c0,0,0-0.1,0-0.1c0-0.8,0.5-1.5,1.3-1.6
	c0.4,0,0.8,0.2,1,0.6l1-0.7c-0.4-0.7-1.1-1.1-1.9-1c-1.5,0-2.7,1.2-2.7,2.7c-0.1,1.1,0.8,2,1.9,2.1C94.8,60.7,94.8,60.7,94.9,60.7
	L94.9,60.7z M98.8,60.7c0.3,0,0.6-0.1,0.9-0.2l0.3-1.1c-0.2,0.1-0.4,0.1-0.7,0.2c-0.1,0.1-0.3,0-0.4-0.1c0-0.1,0-0.1,0-0.2
	c0-0.1,0-0.1,0-0.2l0.5-1.9h1.1l0.3-1.1h-1l0.3-1.2h-1.3L98.6,56H98l-0.3,1.1h0.6l-0.6,2.1c-0.1,0.2-0.1,0.4-0.1,0.6
	C97.7,60.3,98.2,60.7,98.8,60.7C98.7,60.7,98.8,60.7,98.8,60.7L98.8,60.7z M100.7,60.7h1.3l1.2-4.7h-1.3L100.7,60.7z M102,55.5h1.4
	l0.3-1.2h-1.4L102,55.5z M104.5,60.6h1.2l3-4.6h-1.4l-1.8,3l-0.2-3H104L104.5,60.6z M108.3,60.6h1.3l1.2-4.6h-1.3L108.3,60.6z
	 M109.6,55.6h1.4l0.3-1.2H110L109.6,55.6z M112.5,60.7c0.3,0,0.6-0.1,0.9-0.2l0.3-1.1c-0.2,0.1-0.4,0.1-0.7,0.2
	c-0.1,0-0.3-0.1-0.3-0.2c0,0,0,0,0-0.1c0-0.1,0-0.1,0-0.2l0.5-1.9h1.1l0.3-1.1h-1.1l0.3-1.2h-1.3l-0.2,1.1h-0.6l-0.3,1.1h0.6
	l-0.6,2.1c-0.1,0.2-0.1,0.4-0.1,0.6C111.4,60.3,111.9,60.7,112.5,60.7C112.4,60.7,112.5,60.7,112.5,60.7L112.5,60.7z M115.1,62
	c0.8,0,1.5-0.5,1.9-1.3l2.8-4.7h-1.4l-1.7,3.1l-0.2-3.1h-1.3l0.6,4.6c-0.1,0.2-0.3,0.3-0.5,0.3c-0.2,0-0.4-0.1-0.5-0.2l-0.7,0.9
	C114.4,61.9,114.8,62,115.1,62z"/>
</svg>
