<?xml version="1.0" encoding="utf-8"?>
<!-- Generator: Adobe Illustrator 22.0.1, SVG Export Plug-In . SVG Version: 6.00 Build 0)  -->
<svg version="1.1" id="Main" xmlns="http://www.w3.org/2000/svg" xmlns:xlink="http://www.w3.org/1999/xlink" x="0px" y="0px"
	 viewBox="0 0 336.9 331.7" style="enable-background:new 0 0 336.9 331.7;" xml:space="preserve">
<style type="text/css">
	.st0{fill:#FFFFFF;}
	.st1{fill:#003878;}
	.st2{fill:none;stroke:#003878;stroke-width:2.559;}
</style>
<path id="Background" class="st0" d="M320.9,331.7H16c-8.8,0-16-7.2-16-16V16C0,7.2,7.2,0,16,0h304.9c8.8,0,16,7.2,16,16v299.7
	C336.9,324.5,329.7,331.7,320.9,331.7z"/>
<g id="Logo_1_">
	<path class="st1" d="M133.6,275.6l-3.3-1.2l3.3-8.6c0.4-0.9,0.5-1.7,0.5-2.3c-0.1-0.9-0.8-1.6-2.1-2.1c-1.4-0.5-2.4-0.5-3,0.2
		c-0.5,0.4-0.8,1-1.2,1.9l-3.3,8.6l-3.3-1.2l3.3-8.6c0.5-1.5,1.3-2.6,2.1-3.2c1.6-1.2,3.7-1.2,6.4-0.2c2.7,1,4.3,2.5,4.7,4.3
		c0.2,1,0,2.3-0.5,3.8L133.6,275.6z"/>
	<path class="st1" d="M116.3,268.7l-3.2-1.7l-0.5-12.2l-5.3,9l-2.8-1.6l7.6-12.9l3,1.6l0.5,12.5l5.4-9.2l2.8,1.6L116.3,268.7z"/>
	<path class="st1" d="M107.2,245.5l2.8,2l-9,12.1l-2.8-2L107.2,245.5z"/>
	<path class="st1" d="M97.7,240.7c1,0.9,1.6,2,1.5,3.2c0,1.2-0.6,2.5-1.8,3.7c-1.2,1.3-2.4,1.9-3.7,2c-1.3,0.1-2.4-0.3-3.4-1.2
		c-1-0.9-1.6-2-1.5-3.2c0-1.2,0.6-2.5,1.8-3.7c1.2-1.3,2.4-1.9,3.6-2C95.6,239.3,96.7,239.7,97.7,240.7z M88.1,239.2
		c-1.9,2-2.7,4-2.4,6.2c0.1,1.6,1.1,3.3,2.8,4.9c1.7,1.6,3.5,2.4,5.2,2.4c2.2,0.1,4.2-0.8,6.1-2.8c1.8-2,2.7-4,2.4-6.2
		c-0.1-1.6-1.1-3.3-2.8-4.9c-1.7-1.6-3.5-2.4-5.2-2.4C92,236.3,90,237.3,88.1,239.2z"/>
	<path class="st1" d="M79.9,241.3l-2.3-2.8l4.3-11.4l-8.3,6.4l-2-2.5l12.1-9.2l2.1,2.7l-4.3,11.7l8.5-6.5l2,2.5L79.9,241.3z"/>
	<path class="st1" d="M72.1,220.4c0.1-0.6,0.5-1.1,1-1.5c0.5-0.4,1.2-0.5,1.7-0.3c0.6,0.2,1.1,0.5,1.5,1.2c0.4,0.6,0.5,1.2,0.4,1.8
		c-0.1,0.6-0.5,1.1-1,1.5c-0.5,0.4-1.2,0.4-1.7,0.3c-0.6-0.2-1.1-0.5-1.5-1.2C72.2,221.7,72,221.1,72.1,220.4z"/>
	<path class="st1" d="M65,216.8c-1.7-0.7-3-1.9-3.8-3.8c-1.2-2.5-1.3-4.7-0.3-6.5c0.5-1,1.3-1.7,2.1-2.2l1.5,3.1
		c-0.5,0.5-1,1-1.2,1.5c-0.4,0.8-0.3,1.8,0.3,2.9c0.6,1.1,1.4,1.8,2.6,2.1c1.2,0.3,2.5,0.1,4-0.6c1.6-0.7,2.6-1.6,3-2.6
		c0.5-1,0.5-2-0.1-3.1c-0.5-1.1-1.2-1.7-2.1-2c-0.5-0.2-1.2-0.2-2-0.1l-1.5-3.1c1.6-0.4,3.2-0.3,4.7,0.4c1.5,0.6,2.6,1.8,3.4,3.6
		c1,2.1,1.1,4.1,0.5,5.9c-0.7,1.8-2.2,3.2-4.4,4.2C69.1,217.5,67,217.7,65,216.8z"/>
	<path class="st1" d="M67.3,191.6c0.4,1.3,0.2,2.5-0.5,3.5c-0.7,1-1.8,1.7-3.6,2.2c-1.6,0.5-3,0.4-4.2-0.2c-1.1-0.5-1.8-1.5-2.2-2.7
		c-0.4-1.3-0.2-2.5,0.5-3.5c0.7-1,1.8-1.7,3.6-2.2c1.6-0.5,3-0.4,4.2,0.1C66.2,189.5,66.9,190.4,67.3,191.6z M59.9,185.5
		c-2.7,0.7-4.5,2-5.4,4c-0.8,1.5-0.9,3.4-0.3,5.7c0.6,2.3,1.6,3.8,3.1,4.8c1.8,1.3,4,1.5,6.8,0.8c2.7-0.7,4.5-2,5.4-4
		c0.8-1.5,0.9-3.4,0.3-5.7c-0.6-2.3-1.6-3.8-3.2-4.8C64.9,185.1,62.6,184.8,59.9,185.5z"/>
	<path class="st1" d="M111.4,67.6l4.9,4l-3.8,2.1L111.4,67.6z M110.5,81.5l3.2-1.8l-0.6-3.2l5.3-3l2.6,2.1l3.3-1.8l-12.8-10
		l-3.5,1.9L110.5,81.5z"/>
	<path class="st1" d="M131.4,54.8l1,2.5l-4.7,1.8l4.8,11.4l-3.2,1.3l-4.8-11.4l-4.7,1.8l-1-2.5L131.4,54.8z"/>
	<path class="st1" d="M141.9,67.4l-3.4,1l-4.3-14.3l3.4-1L141.9,67.4z"/>
	<path class="st1" d="M151.7,63c-1.4,0.3-2.6,0-3.5-0.8c-1-0.7-1.6-2-1.9-3.7c-0.3-1.6-0.1-3,0.6-4c0.6-1,1.6-1.6,3-1.9
		c1.4-0.2,2.6,0,3.5,0.8c1,0.7,1.6,2,1.9,3.7c0.3,1.6,0.1,3-0.5,4C154.1,62.2,153.1,62.8,151.7,63z M158.7,56.5
		c-0.5-2.7-1.6-4.6-3.6-5.7c-1.5-0.9-3.4-1.2-5.8-0.8c-2.4,0.4-4,1.3-5.1,2.7c-1.5,1.6-1.9,3.8-1.5,6.5c0.5,2.7,1.6,4.5,3.6,5.6
		c1.5,0.9,3.4,1.2,5.8,0.8c2.4-0.4,4-1.3,5.1-2.7C158.7,61.3,159.1,59.2,158.7,56.5z"/>
	<path class="st1" d="M162,48.9h3.7l6.7,10.4l-0.1-10.4h3.2l0.1,14.9H172l-6.9-10.5l0.1,10.5h-3.2L162,48.9z"/>
	<path class="st1" d="M186.8,53.5l1.2,6.1l-4.2-0.6L186.8,53.5z M177.2,63.8l3.7,0.5l1.6-2.9l6.1,0.9l0.6,3.2l3.8,0.5l-3.6-15.6
		l-3.9-0.5L177.2,63.8z"/>
	<path class="st1" d="M199,52.3l3.4,1l-3.7,11.7l8.1,2.4l-0.8,2.6l-11.4-3.4L199,52.3z"/>
	<path class="st1" d="M215.1,64.1c0.3,0.5,0.3,1.1,0,1.7c-0.3,0.6-0.7,1-1.3,1.2c-0.6,0.2-1.3,0.2-1.9-0.1c-0.6-0.3-1.2-0.7-1.4-1.3
		c-0.3-0.5-0.3-1.2,0-1.7c0.3-0.5,0.7-1,1.3-1.2c0.6-0.2,1.3-0.2,1.9,0.1C214.4,63.1,214.8,63.6,215.1,64.1z"/>
	<path class="st1" d="M233.1,66.6l-1.3,2.3l-4.4-2.4l-6.1,10.7l-3-1.6l6.1-10.7l-4.4-2.4l1.3-2.3L233.1,66.6z"/>
	<path class="st1" d="M280.5,184.8c-0.5,0.4-1.1,0.5-1.7,0.5c-0.6-0.1-1.2-0.5-1.5-0.9c-0.4-0.5-0.5-1.1-0.4-1.8
		c0.1-0.7,0.5-1.3,0.9-1.6c0.5-0.4,1.1-0.6,1.7-0.5c0.6,0.1,1.2,0.5,1.5,0.9c0.4,0.5,0.5,1.1,0.4,1.8
		C281.3,183.9,281.1,184.4,280.5,184.8z"/>
	<path class="st1" d="M274.7,190.5c-0.7-0.1-1.3,0-1.6,0.2c-0.7,0.4-1.4,1.2-1.7,2.6c-0.3,0.8-0.4,1.5-0.3,2c0,1,0.5,1.6,1.3,1.8
		c0.5,0.1,0.9,0,1.4-0.4c0.4-0.4,0.8-1.1,1.3-2l0.8-1.6c0.8-1.6,1.6-2.6,2.1-3.1c1-0.9,2.2-1.1,3.7-0.7c1.3,0.4,2.3,1.2,2.8,2.5
		s0.5,2.9,0,4.9c-0.5,1.6-1.3,3-2.5,3.9c-1.2,0.9-2.6,1.3-4.1,0.8l0.9-3.1c0.9,0.2,1.6-0.1,2.2-0.7c0.4-0.5,0.7-1.1,0.9-1.8
		c0.3-0.8,0.3-1.6,0.1-2.2c-0.2-0.6-0.5-1-1.1-1.1c-0.5-0.2-1,0-1.4,0.5c-0.3,0.3-0.6,0.9-1.2,1.9l-1.4,2.6
		c-0.6,1.1-1.2,1.9-1.8,2.4c-1,0.7-2.1,0.9-3.4,0.5c-1.4-0.4-2.3-1.2-2.8-2.6c-0.5-1.4-0.5-3,0-5c0.6-2.1,1.6-3.6,2.7-4.5
		c1.2-0.9,2.6-1.2,4.1-0.7L274.7,190.5z"/>
	<path class="st1" d="M278.3,207.9c0.6,1.7,0.5,3.5-0.5,5.3c-1.2,2.5-2.7,3.9-4.9,4.4c-1.2,0.3-2.2,0.2-3.1-0.1l1.5-3.1
		c0.7,0.1,1.4,0.1,1.9-0.1c0.9-0.3,1.6-1,2.1-2.1c0.5-1.1,0.5-2.2,0-3.2s-1.6-1.9-3.1-2.6c-1.6-0.7-2.8-0.9-3.9-0.6
		c-1.1,0.4-1.9,1-2.4,2.1c-0.5,1.1-0.5,2-0.2,2.9c0.2,0.5,0.6,1,1.3,1.5l-1.5,3.1c-1.4-0.9-2.3-2.2-2.7-3.7
		c-0.5-1.6-0.3-3.1,0.6-4.9c1-2.1,2.4-3.5,4.3-4.1c1.8-0.6,3.9-0.5,6.1,0.5C276.1,204.4,277.7,205.9,278.3,207.9z"/>
	<path class="st1" d="M259.5,215.4l12.7,8.2l-1.9,2.8l-4.9-3.1l-3.6,5.3l4.9,3.1l-1.9,2.8l-12.7-8.2l1.9-2.8l5.7,3.7l3.6-5.3
		l-5.7-3.7L259.5,215.4z"/>
	<path class="st1" d="M246.9,235.3c0.9-1,2-1.5,3.3-1.5c1.3,0,2.5,0.6,3.8,1.7c1.3,1.2,1.9,2.3,2.1,3.6c0.1,1.2-0.3,2.3-1.3,3.3
		c-0.9,1-2,1.5-3.3,1.5c-1.3,0-2.5-0.6-3.8-1.7c-1.3-1.2-1.9-2.3-2.1-3.6C245.5,237.5,246,236.4,246.9,235.3z M245.3,244.7
		c2,1.8,4.1,2.7,6.3,2.4c1.7-0.1,3.4-1,5-2.7c1.6-1.7,2.5-3.4,2.5-5.1c0.1-2.1-0.8-4.1-2.8-6c-2-1.8-4.1-2.7-6.3-2.4
		c-1.7,0.1-3.4,1-5,2.7c-1.6,1.7-2.5,3.4-2.5,5.1C242.4,240.8,243.3,242.9,245.3,244.7z"/>
	<path class="st1" d="M233.5,247.1c1.1-0.8,2.3-1.1,3.5-0.9c1.2,0.3,2.4,1,3.4,2.4c1,1.4,1.6,2.7,1.5,3.8c-0.1,1.2-0.7,2.2-1.8,3
		c-1.1,0.8-2.3,1.1-3.5,0.8c-1.2-0.3-2.4-1-3.4-2.4c-1-1.4-1.6-2.6-1.5-3.8C231.9,248.9,232.4,247.9,233.5,247.1z M230.4,256
		c1.7,2.2,3.7,3.3,5.9,3.4c1.7,0.2,3.6-0.5,5.5-1.8c1.9-1.4,3-2.9,3.3-4.7c0.5-2.1-0.1-4.2-1.8-6.4c-1.6-2.1-3.6-3.3-5.9-3.4
		c-1.7-0.2-3.6,0.5-5.5,1.8c-1.9,1.4-3,2.9-3.3,4.7C228.2,251.7,228.7,253.8,230.4,256z"/>
	<path class="st1" d="M231.2,264.1l-3.1,1.6l-6-10.7l-7.4,3.9l-1.3-2.3l10.4-5.6L231.2,264.1z"/>
	<path class="st1" d="M211,262.5c-0.4-0.6-0.7-1-1.2-1.2c-0.7-0.4-1.8-0.4-3.1,0.2c-0.8,0.3-1.4,0.6-1.8,0.9
		c-0.8,0.6-1.1,1.4-0.7,2.1c0.2,0.5,0.5,0.7,1.1,0.8c0.5,0.1,1.4,0,2.5-0.2l1.8-0.3c1.7-0.3,3-0.4,3.8-0.2c1.3,0.3,2.2,1.1,2.7,2.5
		c0.5,1.3,0.4,2.5-0.4,3.7c-0.7,1.2-2.1,2.2-4,2.9c-1.6,0.6-3.2,0.7-4.8,0.4c-1.5-0.4-2.6-1.3-3.2-2.7l3.1-1.2
		c0.4,0.8,1,1.3,1.9,1.3c0.6,0,1.3-0.1,2.1-0.4c0.8-0.3,1.5-0.7,1.9-1.2c0.4-0.5,0.5-1,0.3-1.6c-0.2-0.5-0.5-0.7-1.2-0.8
		c-0.4,0-1.2,0-2.3,0.2l-2.9,0.5c-1.3,0.2-2.3,0.2-3.1,0c-1.2-0.3-2-1.1-2.5-2.4c-0.5-1.3-0.4-2.6,0.5-3.8c0.7-1.3,2.2-2.3,4.2-3
		c2-0.7,3.8-0.9,5.3-0.6c1.5,0.4,2.6,1.3,3.1,2.7L211,262.5z"/>
	<path class="st1" d="M214.9,219.1c10.8,8.8,20.4,10.3,24.7,5.2c4.3-4.9,0.9-13.7-9.8-22.5"/>
	<path class="st1" d="M184.2,233.3c4.8,12.8,11.5,18.5,17.9,16.3c6.2-2.2,8.9-12.7,4-25.5"/>
	<path class="st1" d="M147.1,230.8c-2.5,13.8,0.9,22.6,7.6,23.7c6.7,1.2,15.7-3.4,17.3-20.4"/>
	<path class="st1" d="M118.6,209.6c-9.2,10.8-12.5,21.3-7.3,25.6c5.2,4.3,14.9,0.5,24.1-10.2"/>
	<path class="st1" d="M102.3,178.7c-13.5,4.9-21.3,12.5-19.1,18.8c2.3,6.3,13.6,7.3,26.9,2.6"/>
	<g>
		<path class="st1" d="M153,269.1V268c0.6,0,1.1-0.1,1.3-0.1c0.4-0.1,0.7-0.3,1-0.5c0.2-0.2,0.3-0.4,0.4-0.6
			c0.1-0.2,0.1-0.3,0.1-0.4h1.6v9h-2v-6.1L153,269.1L153,269.1z"/>
		<path class="st1" d="M161.2,267.2c0.6-0.5,1.5-0.9,2.5-0.9c1.6,0,2.6,0.6,3.2,1.8c0.4,0.6,0.5,1.6,0.5,2.7c0,1.1-0.2,2-0.5,2.7
			c-0.6,1.4-1.6,2.1-3.3,2.1c-0.7,0-1.5-0.2-2-0.6c-0.6-0.4-0.9-1-1-1.7h2c0.1,0.3,0.2,0.5,0.4,0.6c0.2,0.2,0.5,0.3,0.8,0.3
			c0.6,0,1.1-0.3,1.4-0.9c0.2-0.4,0.3-0.8,0.3-1.6c-0.2,0.2-0.4,0.4-0.5,0.5c-0.4,0.2-0.8,0.3-1.4,0.3c-0.8,0-1.6-0.3-2.1-0.7
			c-0.6-0.5-0.9-1.2-0.9-2.1C160.3,268.6,160.7,267.8,161.2,267.2z M164.6,270.8c0.5-0.3,0.6-0.7,0.6-1.3s-0.1-0.9-0.4-1.2
			c-0.3-0.3-0.6-0.5-1.1-0.5c-0.4,0-0.6,0.1-0.9,0.3c-0.4,0.3-0.5,0.7-0.5,1.4c0,0.5,0.1,0.9,0.4,1.2c0.3,0.3,0.6,0.4,1.1,0.4
			C164.1,271,164.4,270.9,164.6,270.8z"/>
		<path class="st1" d="M173.1,268.6c0-0.2-0.1-0.3-0.2-0.5c-0.2-0.3-0.5-0.5-1-0.5c-0.6,0-1.1,0.4-1.4,1c-0.2,0.4-0.3,0.9-0.3,1.6
			c0.3-0.3,0.6-0.5,0.8-0.5c0.4-0.1,0.7-0.2,1.1-0.2c0.9,0,1.6,0.3,2.2,0.8c0.5,0.5,0.8,1.2,0.8,2.1c0,0.8-0.3,1.6-0.8,2.2
			c-0.5,0.6-1.5,0.9-2.7,0.9c-1.3,0-2.2-0.5-2.8-1.4c-0.5-0.7-0.7-1.6-0.7-2.8c0-0.6,0-1.3,0.1-1.6c0.1-0.7,0.4-1.4,0.6-1.9
			c0.3-0.5,0.6-0.7,1.1-1c0.5-0.3,1-0.4,1.6-0.4c0.9,0,1.6,0.2,2.2,0.6c0.5,0.5,0.9,1,0.9,1.7h-1.6L173.1,268.6L173.1,268.6z
			 M170.8,273.7c0.3,0.3,0.6,0.5,1.1,0.5c0.5,0,0.8-0.2,1-0.5c0.3-0.3,0.4-0.6,0.4-1.1c0-0.5-0.2-0.9-0.5-1.2
			c-0.3-0.3-0.6-0.5-1.1-0.5c-0.4,0-0.6,0.1-0.9,0.3c-0.4,0.3-0.6,0.7-0.6,1.3C170.3,273,170.4,273.4,170.8,273.7z"/>
		<path class="st1" d="M178.1,273c0.1,0.4,0.3,0.6,0.5,0.9c0.2,0.2,0.5,0.3,1,0.3c0.5,0,0.9-0.2,1.1-0.5c0.3-0.3,0.4-0.7,0.4-1.2
			s-0.1-0.8-0.4-1.2c-0.3-0.3-0.6-0.5-1.1-0.5c-0.3,0-0.5,0-0.6,0.1c-0.3,0.1-0.5,0.3-0.7,0.5l-1.8-0.1l0.7-4.9h5.6v1.5h-4.1l-0.4,2
			c0.3-0.2,0.6-0.3,0.7-0.4c0.3-0.1,0.6-0.2,1-0.2c0.8,0,1.6,0.3,2.2,0.7c0.6,0.5,0.9,1.2,0.9,2.2c0,0.8-0.3,1.6-0.9,2.2
			c-0.6,0.6-1.5,1-2.7,1c-0.9,0-1.7-0.2-2.4-0.6c-0.6-0.5-1-1.1-1-1.9L178.1,273L178.1,273z"/>
	</g>
	<path class="st1" d="M169.3,89.6c-42.1,0-76.4,33.5-76.4,75c0,41.4,34.2,75,76.4,75c42.1,0,76.4-33.5,76.4-75
		S211.4,89.6,169.3,89.6z M169.3,230.5c-37.1,0-67.1-29.5-67.1-66c0-36.4,30-66,67.1-66s67.1,29.5,67.1,66S206.4,230.5,169.3,230.5z
		"/>
	<path class="st1" d="M309.7,162.8c0-8.5,3.1-16.3,8.2-22.4c-0.5-3-1.2-6-1.9-9c-10.7-6.1-17.9-17.4-17.9-30.4
		c0-3.3,0.5-6.5,1.4-9.6c-1.2-2-2.5-4-3.8-6c-17.6-2.1-31.2-16.6-31.6-34.2c-1.6-1.3-3.3-2.6-4.9-3.8c-2.3,0.5-4.8,0.7-7.2,0.7
		c-15,0-27.9-9-33.3-21.7c-2-0.7-4.1-1.4-6.1-1.9c-5.6,3.5-12.2,5.5-19.3,5.5c-10.6,0-20.2-4.5-26.8-11.6c-2.4,0-4.8,0.1-7.1,0.3
		c-6.6,7.9-16.7,12.9-28,12.9c-5.8,0-11.2-1.3-16-3.7c-2.1,0.8-4.2,1.6-6.3,2.5c-5,13.5-18.3,23.2-34,23.2c-1.3,0-2.6-0.1-3.8-0.2
		c-1.6,1.4-3.3,2.7-4.9,4.2c0,16.8-12.1,30.8-28.2,34.4c-1.2,2.1-2.4,4.2-3.6,6.3c1.9,4.3,3,9.2,3,14.2c0,13-7.2,24.4-18,30.5
		c-0.4,2.3-0.6,4.5-0.9,6.8c5.5,6.1,8.8,14.2,8.8,23c0,7.8-2.6,15-7,20.8c0.5,2.2,0.9,4.3,1.4,6.4c11.5,6,19.2,17.7,19.2,31.1
		c0,3.8-0.6,7.3-1.7,10.7c1.3,2,2.6,4,3.9,6c17.1,2.2,30.5,16.1,31.3,33.2c1.7,1.4,3.5,2.7,5.2,3.9c1.5-0.2,3-0.3,4.6-0.3
		c14.2,0,26.5,8,32.3,19.6c1.9,0.7,3.8,1.4,5.9,1.9c5.3-2.9,11.5-4.7,18-4.7c10.7,0,20.2,4.5,26.9,11.7c0.5,0,0.9,0,1.4,0
		c2,0,3.9-0.1,5.9-0.1c6.6-8,16.8-13,28-13c6.3,0,12.3,1.6,17.5,4.4c2.4-0.8,4.7-1.7,7.1-2.7c4.9-13.7,18.3-23.5,34.1-23.5
		c1.6,0,3.3,0.1,4.9,0.4c1.8-1.6,3.7-3.1,5.5-4.7c0.6-15.8,12-29,27.2-32.8c1.3-2.1,2.6-4.3,3.8-6.5c-1.6-3.9-2.5-8.2-2.5-12.8
		c0-12.8,7.1-24.1,17.6-30.2c0.4-1.7,0.6-3.6,0.8-5.4C313.1,179.8,309.7,171.7,309.7,162.8z M169.6,293.9
		c-73.1,0-132.4-57.8-132.4-129.1S96.5,35.7,169.6,35.7s132.4,57.8,132.4,129.1C301.8,236.1,242.7,293.9,169.6,293.9z"/>
	<g>
		<g>
			<ellipse class="st2" cx="169.6" cy="164.8" rx="93.4" ry="91.1"/>
			<ellipse class="st2" cx="169.6" cy="164.8" rx="88.8" ry="86.6"/>
			<ellipse class="st2" cx="169.6" cy="164.8" rx="84.3" ry="82.2"/>
		</g>
		<ellipse class="st2" cx="169.6" cy="164.8" rx="80.1" ry="78"/>
	</g>
	<path class="st1" d="M51.9,182.9l-0.4-3.5l9.3-0.9c1-0.1,1.8-0.3,2.3-0.6c0.8-0.5,1.2-1.5,1-2.8c-0.2-1.4-0.6-2.2-1.6-2.6
		c-0.5-0.2-1.3-0.3-2.4-0.2l-9.3,0.9l-0.4-3.5l9.3-0.9c1.6-0.2,2.9,0,3.8,0.5c1.7,0.8,2.7,2.7,3.1,5.5c0.3,2.8-0.4,4.9-1.9,6
		c-0.8,0.6-2.1,1-3.7,1.2L51.9,182.9z"/>
	<path class="st1" d="M50.5,164.8l0.2-3.6l11-5.9L51,154.8l0.2-3.1l15.3,0.8l-0.2,3.4l-11.3,6l10.8,0.5l-0.2,3.1L50.5,164.8z"/>
	<path class="st1" d="M54.4,135l2.7,0.5l-1,4.9l12.4,2.5l-0.7,3.4l-12.4-2.6l-1,4.9l-2.7-0.5L54.4,135z"/>
	<path class="st1" d="M58.6,122.8l1.4-3.7l7.1,8.2l5.4,1.9l-1.2,3.2l-5.4-1.8l-11,2.2l1.4-3.8l7.4-1L58.6,122.8z"/>
	<path class="st1" d="M68.8,115.2c0.5-0.3,1.2-0.2,1.7,0.1c0.6,0.3,1,0.7,1.2,1.4c0.2,0.6,0.1,1.2-0.2,1.8c-0.3,0.6-0.7,1.1-1.4,1.3
		c-0.6,0.3-1.2,0.2-1.8-0.1c-0.5-0.3-1-0.7-1.2-1.3c-0.2-0.6-0.1-1.2,0.2-1.8C67.7,115.9,68.2,115.4,68.8,115.2z"/>
	<path class="st1" d="M71,99.8l1.9-3l9.9,12.7l-1.7,2.7l-15.9-3.3l2-3.1l11.8,3L71,99.8z"/>
	<path class="st1" d="M90.1,96.6c-0.9,1-2,1.6-3.3,1.6s-2.6-0.5-3.8-1.6c-1.3-1.1-2-2.3-2.2-3.5c-0.2-1.2,0.2-2.3,1.1-3.3
		c0.9-1,2-1.6,3.2-1.6c1.3,0,2.5,0.6,3.8,1.6c1.3,1.1,2,2.3,2.2,3.5C91.3,94.5,91,95.6,90.1,96.6z M91.3,87.2
		c-2.1-1.8-4.2-2.6-6.4-2.2c-1.7,0.2-3.4,1.1-4.9,2.9c-1.6,1.7-2.4,3.5-2.3,5.2c-0.1,2.2,0.9,4.1,3,6c2.1,1.7,4.2,2.5,6.4,2.2
		c1.7-0.2,3.4-1.1,4.9-2.8c1.6-1.7,2.4-3.5,2.3-5.2C94.5,91,93.4,89,91.3,87.2z"/>
	<path class="st1" d="M91.3,79.5c0.3-1.8,1.2-3.3,2.8-4.6c2.2-1.7,4.3-2.4,6.3-1.9c1.2,0.3,2,0.7,2.7,1.5l-2.7,2.2
		c-0.6-0.5-1.2-0.6-1.7-0.7c-0.9-0.1-1.8,0.2-2.8,1c-1,0.8-1.5,1.7-1.4,2.9c0,1.2,0.5,2.4,1.6,3.7c1.1,1.3,2.2,2,3.3,2.2
		c1.1,0.2,2.2-0.1,3-0.8c0.9-0.7,1.4-1.6,1.5-2.6c0-0.6-0.1-1.1-0.5-1.9l2.7-2.2c0.8,1.5,1.1,2.9,0.8,4.5c-0.3,1.6-1.2,2.9-2.7,4.1
		c-1.8,1.5-3.8,2.1-5.7,1.9c-1.9-0.2-3.8-1.3-5.3-3.1C91.6,83.6,91,81.5,91.3,79.5z"/>
	<path class="st1" d="M244.3,77.9l-7-5.1l-1.9,2.6l6.4,4.7l-1.6,2l-6.4-4.7l-2.4,3.1l7.3,5.3l-1.6,2.1l-10.1-7.3l9.2-11.9l9.7,7.1
		L244.3,77.9z"/>
	<path class="st1" d="M249.7,81.3c1.8,0.1,3.5,0.8,4.9,2.3c1.9,1.9,2.7,3.9,2.5,6c-0.2,1.1-0.5,2-1.2,2.7l-2.5-2.5
		c0.4-0.6,0.5-1.3,0.6-1.7c0-0.9-0.4-1.7-1.3-2.7c-0.9-0.9-1.9-1.3-3.1-1.1c-1.2,0.1-2.4,0.8-3.6,1.9c-1.2,1.2-1.8,2.3-1.9,3.4
		c-0.1,1.1,0.3,2.1,1.1,2.9c0.8,0.8,1.7,1.2,2.7,1.2c0.5,0,1.2-0.2,1.9-0.6l2.5,2.5c-1.4,0.9-2.9,1.3-4.5,1.2
		c-1.6-0.2-3.1-0.9-4.5-2.3c-1.6-1.6-2.5-3.5-2.5-5.4c0.1-1.9,0.9-3.8,2.7-5.4C245.6,82,247.6,81.2,249.7,81.3z"/>
	<path class="st1" d="M250.2,101.1l12.5-8.6l2,2.7l-4.8,3.3l3.8,5.2l4.8-3.3l2,2.7l-12.5,8.6l-2-2.7l5.6-3.8l-3.8-5.2l-5.6,3.8
		L250.2,101.1z"/>
	<path class="st1" d="M273.2,107.6l1.6,3.2l-6.6,10.4l9.5-4.6l1.5,2.8l-13.7,6.6l-1.6-3l6.7-10.6l-9.7,4.7l-1.5-2.8L273.2,107.6z"/>
	<path class="st1" d="M267.5,131.7l-1.2-3.2l14.4-5.1l1.2,3.2L267.5,131.7z"/>
	<path class="st1" d="M282.2,132.7c1.6,1,2.6,2.5,3,4.5c0.6,2.7,0.4,4.8-1,6.4c-0.7,0.9-1.6,1.5-2.5,1.7L281,142
		c0.6-0.4,1.1-0.8,1.5-1.2c0.5-0.7,0.6-1.7,0.3-2.9c-0.3-1.2-1-2-2.1-2.5c-1.1-0.5-2.5-0.6-4.1-0.1c-1.6,0.4-2.8,1.1-3.5,2
		c-0.6,0.9-0.8,1.9-0.5,3c0.3,1.2,0.8,1.9,1.7,2.4c0.5,0.3,1.1,0.4,1.9,0.5l0.8,3.3c-1.6,0.1-3.2-0.3-4.5-1.3
		c-1.3-0.9-2.2-2.3-2.7-4.1c-0.5-2.3-0.4-4.2,0.7-5.9c1-1.6,2.7-2.7,5.1-3.3C278.3,131.3,280.4,131.6,282.2,132.7z"/>
	<path class="st1" d="M284.5,155.6l-5.9,2.6l-0.4-4.2L284.5,155.6z M272.2,148.7l0.3,3.6l3.3,0.8l0.5,6l-3,1.4l0.3,3.7l14.7-7.1
		l-0.4-3.8L272.2,148.7z"/>
	<path class="st1" d="M288.6,166.6l-0.2,3.4l-12.5-0.6l-0.5,8.2l-2.7-0.2l0.7-11.5L288.6,166.6z"/>
	<path class="st1" d="M194.5,100.7c2.5-14.3-1.8-24.1-8.5-25.3c-6.7-1.2-13.2,7.3-15.7,21.6"/>
	<path class="st1" d="M224.7,123.4c9.8-11,12.5-22.4,6.9-26.7c-5.6-4.4-15.7-0.5-25.5,10.4"/>
	<path class="st1" d="M239.6,156.5c13.8-4.9,21.1-13,18.7-19.3c-2.4-6.3-13.6-7.7-27.6-2.9"/>
	<path class="st1" d="M235,191c14.1,2.5,24.3-1.3,25.5-7.9c1.2-6.6-6.7-13.2-20.8-15.7"/>
	<path class="st1" d="M104.2,142.9c-14.1-2.5-25,0.5-26.1,7.1c-1.2,6.6,7.9,13.6,22,16"/>
	<path class="st1" d="M123.8,112.5c-10.9-9.1-20.5-11-24.9-5.9c-4.4,5.1-0.5,15,10.5,24"/>
	<path class="st1" d="M156.7,96.7c-4.9-13.2-12.7-19.3-19.1-17c-6.4,2.3-8.2,12.5-3.2,25.6"/>
	<path class="st1" d="M129,135.4l-2.2,1.4l-2.2,1.6l-2.1,1.6l-2.1,1.7v0.3v0.4v0.4v0.4c2.6-1.6,3.4-0.8,3.4,8.1v5.5v5.5v5.5v5.8
		c0,6.7-0.4,9.3-0.9,10.7c-1,3.2-3.1,4.1-5.9,1.9c-5.6-5.4-5.6-12.1-5.6-15.1v-3.9v-3.8v-3.8v-3.6c0-3.5,0.4-4.4,2.8-7.3V148v-0.4
		v-0.3v-0.1l-2.2,2.5l-2.1,2.6l-2,2.6l-1.8,2.7v0.1v0.1v0.1v0.1c2-2.6,2.4-2.7,2.4,0v2.8v2.9v2.8v2.8c0,2.3,0,9.4,7.6,18.4
		c9.3,8.2,9.4-8.1,9.3-14.9v-5.8l0.1-5.7v-5.5v-5.7c0-9.1,0.6-10.8,3.6-13.3v-0.5V136v-0.5L129,135.4L129,135.4L129,135.4z"/>
	<path class="st1" d="M157,151.3l-0.1-7.1l-0.1-7l-0.1-7v-6.9h-0.4h-0.1l-0.4,0.1h-0.1c-0.5,4.1-1.9,4.4-2.1,4.4
		c-1.1,0.3-4-2.9-8-1.7c-7.6,3-14.7,18.5-14.7,40.2c-0.1,24.1,7.1,37.3,14.2,40.1c8.4,2.4,12.5-12.5,12.5-12.7l-0.3-0.6l-0.3-0.6
		l-0.3-0.6l-0.1-0.5c-1.5,3.6-4.8,11.7-10.4,10.4c-5.5-1.8-10.7-13-10.7-35.3c0.1-15,1.9-22.3,3.8-26.8c1.7-5.1,4.3-8.3,6.6-9
		c5.5-1.5,8.8,7.8,10,20.7h0.3l0.3-0.1L157,151.3L157,151.3L157,151.3z"/>
	<path class="st1" d="M191.8,121.2l-2.4-0.6l-2.2-0.5l-2.5-0.5l-2.3-0.3v0.5v0.6v0.6v0.6c1.7,0.5,3.3,1.1,3.4,6.2
		c0,2.6-0.8,7.8-0.9,8.6l-1.7,11.3l-1.6,11.5l-1.7,11.8l-1.7,11.8l-1.7-10.8l-1.7-10.8l-1.8-10.9l-1.7-10.9
		c-1-6.5-1.8-11.7-1.8-13.7c0-4.1,0.9-4.3,3.5-4.8v-0.6v-0.7V119v-0.4h-3.1l-3.1,0.1l-3.1,0.3l-3,0.4v0.4v0.6v0.6v0.7
		c2.1,0,3,1.5,4.9,13l2.8,17.4l3,17.7l2.7,17.7l2.8,17.7h0.3h0.1h0.3l0.1-0.1L180,187l2.7-18l2.5-17.7l2.7-17.2
		c1.3-9.2,2-10.7,4.1-10.7v-0.6v-0.6v-0.5L191.8,121.2L191.8,121.2L191.8,121.2z"/>
	<path class="st1" d="M212.3,195.8c-3.5,1.6-3.9-0.1-4-7v-13v-13v-12.9V137l0.5,0.3l0.6,0.3l0.5,0.3l0.6,0.4
		c4.4,2.3,5.5,4.5,6.2,14.4l0.3,0.1h0.3l0.3,0.1l0.3,0.1l-0.1-3.6v-3.7l-0.1-3.6v-3.6c-1.8-1.3-3.8-2.5-5.6-3.6s-3.8-2.2-5.9-3.2
		c-1.9-0.9-3.9-1.9-6-2.7c-2-0.6-4.2-1.5-6.2-2.1l-0.1,5v5l-0.1,5v5.1h0.3h0.3h0.3l0.3,0.1c1-12.6,2.2-14.6,7.1-13l0.5,0.3l0.6,0.1
		l0.6,0.3l0.6,0.3v13.5v13.5v13.5V189c0,8-0.2,10.5-4.1,12.5v0.4v0.6v0.5l0.1,0.6l3.1-1.4c1-0.4,2.1-0.8,3.1-1.4c1-0.5,2-1,3-1.6
		c1-0.5,2-1.1,3-1.7v-0.5v-0.5v-0.5v-0.5L212.3,195.8L212.3,195.8z"/>
	<path class="st1" d="M233.4,153.5l-0.3-0.3l-0.1-0.3l-0.1-0.3l-0.1-0.1c-0.1,0.4-0.3,1-1,0.1c-0.8-0.9-2.6-4.5-4.5-6.6
		c-3-3-6.3-1.7-6.3,6.9c0,7.6,2.3,11.1,5.6,14.6c4.7,3.6,5.1,4.9,5.1,7.3c0,2.4-1.2,6.3-3.8,8.8c-4.6,4.1-6.4-4.1-7.1-7.3h-0.3
		l-0.3,0.1c0,0-0.2,0.1-0.3,0l-0.1,0.1l0.3,4l0.3,3.9l0.3,3.9l0.4,3.8l0.3-0.1l0.3-0.1l0.1-0.3l0.1-0.3c0-1.1,0.4-2.7,1.1-3.3
		c1.1-0.8,2.8-0.2,5.3-2.8c4.4-5.2,6.3-11.1,6.3-13.8c-0.1-6.7-10.6-9.5-10.6-19.6c0-4.2,1.7-4.9,3.5-3.3c3.3,3.3,5.2,9.1,5.8,12.6
		l0.1,0.1h0.3l0.1,0.1l0.3,0.1l-0.3-2.1l-0.1-1.9l-0.1-2.2L233.4,153.5L233.4,153.5z"/>
</g>
</svg>
