<?xml version="1.0" encoding="utf-8"?>
<!-- Generator: Adobe Illustrator 22.0.1, SVG Export Plug-In . SVG Version: 6.00 Build 0)  -->
<svg version="1.1" id="Main" xmlns="http://www.w3.org/2000/svg" xmlns:xlink="http://www.w3.org/1999/xlink" x="0px" y="0px"
	 viewBox="0 0 500 141.2" style="enable-background:new 0 0 500 141.2;" xml:space="preserve">
<style type="text/css">
	.st0{fill:#FFFFFF;}
	.st1{fill:#283A88;}
</style>
<path id="Background_1_" class="st0" d="M484,141.2H16c-8.8,0-16-7.2-16-16V16C0,7.2,7.2,0,16,0h468c8.8,0,16,7.2,16,16v109.2
	C500,134,492.8,141.2,484,141.2z"/>
<g id="Logo_1_">
	<path class="st1" d="M154,19.2H165v32.7c0,2.2,0.6,3.7,3.1,3.7c2.1,0,3-1.3,3-3.7V19.2h11.1v31.6c0,7.4-3.7,13.1-14.2,13.1
		c-8.7,0-14.1-4.1-14.1-13.1L154,19.2L154,19.2z"/>
	<path class="st1" d="M220.7,30.3h10.7v32.6h-10.7V30.3z M220.7,19.3h10.7v7.9h-10.7V19.3z"/>
	<path class="st1" d="M235.6,37v-6.7h3V21h10.5v9.3h4.4V37h-4.4v16.4c-0.1,1.5,1,2.7,2.5,2.8c0.1,0,0.3,0,0.4,0h1.5v6.7h-5.9
		c-5.7,0-9-3.1-9-8.3V37H235.6L235.6,37z"/>
	<path class="st1" d="M271.3,42.3v-3.8c0-1.2-1-2.3-2.3-2.3c0,0,0,0,0,0c-1.2,0-2.3,0.9-2.3,2.2c0,0,0,0.1,0,0.1c0,0.4,0,2.1,0,3.7
		L271.3,42.3L271.3,42.3z M281,51.7v1.1c-0.1,6.6-3.9,11.1-12,11.1c-7.5,0-12.1-3.8-12.1-11.2V40.5c0-7.4,4.6-11.2,12.1-11.2
		c8.3,0,12,4.5,12,11.2v8.3h-14.2v5.8c-0.1,1.2,0.9,2.3,2.1,2.3c0.1,0,0.1,0,0.2,0c1.2,0,2.2-1,2.2-2.3c0,0,0,0,0,0v-3H281z"/>
	<path class="st1" d="M297.3,54.3c-0.2,1.2,0.7,2.3,1.9,2.5c0.1,0,0.2,0,0.4,0c1.3,0,2.3-1,2.3-2.3c0,0,0-0.1,0-0.1V38.7
		c0.1-1.2-0.8-2.3-2.1-2.4c-0.1,0-0.1,0-0.2,0c-1.2,0-2.3,0.9-2.3,2.2c0,0.1,0,0.2,0,0.3C297.3,40.5,297.3,54.3,297.3,54.3
		 M312.1,19.2v43.7h-9l-0.2-2.5h-0.2c-1.7,2.4-4.4,3.7-7.3,3.5c-5.3,0-8.3-3.7-8.3-9.2V38.4c0-5.5,3.3-9.1,8.1-9.1
		c2.4-0.1,4.7,0.7,6.5,2.3h0V19.2H312.1L312.1,19.2z"/>
	<path class="st1" d="M198,30.3l0.2,2.9h0.2c1.8-2.5,4.6-3.9,7.6-3.9c5.4,0,8.2,3.9,8.2,8.6c0,3.5,0,25,0,25h-10.5
		c0,0,0-21.1,0-22.8c0.2-1.3-0.7-2.4-2-2.6c-0.1,0-0.2,0-0.3,0c-1.3,0-2.3,1.1-2.3,2.4c0,0,0,0,0,0v22.9h-10.5V30.3H198z"/>
	<polygon class="st1" points="154,72.4 180.5,72.4 180.5,81.1 172.9,81.1 172.9,116 161.4,116 161.4,81.1 154,81.1 	"/>
	<rect x="334.7" y="72.4" class="st1" width="10.8" height="43.7"/>
	<path class="st1" d="M414.4,83.5h10.7v32.6h-10.7V83.5z M414.4,72.4h10.7v7.9h-10.7V72.4z"/>
	<path class="st1" d="M224,103.5v4.2c0,1.2-0.9,2.1-2,2.2c0,0-0.1,0-0.1,0c-1.1,0.1-2.1-0.8-2.2-2c0-0.1,0-0.1,0-0.2
		c0,0,0-14.3,0-15.9c0-1.2,1-2.2,2.2-2.2c1.2,0,2.2,1,2.2,2.2v3.9h10.5v-2.1c0-6.7-4.4-11.2-12.7-11.2c-7.5,0-12.7,3.8-12.7,11.2
		v12.2c0,7.4,5.2,11.2,12.7,11.2c8.3,0,12.7-4.5,12.7-11.2v-2.4H224L224,103.5z"/>
	<path class="st1" d="M193.6,95.4v-3.8c0-1.3-1-2.3-2.3-2.3c-1.3,0-2.3,1-2.3,2.3v3.7L193.6,95.4L193.6,95.4z M203.3,104.8v1.2
		c-0.1,6.6-3.9,11.1-12,11.1c-7.5,0-12.1-3.8-12.1-11.2V93.6c0-7.4,4.6-11.2,12.1-11.2c8.3,0,12,4.5,12,11.2v8.3h-14.2v5.8
		c0,1.2,1,2.2,2.2,2.3c0,0,0.1,0,0.1,0c1.2,0,2.3-1,2.3-2.2c0,0,0,0,0,0v-3H203.3L203.3,104.8z"/>
	<path class="st1" d="M445.6,95.4v-3.8c0-1.3-1-2.3-2.3-2.3c-1.3,0-2.3,1-2.3,2.3c0,0.4,0,2.1,0,3.7L445.6,95.4L445.6,95.4z
		 M455.3,104.8v1.2c-0.1,6.6-3.9,11.1-12,11.1c-7.5,0-12.1-3.8-12.1-11.2V93.6c0-7.4,4.6-11.2,12.1-11.2c8.3,0,12,4.5,12,11.2v8.3
		h-14.2v5.8c0,1.2,1,2.2,2.2,2.3c0,0,0.1,0,0.1,0c1.3,0,2.3-1,2.3-2.3v0v-3H455.3L455.3,104.8z"/>
	<path class="st1" d="M484.9,93.9h-9.6v-2c0.1-1.4-1-2.7-2.5-2.8c-0.1,0-0.2,0-0.3,0c-1.2-0.2-2.4,0.6-2.6,1.8c0,0.1,0,0.2,0,0.3
		c0,2.4,3.7,3.7,7.3,5.5c4.7,2.2,8.6,4.4,8.6,9.9c0,6.9-5.6,10.4-13.2,10.4c-8.2,0-12.6-4.1-12.7-11.1v-1.2h9.7v2.6
		c-0.1,1.5,1,2.8,2.6,3c0.2,0,0.3,0,0.5,0c1.4,0.1,2.7-1,2.8-2.4c0-0.1,0-0.1,0-0.2c0-2.1-2-3.5-6.3-5.2c-5.7-2.3-8.6-4.8-8.6-10.3
		c0-6.8,5.8-9.8,12.1-9.8c6.7,0,12.2,2.9,12.2,10.6L484.9,93.9L484.9,93.9z"/>
	<path class="st1" d="M392.9,106.2c-0.1,1.2,0.7,2.3,1.9,2.5c0.1,0,0.2,0,0.3,0c1.3,0,2.3-1,2.3-2.2c0-0.1,0-0.1,0-0.2V92
		c0.1-1.3-0.9-2.3-2.2-2.4c-0.1,0-0.1,0-0.2,0c-1.2,0-2.2,0.9-2.3,2.1c0,0.1,0,0.2,0,0.4C392.9,92.1,392.9,104.4,392.9,106.2
		 M393,117.3v0.7c-0.1,1.1,0.8,2.1,2,2.2c0.1,0,0.1,0,0.2,0c1.2,0,2.2-0.9,2.2-2c0,0,0-0.1,0-0.1v-5.4l0,0c-1.8,1.5-4.2,2.3-6.5,2.2
		c-5.2,0-8.1-3.4-8.1-8.9c0-3.5,0-14.4,0-14.4c0-5.2,2.8-9.1,8.3-9.1c2.9-0.1,5.6,1.2,7.3,3.5h0.2l0.2-2.5h9v32.4
		c0,6.7-3.3,11.2-12.4,11.2c-8,0-12.4-3.5-12.4-9.7L393,117.3L393,117.3z"/>
	<path class="st1" d="M303.7,106c0,7.4,5.1,11.2,12.6,11.2c8.3,0,12.6-4.5,12.6-11.2V93.8c0-6.7-4.3-11.2-12.6-11.2
		c-7.5,0-12.6,3.8-12.6,11.2V106L303.7,106z M313.9,91.9c0-1.3,1.1-2.3,2.4-2.3c0,0,0,0,0,0c1.3,0,2.3,1,2.4,2.3
		c0,2.2,0,15.9,0,15.9c0,1.3-1.1,2.3-2.4,2.3c-1.3,0-2.3-1-2.4-2.2c0,0,0,0,0,0C313.9,107.9,313.9,93.5,313.9,91.9"/>
	<path class="st1" d="M351.5,105.9c0,7.4,5.1,11.2,12.6,11.2c8.3,0,12.6-4.5,12.6-11.2V93.7c0-6.7-4.3-11.2-12.6-11.2
		c-7.5,0-12.6,3.8-12.6,11.2V105.9z M361.7,91.8c0-1.3,1.1-2.4,2.4-2.4c1.3,0,2.4,1.1,2.4,2.4v15.9c0,1.3-1.1,2.3-2.4,2.3
		c-1.3,0-2.3-1-2.4-2.2c0,0,0,0,0,0V91.8"/>
	<path class="st1" d="M250.5,72.4v13h0.1c1.8-1.9,4.2-2.9,6.8-2.9c5.7,0,8.1,3.9,8.2,8.7c0,3.5,0,24.9,0,24.9h-10.5V93.2
		c0.2-1.3-0.7-2.4-2-2.6c-0.1,0-0.2,0-0.3,0c-1.3,0-2.3,1.1-2.3,2.4c0,0,0,0,0,0.1v22.9H240V72.4H250.5L250.5,72.4z"/>
	<path class="st1" d="M281.6,83.4l0.2,2.9h0.2c1.8-2.5,4.6-4,7.7-4c5.4,0,8.2,3.9,8.2,8.6c0,3.5,0,25,0,25h-10.5c0,0,0-21.1,0-22.8
		c0.2-1.2-0.7-2.4-2-2.6c-0.1,0-0.2,0-0.2,0c-1.3,0-2.3,1.1-2.3,2.4c0,0,0,0,0,0.1c0,1.3,0,22.9,0,22.9h-10.5V83.4H281.6L281.6,83.4
		z"/>
	<path class="st1" d="M88.1,64.3c-0.2-1-0.4-2-0.7-2.9l31.8-8.1c0.4,1.1,0.6,2.3,0.8,3.5L88.1,64.3z M85.1,56.5
		c0.6,0.9,1.1,1.8,1.5,2.8l28.8-15.7c-0.5-1.2-1.2-2.3-1.9-3.4L85.1,56.5z M107.8,32.3c-1-1.2-2.1-2.3-3.3-3.4l-23.4,23
		c1.1,0.9,2,1.9,2.9,3L107.8,32.3z M76.2,48.8c1.4,0.6,2.7,1.4,3.9,2.3l17-28.1c-1.4-1-2.8-1.9-4.4-2.6L76.2,48.8z M70.8,47.2
		c1.6,0.2,3.1,0.7,4.6,1.2l8.9-31.6c-1.7-0.6-3.4-1.1-5.1-1.4L70.8,47.2z M70.5,14.3c-0.9-0.1-2-0.1-2.9-0.1c-0.9,0-1.9,0-2.7,0.1
		l0.3,32.9c0.8-0.1,1.6-0.1,2.5-0.2c0.8,0,1.7,0.1,2.5,0.2L70.5,14.3z M87.4,117.3l-3.5-12.6l0.4-0.2l6.9,11.1
		c3.4-1.5,6.5-3.5,9.4-5.9l-6.3-10.1l0.4-0.3l8.9,7.9c3-2.6,5.6-5.5,7.8-8.8l-8.2-7.3l0.2-0.4l10,4.5c2.3-3.5,4-7.4,5.1-11.4
		l-9.1-4.1l0.2-0.5l9.9,1.2c1.1-4.1,1.6-8.4,1.5-12.6H88.3c0,11.4-9.3,20.5-20.6,20.5s-20.5-9.3-20.5-20.6
		c0-10.3,7.6-18.9,17.8-20.3l-8.3-31.9c-1.9,0.3-3.8,0.8-5.6,1.5l8.3,29.9l-0.5,0.2L43.5,19.9c-1.9,0.9-3.7,1.9-5.4,3.2l15.2,25.1
		l-0.4,0.3L32,27.8c-1.7,1.4-3.2,2.9-4.5,4.6l20.1,19.2l-0.2,0.4L23.1,38c-1.4,1.9-2.6,3.9-3.5,6l23,12.7l-0.2,0.4l-25.4-7.1
		c-0.9,2.3-1.5,4.7-1.9,7.2l24.2,5.9l-0.1,0.5H14.4c-0.1,1.3-0.3,2.8-0.3,4c0,1.2,0.1,2.6,0.2,3.8l23.5-0.2v0.5l-22.8,5.7
		c0.4,2.7,1.1,5.3,2.1,7.8l21.2-5.8l0.2,0.4L19.3,90.4c1.1,2.6,2.5,5,4.1,7.3l17.4-10.1l0.3,0.4l-14.4,14c1.8,2.3,3.9,4.4,6.2,6.2
		l13-12.8l0.4,0.2L37,111.4c2.5,1.8,5.1,3.3,7.9,4.6l8.4-14.3l0.4,0.2l-4.3,16c3,1.1,6,2,9.2,2.4l4.1-14.8h0.5l0.1,15.3
		c1.5,0.1,3,0.2,4.5,0.2c1.8,0,3.6-0.2,5.4-0.3v-14.1h0.5l3.9,13.7C80.8,119.7,84.2,118.7,87.4,117.3"/>
</g>
</svg>
