<svg id="Layer_1" data-name="Layer 1" xmlns="http://www.w3.org/2000/svg" viewBox="0 0 333.33 68.52"><defs><style>.cls-1{fill:#ed2a24;}</style></defs><title>2017-sponsor-logo-solidworks-red</title><path class="cls-1" d="M237.09,34.24a1.09,1.09,0,0,0-.37-0.84,1.19,1.19,0,0,0-.79-0.24h-1.38L223.93,57.22l-2.77-12.9A2.06,2.06,0,0,0,219,42.48h-1.79l-8.39,14.6,0.08-22.78a1.12,1.12,0,0,0-.38-0.89,1.26,1.26,0,0,0-.85-0.27h-1.79V60.51h2.33A2.91,2.91,0,0,0,210,60a4.64,4.64,0,0,0,1.18-1.31l7.34-13.1,3.06,14.93h2a3.07,3.07,0,0,0,2.84-2L237,34.81a1.43,1.43,0,0,0,.14-0.57m96.23-1.09H322c-5.27,0-5.83,4.34-5.86,6.39a6.59,6.59,0,0,0,2.34,4.56l7.69,7.53a4.18,4.18,0,0,1,1.36,2.94,3.06,3.06,0,0,1-3.33,3s-10,0-10,0a0.94,0.94,0,0,0-.66.83h0v2.05H324.7c5.28,0,5.83-4.34,5.86-6.39v0c0-2.83-2.6-5-2.62-5l-7.29-7.18a4.11,4.11,0,0,1-1.48-2.81,3.06,3.06,0,0,1,3.33-3s10.08,0,10.16,0l0,0.07,0-.07a1,1,0,0,0,.67-0.83,0,0,0,0,1,0,0s0-1.67,0-2.05m-80.6,2.74c-5-.28-10.76,2.68-12.73,10.66-1.94,7.82,1.69,11.62,6.61,12.25l0.51,0c5.08,0.27,10.48-2.69,12.38-10.67,1.86-7.82-1.78-11.76-6.77-12.26m9.71,12.5C260.59,56.17,255,62.31,246,61.62h0c-8.32-1-10.71-8.29-9-15.31,1.94-7.77,7.52-13.91,16.34-13.23h0c8.21,1,10.67,8.29,9,15.3m49.83-15a1.22,1.22,0,0,0-.75-0.21h-1.34l-14.08,12L298,34.6a1.13,1.13,0,0,0-.41-1.16,1.43,1.43,0,0,0-.86-0.29h-1.36l-5.08,27.36h3L295.5,48.4l11.15,12.12H308a1.23,1.23,0,0,0,.75-0.22,0.91,0.91,0,0,0,.35-0.74,1.88,1.88,0,0,0-.4-1L298.13,47.1l14.09-12a1.34,1.34,0,0,0,.4-1,0.93,0.93,0,0,0-.34-0.74M284,37.3a5.11,5.11,0,0,0-2.69-1,13.65,13.65,0,0,0-1.53-.14c-1.57-.09-6.22,0-7.65,0l-1.8,10,3.16,0a27,27,0,0,0,6.46-.53c4.29-1.16,6.41-6,4-8.28m2.77-1.65c1.22,1.38,1.31,4,1,5.54-0.42,1.93-2.26,6.82-9.16,7.43l5.81,9.95a2.44,2.44,0,0,1,.4,1,0.92,0.92,0,0,1-.35.74,1.18,1.18,0,0,1-.74.22h-1.53l-6.81-11.74-5.49,0-2.13,11.76h-3l5.09-27.37h7c4.15,0,7.8.06,9.93,2.5M84.38,39a6.54,6.54,0,0,0,2.79,6.51l8.75,6.11c0.92,0.63,1.37,1.07,1.26,1.81-0.17,1-.7,1.43-2.51,1.43H84.49a1.75,1.75,0,0,0-1.88,1.76V60.4H94.54c5.22,0,7.81-3.08,8.33-6.35,0.49-3.08-.55-5.28-2.53-6.7L91,40.75c-0.75-.54-0.93-0.81-0.88-1.22,0.08-.67.69-0.95,1.75-0.95h10.62c1.3,0,2-1.33,2.24-2.64V33h-14c-3.12,0-5.84,2.79-6.34,6m105.89-6H175.54l-0.07.44c-0.34,1.86-.19,4,2.75,4h10.91c4.32,0,6,3.12,4.9,9-1,5.37-3.88,9.48-8.28,9.48h-5.92l2.81-15.39h-5a1.23,1.23,0,0,0-1.22.93L172.94,60.4h11.54c8.52,0,14.46-4,16.3-14.12C202.2,38.5,199,33,190.27,33M155.3,56H143.67l4-22a0.8,0.8,0,0,0-.8-0.93h-5.12l-5,27.36H156l0.5-2.73c0.22-1.23-.19-1.71-1.24-1.71M169.79,33h-5.12l-5,27.37h6.08L170.59,34a0.79,0.79,0,0,0-.8-0.93m-47.33,4.69c-5.55,0-8.46,3.23-9.5,9.58s0.81,9.58,6.36,9.58,8.46-3.22,9.5-9.58-0.8-9.58-6.35-9.58m12.4,9.58c-1.28,7.77-6.54,14.28-16.31,14.28s-12.91-6.51-11.63-14.28S113.46,33,123.24,33s12.9,6.5,11.62,14.27M63.76,23.5c-5.82-1-16.21-1.32-19.77,4.13-2.74,4.21,2.44,10,7.17,15.56,3.79,4.47,7.91,8.75,6.23,11.24-1.37,2-10.18,2-13.22,2.2-3.68.19-9,.21-9.92,0.71S33,59.17,36.08,59.73a88.43,88.43,0,0,0,14.76,1.36c6.57,0,13.47-1.08,15-6.16,1.2-4.08-3-8.46-6.63-12.9-4-4.86-8.08-8.32-7.73-11.77,0.26-2.68,5.51-2.83,14.23-3,1.81,0,5.42-.12,4.72-1.55-0.62-1.27-3.32-1.68-6.63-2.22M37,35.62c-3.73-2.56-10.38-3.41-15.85-3.13-4.87.26-13.25,1.81-12.94,3.35s5.6,1.15,8,1.15c5.34,0,13.83.33,15.16,3.77,2.88,7.42-16.65,20.74-20.82,19.46-1.88-.57,3.83-10.26,5.9-13.74,1.23-2.08,3.11-5.34,1.51-5.57-1.79-.25-3.76,2.83-5,4.6A134.25,134.25,0,0,0,3,61C2.13,62.66-.8,67.68.21,68.33s5.41-.26,11.09-2.51c17.87-7.07,25.91-16.29,28.06-23.9A5.69,5.69,0,0,0,37,35.62M23.69,3.09C23.32,1.89,29.28.33,35.82,0s14.37,1,15.83,5.37C54,12.52,42,22.9,31.46,28c-2.58,1.25-4.14,1.59-4.79,1.5a0.69,0.69,0,0,1-.51-1.06c0.37-.75,2.07-2.27,4.34-3.93C42.32,15.88,46.16,9.54,43.93,7,42.5,5.33,36.5,4.18,30.28,4.18c-1.69,0-6.13.37-6.59-1.09"/></svg>