<svg id="Layer_1" data-name="Layer 1" xmlns="http://www.w3.org/2000/svg" viewBox="0 0 336.42 49.82"><defs><style>.cls-1{fill:#42a5dd;}</style></defs><title>2017-sponsor-logo-formlabs-blue</title><path class="cls-1" d="M89.17,33.41c0-4.67,0-9.33,0-14a3,3,0,0,1,1.88-3,20.72,20.72,0,0,1,4.81-1.32c2.3-.44,4.63-0.64,6.95-0.95a24.24,24.24,0,0,1,6.36-.15,15,15,0,0,1,6,1.84,0.94,0.94,0,0,0,.87.08,55.75,55.75,0,0,1,8.08-1.76,24.86,24.86,0,0,1,6.75-.14,17.51,17.51,0,0,1,5.53,1.33,7.59,7.59,0,0,1,4.41,5.89A14.79,14.79,0,0,1,141,23.9q0,11.88,0,23.75c0,1.07-.22,1.29-1.32,1.29h-8.48c-1.06,0-1.28-.22-1.28-1.26q0-10.71,0-21.41a9.55,9.55,0,0,0-.17-2,3.4,3.4,0,0,0-3.42-2.93,24.24,24.24,0,0,0-5.31.47c-0.38.06-.34,0.3-0.34,0.56q0,5.94,0,11.88,0,6.75,0,13.49a1,1,0,0,1-1.21,1.2h-8.64c-1.07,0-1.32-.24-1.32-1.3q0-10.93,0-21.86a7.74,7.74,0,0,0-.19-1.82,3.1,3.1,0,0,0-3-2.6,26.66,26.66,0,0,0-5.7.47,0.32,0.32,0,0,0-.32.41,3,3,0,0,1,0,.39q0,12.43,0,24.87c0,1.24-.21,1.44-1.47,1.44H90.41c-1,0-1.25-.27-1.25-1.26Q89.17,40.54,89.17,33.41Z" transform="translate(0 0)"/><path class="cls-1" d="M17.17,35.53q0,6,0,12.1c0,1-.28,1.32-1.33,1.32H7.32c-1,0-1.33-.29-1.33-1.31Q6,35.51,6,23.38c0-.55-0.15-0.67-0.68-0.66-1.32,0-2.64,0-4,0C0.24,22.72,0,22.47,0,21.35q0-2.65,0-5.3a1,1,0,0,1,1.25-1.23c1.38,0,2.75,0,4.13,0,0.47,0,.63-0.08.62-0.6,0-1.78-.08-3.57.08-5.35A10.86,10.86,0,0,1,7.68,4,8.33,8.33,0,0,1,13.44.38,27,27,0,0,1,21.37.21,21.84,21.84,0,0,1,25.91,1a1,1,0,0,1,.85,1.37c-0.24,1.61-.47,3.23-0.7,4.85-0.14,1-.39,1.17-1.42,1a19.8,19.8,0,0,0-4-.38A10.11,10.11,0,0,0,19.33,8a2.26,2.26,0,0,0-2.1,2.27c-0.13,1.41,0,2.82-.06,4.23,0,0.4.24,0.34,0.48,0.34h6.91c1.08,0,1.35.27,1.35,1.35q0,2.62,0,5.24c0,1-.26,1.32-1.32,1.32H17.9c-0.83,0-.73-0.11-0.73.75Q17.17,29.51,17.17,35.53Z" transform="translate(0 0)"/><path class="cls-1" d="M65.47,33.41c0-4.66,0-9.33,0-14a3,3,0,0,1,2-3,25.75,25.75,0,0,1,5.91-1.5c2.36-.4,4.75-0.56,7.14-0.76,1-.08,1.91-0.11,2.87-0.12a1.56,1.56,0,0,1,1.81,1.81c-0.05,1.65,0,3.31,0,5,0,1.23-.26,1.51-1.51,1.51a59.28,59.28,0,0,0-6.39.39,0.61,0.61,0,0,0-.67.73q0,12.1,0,24.19c0,1.14-.22,1.35-1.38,1.35H66.73a1,1,0,0,1-1.26-1.26Q65.47,40.55,65.47,33.41Z" transform="translate(0 0)"/><path class="cls-1" d="M241.81,13.86a20,20,0,0,1,2.33.14,60.42,60.42,0,0,1,7.2,1.3,0.7,0.7,0,0,1,.64,1c-0.14.86-.27,1.72-0.42,2.58a0.73,0.73,0,0,1-1.08.69,16.68,16.68,0,0,0-3.45-.73,29.69,29.69,0,0,0-7.09-.48,10,10,0,0,0-3.68.78c-2.46,1.19-3.75,3-3,6.16a3.83,3.83,0,0,0,2.14,2.44,13.88,13.88,0,0,0,4.49,1.21,46.14,46.14,0,0,1,6.48,1c2.32,0.69,4.53,1.63,5.77,4a9.43,9.43,0,0,1,1,3.67,12.5,12.5,0,0,1-.89,6.6,9,9,0,0,1-6.5,4.91,28.51,28.51,0,0,1-11.12.29,34.06,34.06,0,0,1-6.14-1.53c-0.85-.3-0.93-0.43-0.74-1.31s0.34-1.6.55-2.39a0.68,0.68,0,0,1,1.06-.57,31.9,31.9,0,0,0,7.25,1.66,19,19,0,0,0,7.78-.49c4.13-1.3,4.26-5.28,3.15-7.75a4.25,4.25,0,0,0-2.89-2.31,42,42,0,0,0-5.21-.89,25.13,25.13,0,0,1-6.27-1.45,8.35,8.35,0,0,1-2.63-1.65A8.54,8.54,0,0,1,228,24.94a10.88,10.88,0,0,1,1.14-5.88,8.76,8.76,0,0,1,4.85-4,23.6,23.6,0,0,1,3.28-.87A19.27,19.27,0,0,1,241.81,13.86Z" transform="translate(0 0)"/><path class="cls-1" d="M152.64,21.91q0,10.34,0,20.69a2.73,2.73,0,0,0,.69,2.11,2.83,2.83,0,0,0,2.06.67,8.66,8.66,0,0,0,2.26-.24c0.61-.15.76,0,0.89,0.56s0.29,1.42.43,2.13a0.79,0.79,0,0,1-.54,1.05,11.71,11.71,0,0,1-7,.36c-2.33-.64-3.36-2.39-3.72-4.65a13.2,13.2,0,0,1-.12-2.05q0-20.1,0-40.2c0-1.1.11-1.25,1.19-1.53l2.69-.7c0.88-.23,1.17,0,1.17.9Q152.65,11.46,152.64,21.91Z" transform="translate(0 0)"/><path class="cls-1" d="M334.25,4.13c-1.46-.93-3-1.79-4.48-2.65a4.57,4.57,0,0,0-5,.12c-1.14.71-2.29,1.41-3.42,2.14-2.83,1.85-5.81,3.46-8.65,5.33s-5.87,3.45-8.68,5.37c-0.84.57-1.76,1-2.61,1.6a1.27,1.27,0,0,1-1.54,0c-1.16-.76-2.35-1.45-3.51-2.21-2.79-1.82-5.72-3.4-8.51-5.23s-5.95-3.46-8.79-5.4c-0.83-.56-1.72-1-2.57-1.55a4.61,4.61,0,0,0-5.1-.07c-1.28.74-2.5,1.57-3.81,2.24a5.11,5.11,0,0,0-1.83,7.12c0.8,1.21,1.63,2.39,2.39,3.62,1.1,1.76,2.34,3.43,3.43,5.19s2.45,3.62,3.61,5.47,2.61,3.83,3.82,5.8c0.19,0.32.17,0.45-.13,0.65-1.1.73-2.19,1.47-3.26,2.23a3,3,0,0,0-.23,5.05c0.82,0.72,1.67,1.4,2.48,2.13,2.09,1.88,4.37,3.55,6.44,5.47,0.91,0.85,1.91,1.6,2.87,2.38a2.94,2.94,0,0,0,4.88-1.44c0.77-2.34,1.51-4.68,2.29-7q1.85-5.59,3.73-11.17l2.56-7.63c0.47,1.27.83,2.42,1.2,3.56,1.16,3.53,2.36,7.05,3.54,10.58,1.27,3.81,2.53,7.63,3.79,11.44a3.08,3.08,0,0,0,5.25,1.45L317.63,46c2.68-2.34,5.43-4.6,8.16-6.89,1.94-1.62,1.9-3.71-.14-5.21-1-.72-2-1.39-3-2.06a0.34,0.34,0,0,1-.12-0.57c0.3-.44.55-0.92,0.83-1.37,1.15-1.82,2.39-3.58,3.5-5.42s2.34-3.56,3.45-5.38c1.31-2.13,2.72-4.2,4.09-6.29A19.46,19.46,0,0,0,336,10.08,4.78,4.78,0,0,0,334.25,4.13Zm-60.81.26a1.46,1.46,0,0,1,1.58.07c2.3,1.39,4.65,2.7,6.9,4.17,2,1.32,4.13,2.52,6.18,3.8a0.74,0.74,0,0,1,.42.39C282,11,275.55,9,269,6.91Zm15.94,41.85c-3.92-3.12-7.62-6.47-11.55-9.64,1.11-.8,2.18-1.57,3.25-2.35,0.27-.2.35,0,0.46,0.16,0.69,1,1.29,2.07,2,3.07a3,3,0,0,0,5,.07q2.57-3.53,5-7.14a15.06,15.06,0,0,1,1.8-2.32ZM284.21,32.1c0.41-.28.84-0.55,1.24-0.85q3.32-2.46,6.82-4.69c-2,2.93-4,5.92-6.17,8.82-0.68-1-1.34-2-2-2.94C283.95,32.24,284.09,32.19,284.21,32.1ZM292,22.67c-3.13,2.18-6.21,4.42-9.38,6.55-0.36.24-.48,0.19-0.7-0.15-2.05-3.11-4.16-6.18-6.18-9.32-1.14-1.78-2.39-3.49-3.49-5.28-0.78-1.28-1.68-2.48-2.52-3.87,9.3,2.68,18.36,5.66,27.64,8.24C295.58,20.32,293.73,21.44,292,22.67Zm40-11.66c-1.62,2.53-3.27,5-4.85,7.58-1.23,2-2.56,3.91-3.77,5.9-1,1.65-2.1,3.23-3.11,4.87-0.18.29-.31,0.36-0.63,0.14C317.38,28,315.12,26.6,313,25c-2.52-1.85-5.18-3.51-7.73-5.31-0.33-.23-0.62-0.51-1-0.84,9.36-2.6,18.53-5.59,27.8-8.25A0.37,0.37,0,0,1,331.92,11Z" transform="translate(0 0)"/><path class="cls-1" d="M60.15,23.57A11.51,11.51,0,0,0,56,16.9c-2.61-2-5.7-2.5-8.8-2.89a24.89,24.89,0,0,0-7.73.31A16,16,0,0,0,33,16.74a11.12,11.12,0,0,0-4.46,7.5,39.07,39.07,0,0,0,.3,16.46,10.73,10.73,0,0,0,5.42,7.11,14.21,14.21,0,0,0,4.08,1.41,31.47,31.47,0,0,0,11,.19c3-.47,5.87-1.39,8-3.81A12.24,12.24,0,0,0,60,40.84c0.85-2.93,1-5.92,1-10.09A28.93,28.93,0,0,0,60.15,23.57ZM49.25,38.51a6.23,6.23,0,0,1-1,2.49,2.87,2.87,0,0,1-1.67,1,8.63,8.63,0,0,1-3.92.1A3.41,3.41,0,0,1,40,39.92a12.75,12.75,0,0,1-.73-4.53c-0.06-2.84-.12-5.68.08-8.52a14,14,0,0,1,.38-2.36,3.67,3.67,0,0,1,3.33-3,9.31,9.31,0,0,1,3,0,3.72,3.72,0,0,1,3.13,3.12A38.34,38.34,0,0,1,49.59,32,41.55,41.55,0,0,1,49.25,38.51Z" transform="translate(0 0)"/><path class="cls-1" d="M223.63,23.67a12.9,12.9,0,0,0-2.35-5.76c-2-2.69-5-3.45-8.12-3.92a23.18,23.18,0,0,0-7.6.49c-1.84.33-3.67,0.73-5.54,1.24,0.11-1.27.29-2.45,0.31-3.63,0-3.73,0-7.47,0-11.2a0.73,0.73,0,0,0-1.07-.82l-3,.77c-1,.26-1.05.36-1.05,1.38q0,20.32,0,40.64c0,0.57,0,1.15.07,1.72A3.63,3.63,0,0,0,197.74,48c0.31,0.13.62,0.25,0.94,0.35a34.81,34.81,0,0,0,8.49,1.38,26.07,26.07,0,0,0,8.72-.73,9.57,9.57,0,0,0,4.58-2.62,12.81,12.81,0,0,0,3.1-6.41A46.46,46.46,0,0,0,223.63,23.67Zm-4.86,13.2a16.15,16.15,0,0,1-1.07,4.3,6.88,6.88,0,0,1-5.76,4.25,28.57,28.57,0,0,1-7.93-.16,28.29,28.29,0,0,1-3.17-.62,0.57,0.57,0,0,1-.51-0.68c0-4,0-7.92,0-11.87s0-7.88,0-11.82a0.55,0.55,0,0,1,.49-0.63A33.48,33.48,0,0,1,209,18.19a16.15,16.15,0,0,1,4,.24A6.21,6.21,0,0,1,218,22.69,20,20,0,0,1,219,29,49.81,49.81,0,0,1,218.77,36.88Z" transform="translate(0 0)"/><path class="cls-1" d="M189.2,21.15a6.12,6.12,0,0,0-3.58-5.71,18.42,18.42,0,0,0-6-1.43,25.78,25.78,0,0,0-7.19.15c-1.24.21-2.51,0.29-3.75,0.49a33.7,33.7,0,0,0-5.25,1.24,0.88,0.88,0,0,0-.74,1.24c0.15,0.76.31,1.53,0.45,2.29,0.17,1,.32,1.06,1.26.83,1.29-.32,2.56-0.69,3.84-1a33.17,33.17,0,0,1,8.95-.91,12.51,12.51,0,0,1,4.64.77A3.29,3.29,0,0,1,184,21.62a34.11,34.11,0,0,1,.17,4.95c0,0.32-.24.29-0.42,0.32-3.94.65-7.88,1.27-11.81,1.94a23.45,23.45,0,0,0-6.53,1.6,6.69,6.69,0,0,0-3.85,4.48,16,16,0,0,0-.19,7.18,8.52,8.52,0,0,0,3,5.16,12,12,0,0,0,6.4,2.31,39.34,39.34,0,0,0,11.26-.34,17.53,17.53,0,0,0,5-1.42A3.27,3.27,0,0,0,188.75,46a8.87,8.87,0,0,0,.51-3.22c0-3.4,0-6.8,0-10.2,0-1,0-2,0-3.07C189.24,26.73,189.34,23.94,189.2,21.15Zm-5.35,23.39a27,27,0,0,1-12.49.76,5.43,5.43,0,0,1-4.71-4.09,8.17,8.17,0,0,1,.4-5.76,3.61,3.61,0,0,1,2.15-1.75,27.32,27.32,0,0,1,4.67-1c3.21-.57,6.43-1.09,9.65-1.64,0.69-.12.69-0.13,0.69,0.57q0,3.07,0,6.13c0,2.06,0,4.12,0,6.19A0.46,0.46,0,0,1,183.85,44.55Z" transform="translate(0 0)"/></svg>